<svg xmlns="http://www.w3.org/2000/svg" xmlns:xlink="http://www.w3.org/1999/xlink" width="880" height="280"><g transform="translate(-200 -40)"><path d="M380 240h520v60H380z" fill="none"/><use xlink:href="#a" transform="matrix(1,0,0,1,385,245) translate(255 21.44097222222222)"/><use xlink:href="#b" transform="matrix(1,0,0,1,385,245) translate(9.626736111111228 39.21875)"/><path d="M220 100h840v60H220z" fill="none"/><use xlink:href="#c" transform="matrix(1,0,0,1,225,105) translate(137.62152777777777 30.32986111111111)"/><use xlink:href="#d" transform="matrix(1,0,0,1,225,105) translate(180.29513888888889 30.32986111111111)"/><use xlink:href="#e" transform="matrix(1,0,0,1,225,105) translate(233.63715277777777 30.32986111111111)"/><use xlink:href="#f" transform="matrix(1,0,0,1,225,105) translate(276.3107638888889 30.32986111111111)"/><use xlink:href="#g" transform="matrix(1,0,0,1,225,105) translate(329.65277777777777 30.32986111111111)"/><use xlink:href="#h" transform="matrix(1,0,0,1,225,105) translate(382.99479166666663 30.32986111111111)"/><use xlink:href="#i" transform="matrix(1,0,0,1,225,105) translate(436.33680555555554 30.32986111111111)"/><use xlink:href="#j" transform="matrix(1,0,0,1,225,105) translate(479.0104166666667 30.32986111111111)"/><use xlink:href="#k" transform="matrix(1,0,0,1,225,105) translate(532.3524305555557 30.32986111111111)"/><use xlink:href="#l" transform="matrix(1,0,0,1,225,105) translate(596.3628472222223 30.32986111111111)"/><use xlink:href="#m" transform="matrix(1,0,0,1,225,105) translate(649.7048611111111 30.32986111111111)"/><g><path d="M644.63 160v51.08h21.54l-43.08 43.1-43.1-43.1h21.54V160z" stroke="#000" stroke-width="2" fill="#de5f85"/></g><g><use xlink:href="#n" transform="matrix(1,0,0,1,585,165.00000000000006) translate(22.104600694444446 45.78233506944444)"/></g><path d="M240 60h240v60H240z" fill="none"/><g><use xlink:href="#o" transform="matrix(1,0,0,1,245,65) translate(80.73893229166666 28.938802083333336)"/></g><path d="M300 60h240v60H300z" fill="none"/><g><use xlink:href="#p" transform="matrix(1,0,0,1,305,65) translate(96.04926215277777 29.59526909722222)"/></g><path d="M400 60h240v60H400z" fill="none"/><g><use xlink:href="#q" transform="matrix(1,0,0,1,405,65) translate(54.71082899305556 29.59526909722222)"/><use xlink:href="#r" transform="matrix(1,0,0,1,405,65) translate(140.51703559027777 29.59526909722222)"/></g><defs><path fill="#7ab648" d="M102-681c0-398 126-689 513-689 165 0 291 58 379 174s132 287 132 515c0 353-105 610-380 685 49 143 111 234 276 240 36 1 86-7 115-13v134c-94 24-238 34-327-3-143-59-210-191-259-346-336-41-449-320-449-697zm749 406c94-160 97-656-5-807-57-85-130-132-231-132-104 0-178 47-234 132-101 153-99 655 1 809 57 89 130 138 232 138 109 0 184-49 237-140" id="s"/><path fill="#3aa6dd" d="M904-1102c199 0 220 177 220 381V0H956v-686c-3-114 0-215-60-264-70-33-125-4-158 71-26 56-39 140-39 252V0H531v-686c-3-114-1-215-61-264-78-41-136 24-157 84-24 69-39 159-39 259V0H105c-3-360 6-732-6-1082h149c6 50 3 123 8 175 36-100 83-195 216-195 135 0 166 79 196 196 42-105 93-196 236-196" id="t"/><path fill="#ef8d22" d="M708-584V0H520v-584L36-1349h205l374 611 372-611h205" id="u"/><path fill="#ef8d22" d="M1018 0H814c-67-224-138-444-200-673C552-442 476-224 407 0H204L21-1082h178c43 310 105 601 126 933 54-225 128-425 193-638h193c63 212 134 415 185 638 22-336 90-622 136-933h176" id="v"/><path fill="#ef8d22" d="M1034 0L896-382H333L196 0H0l510-1349h217L1228 0h-194zM847-531c-77-225-157-447-231-674-69 231-154 451-232 674h463" id="w"/><path fill="#ef8d22" d="M622-1349c296 4 497 117 497 404 0 282-193 424-485 431H353V0H162v-1349h460zm-15 684c195-3 320-88 320-277 0-184-129-255-328-254H353v531h254" id="x"/><path fill="#ef8d22" d="M587-135c154 0 209-115 209-281v-777H485v-156h501v929C982-148 857 20 586 20c-254 0-368-136-410-370l187-31c24 134 77 246 224 246" id="y"/><path fill="#ef8d22" d="M147 0v-137l681-806H187v-139h844v137L349-139h719V0H147" id="z"/><path fill="#ef8d22" d="M715 0H502L69-1082h202c94 253 197 500 285 758 19 57 36 126 52 183 96-335 234-626 350-941h201" id="A"/><path fill="#ef8d22" d="M353-779c69-51 166-92 291-90 218 3 357 100 423 255 21 52 32 109 32 170 0 305-189 464-500 464-268 0-424-116-471-335l182-21c35 130 124 212 293 209 198-4 309-114 309-313 0-182-118-282-305-282-120 0-198 45-262 101H169l47-728h801v145H382" id="B"/><path fill="#ef8d22" d="M650-1214c-281 0-336 244-336 533 0 295 60 546 347 546 188 0 263-142 322-282l159 65C1058-155 935 20 659 20c-401 0-546-295-546-701 0-407 135-689 536-689 264 0 391 146 466 335l-168 65c-47-129-127-244-297-244" id="C"/><path fill="#ef8d22" d="M1155 0H73v-143l818-1050H146v-156h962v139L290-156h865V0" id="D"/><path fill="#ef8d22" d="M873-819c-18-114-119-146-250-146-163 0-245 50-245 151 0 151 170 148 294 185 182 54 388 94 388 320 0 240-189 325-439 329-245 4-410-69-454-268l159-31c24 133 136 168 295 165 144-2 270-31 270-171 0-164-195-160-331-202-167-52-350-87-350-299 0-218 173-315 413-313 220 2 373 77 412 260" id="E"/><path fill="#ef8d22" d="M706-1102c241 0 344 136 343 381V0H868v-695c1-168-57-273-220-268-190 6-283 138-283 336V0H185c-3-360 6-732-6-1082h170c4 54 7 126 8 185h3c63-121 164-204 346-205" id="F"/><path fill="#ef8d22" d="M672-881c271 0 424 163 424 435 0 291-160 466-455 466-367 0-490-287-490-662 0-324 85-568 293-680 129-70 351-59 460 16 73 50 125 123 153 223l-172 31c-31-108-107-172-232-172-259 0-316 252-323 529 59-113 178-186 342-186zm-37 756c186 0 278-124 278-313s-96-304-284-304c-163 0-281 93-281 261 0 157 65 270 168 327 35 19 75 29 119 29" id="G"/><path fill="#ef8d22" d="M611-1370c266 0 451 106 451 368 0 147-77 243-154 327-132 144-316 255-451 395-42 44-75 87-96 134h723V0H144v-117c124-264 387-411 582-603 73-72 151-147 151-271 0-161-104-231-266-231-163 0-249 90-268 238l-184-17c35-233 185-369 452-369" id="H"/><path fill="#ef8d22" d="M1060-1016c0 191-128 285-295 323v4c154 18 262 91 313 209 14 35 21 72 21 110 0 277-194 390-478 390-292 0-457-129-493-382l186-17c24 161 121 250 307 250 172 1 298-80 291-247-8-208-220-239-446-233v-156c217 9 409-34 409-232 0-152-102-225-264-225-159 0-264 88-278 233l-181-14c33-239 196-367 461-367 264 0 447 102 447 354" id="I"/><path fill="#ef8d22" d="M614-836l333-513h205L717-705 1193 0H988L614-573 241 0H36l476-705-435-644h205" id="J"/><path fill="#ef8d22" d="M839-1335c-182-6-269 67-259 253h491v142H580V0H400v-940H138v-142h262c-15-293 132-408 418-402 94 2 200 7 281 21v145c-75-10-177-14-260-17" id="K"/><path fill="#ef8d22" d="M617-1102c355 0 481 238 477 599H322c5 222 84 388 301 388 144 0 244-59 284-166l158 45C1002-72 854 20 623 20c-342 0-490-220-490-568 0-346 151-554 484-554zm291 461c-18-192-90-328-289-328-194 0-287 128-295 328h584" id="L"/><path fill="#ef8d22" d="M904-1102c199 0 220 177 220 381V0H956v-686c-3-114 0-215-60-264-70-33-125-4-158 71-26 56-39 140-39 252V0H531v-686c-3-114-1-215-61-264-78-41-136 24-157 84-24 69-39 159-39 259V0H105c-3-360 6-732-6-1082h149c6 50 3 123 8 175 36-100 83-195 216-195 135 0 166 79 196 196 42-105 93-196 236-196" id="M"/><path fill="#ef8d22" d="M682 16c-209 0-323-80-324-285v-671H190v-142h170l58-282h120v282h432v142H538v652c2 114 60 155 182 155 106 0 209-16 297-34v137C921-4 806 16 682 16" id="N"/><path fill="#ef8d22" d="M1048-32c-2 300-135 456-433 456-222-1-358-88-400-267l184-25c22 99 100 157 222 156 184-2 248-125 248-315 0-64 3-133-2-194C807-100 706-13 524-12c-306 0-381-228-381-537 0-318 85-550 400-550 164 0 271 83 325 202h3c1-60 3-134 12-185h171c-13 339-4 702-6 1050zM585-145c210-8 284-178 284-406 0-192-52-331-177-392-33-16-69-22-104-22-223 2-259 184-259 414 0 229 31 415 256 406" id="O"/><path fill="#ef8d22" d="M698-1104c312 3 392 244 392 558 0 315-82 566-392 566-169 0-277-65-331-184h-5c8 188 2 394 4 589H185V-858c0-76-1-156-6-224h175c6 52 9 120 10 178h4c58-122 150-202 330-200zm-49 991c225 0 255-203 255-433 0-225-32-419-253-419-236 0-285 192-285 441 0 237 53 411 283 411" id="P"/><path fill="#ef8d22" d="M875 0v-623H353V0H162v-1349h191v566h522v-566h191V0H875" id="Q"/><path fill="#ef8d22" d="M865-914c-3-187-2-380-2-570h180v1261c0 76 1 155 6 223H877c-8-49-9-116-10-174h-5C801-44 708 26 530 26c-135 0-234-46-297-139s-95-232-95-419c0-377 131-566 392-566 176 0 271 63 335 184zm-286-51c-222 0-255 197-255 427 0 229 31 425 253 425 237 0 286-195 286-441 0-238-52-411-284-411" id="R"/><path fill="#ef8d22" d="M1018 0H810c-67-251-137-496-194-756C558-495 487-250 419 0H211L0-1349h189c48 393 110 772 142 1181 58-262 128-512 197-763h175c69 251 139 500 197 763 37-402 92-789 139-1181h189" id="S"/><path fill="#ef8d22" d="M162 0v-1349h919v156H353v422h668v154H353v461h769V0H162" id="T"/><path fill="#ef8d22" d="M1069-1210C890-948 720-664 634-316c-25 105-38 210-38 316H408c9-385 153-667 302-925 57-98 120-190 185-279H158v-145h911v139" id="U"/><path fill="#ef8d22" d="M141-911c0-296 172-459 469-459 157 0 276 55 356 166s121 278 121 501c-1 324-87 567-297 677-134 70-367 56-475-22-71-52-117-126-145-226l172-27c34 111 103 176 238 176 187 0 261-138 304-298 16-65 24-141 25-227-59 121-177 199-350 199-275 0-418-184-418-460zm461 318c168 0 289-96 289-269 0-158-59-275-163-332-36-20-77-30-124-30-187 0-280 125-280 313s90 318 278 318" id="V"/><path fill="#ef8d22" d="M615-1102c343 0 484 203 482 560-1 347-147 562-488 562-336 0-475-219-479-562-4-349 156-560 485-560zm-8 989c240 0 301-180 301-429 0-245-55-427-290-427-236 0-299 181-299 427 0 243 61 429 288 429" id="W"/><path fill="#ef8d22" d="M390 276c167 0 266-82 266-251v-965H249v-142h587V28c-4 270-165 397-431 397-107 0-208-16-288-43V242c80 18 173 34 273 34zm246-1568v-192h200v192H636" id="X"/><path fill="#ef8d22" d="M365-904c58-129 161-200 334-200 130 0 228 46 293 138s98 233 98 420c0 189-34 331-102 425S824 20 698 20c-170 0-275-64-336-184 0 55-3 116-9 164H179c5-68 6-147 6-223v-1261h180c-2 193 4 394-4 580h4zm283 791c221 0 256-197 256-427 0-229-34-425-254-425-236 0-285 195-285 441 0 237 53 411 283 411" id="Y"/><path fill="#ef8d22" d="M655-135c108 0 195-33 260-74v-336H622v-160h479v572C981-54 839 20 639 20c-388 0-526-306-526-701 0-406 129-689 529-689 261 0 392 137 461 331l-171 56c-47-131-122-231-288-231-281 0-330 245-330 533 0 179 28 314 84 407s142 139 257 139" id="Z"/><g id="b"><use transform="matrix(0.008680555555555556,0,0,0.008680555555555556,0,0)" xlink:href="#s"/><use transform="matrix(0.008680555555555556,0,0,0.008680555555555556,10.668402777777779,0)" xlink:href="#t"/><use transform="matrix(0.008680555555555556,0,0,0.008680555555555556,21.336805555555557,0)" xlink:href="#u"/><use transform="matrix(0.008680555555555556,0,0,0.008680555555555556,32.005208333333336,0)" xlink:href="#v"/><use transform="matrix(0.008680555555555556,0,0,0.008680555555555556,42.673611111111114,0)" xlink:href="#w"/><use transform="matrix(0.008680555555555556,0,0,0.008680555555555556,53.34201388888889,0)" xlink:href="#x"/><use transform="matrix(0.008680555555555556,0,0,0.008680555555555556,64.01041666666667,0)" xlink:href="#y"/><use transform="matrix(0.008680555555555556,0,0,0.008680555555555556,74.67881944444446,0)" xlink:href="#z"/><use transform="matrix(0.008680555555555556,0,0,0.008680555555555556,85.34722222222223,0)" xlink:href="#A"/><use transform="matrix(0.008680555555555556,0,0,0.008680555555555556,96.015625,0)" xlink:href="#B"/><use transform="matrix(0.008680555555555556,0,0,0.008680555555555556,106.68402777777777,0)" xlink:href="#C"/><use transform="matrix(0.008680555555555556,0,0,0.008680555555555556,117.35243055555554,0)" xlink:href="#D"/><use transform="matrix(0.008680555555555556,0,0,0.008680555555555556,128.02083333333331,0)" xlink:href="#E"/><use transform="matrix(0.008680555555555556,0,0,0.008680555555555556,138.6892361111111,0)" xlink:href="#F"/><use transform="matrix(0.008680555555555556,0,0,0.008680555555555556,149.35763888888886,0)" xlink:href="#w"/><use transform="matrix(0.008680555555555556,0,0,0.008680555555555556,160.02604166666663,0)" xlink:href="#G"/><use transform="matrix(0.008680555555555556,0,0,0.008680555555555556,170.6944444444444,0)" xlink:href="#H"/><use transform="matrix(0.008680555555555556,0,0,0.008680555555555556,181.36284722222217,0)" xlink:href="#B"/><use transform="matrix(0.008680555555555556,0,0,0.008680555555555556,192.03124999999994,0)" xlink:href="#E"/><use transform="matrix(0.008680555555555556,0,0,0.008680555555555556,202.69965277777771,0)" xlink:href="#I"/><use transform="matrix(0.008680555555555556,0,0,0.008680555555555556,213.36805555555546,0)" xlink:href="#J"/><use transform="matrix(0.008680555555555556,0,0,0.008680555555555556,224.03645833333326,0)" xlink:href="#K"/><use transform="matrix(0.008680555555555556,0,0,0.008680555555555556,234.70486111111103,0)" xlink:href="#H"/><use transform="matrix(0.008680555555555556,0,0,0.008680555555555556,245.3732638888888,0)" xlink:href="#F"/><use transform="matrix(0.008680555555555556,0,0,0.008680555555555556,256.0416666666666,0)" xlink:href="#L"/><use transform="matrix(0.008680555555555556,0,0,0.008680555555555556,266.71006944444434,0)" xlink:href="#M"/><use transform="matrix(0.008680555555555556,0,0,0.008680555555555556,277.3784722222221,0)" xlink:href="#N"/><use transform="matrix(0.008680555555555556,0,0,0.008680555555555556,288.0468749999999,0)" xlink:href="#u"/><use transform="matrix(0.008680555555555556,0,0,0.008680555555555556,298.71527777777766,0)" xlink:href="#O"/><use transform="matrix(0.008680555555555556,0,0,0.008680555555555556,309.38368055555543,0)" xlink:href="#x"/><use transform="matrix(0.008680555555555556,0,0,0.008680555555555556,320.0520833333332,0)" xlink:href="#P"/><use transform="matrix(0.008680555555555556,0,0,0.008680555555555556,330.720486111111,0)" xlink:href="#Q"/><use transform="matrix(0.008680555555555556,0,0,0.008680555555555556,341.3888888888887,0)" xlink:href="#R"/><use transform="matrix(0.008680555555555556,0,0,0.008680555555555556,352.0572916666665,0)" xlink:href="#S"/><use transform="matrix(0.008680555555555556,0,0,0.008680555555555556,362.7256944444443,0)" xlink:href="#T"/><use transform="matrix(0.008680555555555556,0,0,0.008680555555555556,373.39409722222206,0)" xlink:href="#z"/><use transform="matrix(0.008680555555555556,0,0,0.008680555555555556,384.06249999999983,0)" xlink:href="#U"/><use transform="matrix(0.008680555555555556,0,0,0.008680555555555556,394.7309027777776,0)" xlink:href="#V"/><use transform="matrix(0.008680555555555556,0,0,0.008680555555555556,405.3993055555554,0)" xlink:href="#W"/><use transform="matrix(0.008680555555555556,0,0,0.008680555555555556,416.06770833333314,0)" xlink:href="#X"/><use transform="matrix(0.008680555555555556,0,0,0.008680555555555556,426.7361111111109,0)" xlink:href="#S"/><use transform="matrix(0.008680555555555556,0,0,0.008680555555555556,437.40451388888863,0)" xlink:href="#F"/><use transform="matrix(0.008680555555555556,0,0,0.008680555555555556,448.07291666666646,0)" xlink:href="#x"/><use transform="matrix(0.008680555555555556,0,0,0.008680555555555556,458.74131944444423,0)" xlink:href="#Y"/><use transform="matrix(0.008680555555555556,0,0,0.008680555555555556,469.409722222222,0)" xlink:href="#R"/><use transform="matrix(0.008680555555555556,0,0,0.008680555555555556,480.0781249999998,0)" xlink:href="#Z"/></g><path fill="#7ab648" d="M1065-1013c47 164 49 500-1 665C999-130 875 20 611 20c-377 0-484-300-487-695-2-245 41-425 141-551 77-98 191-144 352-144 261 0 386 140 448 357zM741-155c199-92 203-504 159-785-26-168-96-284-283-284-281 0-308 256-311 549-2 181 18 324 80 428 46 77 115 118 227 120 47 0 90-10 128-28" id="aa"/><path fill="#7ab648" d="M932 0L611-444 288 0H94l415-556-397-526h199l300 421 298-421h201L713-558 1133 0H932" id="ab"/><path fill="#7ab648" d="M353-779c69-51 166-92 291-90 218 3 357 100 423 255 21 52 32 109 32 170 0 305-189 464-500 464-268 0-424-116-471-335l182-21c35 130 124 212 293 209 198-4 309-114 309-313 0-182-118-282-305-282-120 0-198 45-262 101H169l47-728h801v145H382" id="ac"/><g id="c"><use transform="matrix(0.008680555555555556,0,0,0.008680555555555556,0,0)" xlink:href="#aa"/><use transform="matrix(0.008680555555555556,0,0,0.008680555555555556,10.668402777777779,0)" xlink:href="#ab"/><use transform="matrix(0.008680555555555556,0,0,0.008680555555555556,21.336805555555557,0)" xlink:href="#ac"/></g><path fill="#3aa6dd" d="M1065-1013c47 164 49 500-1 665C999-130 875 20 611 20c-377 0-484-300-487-695-2-245 41-425 141-551 77-98 191-144 352-144 261 0 386 140 448 357zM741-155c199-92 203-504 159-785-26-168-96-284-283-284-281 0-308 256-311 549-2 181 18 324 80 428 46 77 115 118 227 120 47 0 90-10 128-28" id="ad"/><path fill="#3aa6dd" d="M932 0L611-444 288 0H94l415-556-397-526h199l300 421 298-421h201L713-558 1133 0H932" id="ae"/><path fill="#3aa6dd" d="M611-1370c266 0 451 106 451 368 0 147-77 243-154 327-132 144-316 255-451 395-42 44-75 87-96 134h723V0H144v-117c124-264 387-411 582-603 73-72 151-147 151-271 0-161-104-231-266-231-163 0-249 90-268 238l-184-17c35-233 185-369 452-369" id="af"/><g id="d"><use transform="matrix(0.008680555555555556,0,0,0.008680555555555556,0,0)" xlink:href="#ad"/><use transform="matrix(0.008680555555555556,0,0,0.008680555555555556,10.668402777777779,0)" xlink:href="#ae"/><use transform="matrix(0.008680555555555556,0,0,0.008680555555555556,21.336805555555557,0)" xlink:href="#af"/><use transform="matrix(0.008680555555555556,0,0,0.008680555555555556,32.005208333333336,0)" xlink:href="#ad"/></g><path fill="#ef8d22" d="M1065-1013c47 164 49 500-1 665C999-130 875 20 611 20c-377 0-484-300-487-695-2-245 41-425 141-551 77-98 191-144 352-144 261 0 386 140 448 357zM741-155c199-92 203-504 159-785-26-168-96-284-283-284-281 0-308 256-311 549-2 181 18 324 80 428 46 77 115 118 227 120 47 0 90-10 128-28" id="ag"/><path fill="#ef8d22" d="M932 0L611-444 288 0H94l415-556-397-526h199l300 421 298-421h201L713-558 1133 0H932" id="ah"/><path fill="#ef8d22" d="M148-1120c216-7 379-89 463-229h166v1204h353V0H157v-145h439v-1021c-79 124-254 184-448 194v-148" id="ai"/><g id="e"><use transform="matrix(0.008680555555555556,0,0,0.008680555555555556,0,0)" xlink:href="#ag"/><use transform="matrix(0.008680555555555556,0,0,0.008680555555555556,10.668402777777779,0)" xlink:href="#ah"/><use transform="matrix(0.008680555555555556,0,0,0.008680555555555556,21.336805555555557,0)" xlink:href="#ai"/></g><path fill="#ef8d22" d="M1000-272c3 95 12 159 101 161 21 0 41-3 59-7V-6c-44 10-86 16-139 16-141 2-191-84-197-217h-6C748-76 648 20 446 20c-207 0-318-120-318-322 0-266 194-348 454-354l236-4c12-191-40-305-222-305-140 0-220 47-232 172l-188-17c33-204 181-292 423-292 255 0 401 118 401 364v466zm-683-27c0 109 63 184 175 182 166-3 259-96 306-217 24-65 20-120 20-200-232 7-501-28-501 235" id="aj"/><g id="f"><use transform="matrix(0.008680555555555556,0,0,0.008680555555555556,0,0)" xlink:href="#ag"/><use transform="matrix(0.008680555555555556,0,0,0.008680555555555556,10.668402777777779,0)" xlink:href="#ah"/><use transform="matrix(0.008680555555555556,0,0,0.008680555555555556,21.336805555555557,0)" xlink:href="#R"/><use transform="matrix(0.008680555555555556,0,0,0.008680555555555556,32.005208333333336,0)" xlink:href="#aj"/></g><g id="g"><use transform="matrix(0.008680555555555556,0,0,0.008680555555555556,0,0)" xlink:href="#ag"/><use transform="matrix(0.008680555555555556,0,0,0.008680555555555556,10.668402777777779,0)" xlink:href="#ah"/><use transform="matrix(0.008680555555555556,0,0,0.008680555555555556,21.336805555555557,0)" xlink:href="#U"/><use transform="matrix(0.008680555555555556,0,0,0.008680555555555556,32.005208333333336,0)" xlink:href="#aj"/></g><path fill="#ef8d22" d="M937-319V0H757v-319H103v-140l635-890h199v888h188v142H937zm-180-835L257-461h500v-693" id="ak"/><g id="h"><use transform="matrix(0.008680555555555556,0,0,0.008680555555555556,0,0)" xlink:href="#ag"/><use transform="matrix(0.008680555555555556,0,0,0.008680555555555556,10.668402777777779,0)" xlink:href="#ah"/><use transform="matrix(0.008680555555555556,0,0,0.008680555555555556,21.336805555555557,0)" xlink:href="#ak"/><use transform="matrix(0.008680555555555556,0,0,0.008680555555555556,32.005208333333336,0)" xlink:href="#B"/></g><g id="i"><use transform="matrix(0.008680555555555556,0,0,0.008680555555555556,0,0)" xlink:href="#ag"/><use transform="matrix(0.008680555555555556,0,0,0.008680555555555556,10.668402777777779,0)" xlink:href="#ah"/><use transform="matrix(0.008680555555555556,0,0,0.008680555555555556,21.336805555555557,0)" xlink:href="#V"/></g><path fill="#ef8d22" d="M809-709c168 33 285 134 285 331 0 277-191 398-480 398-287 0-481-120-481-396 0-192 118-296 281-331v-4c-145-39-248-139-248-313 0-238 192-346 444-346 211 0 357 75 422 217 19 41 27 86 27 131 0 172-101 274-250 309v4zm-197-70c168 0 260-73 260-233 0-158-100-224-262-224-160 0-260 68-260 224 0 155 97 232 262 233zm4 664c194 1 291-91 291-280 0-172-115-249-297-249-178 0-291 85-291 253 0 186 106 275 297 276" id="al"/><g id="j"><use transform="matrix(0.008680555555555556,0,0,0.008680555555555556,0,0)" xlink:href="#ag"/><use transform="matrix(0.008680555555555556,0,0,0.008680555555555556,10.668402777777779,0)" xlink:href="#ah"/><use transform="matrix(0.008680555555555556,0,0,0.008680555555555556,21.336805555555557,0)" xlink:href="#al"/><use transform="matrix(0.008680555555555556,0,0,0.008680555555555556,32.005208333333336,0)" xlink:href="#U"/></g><path fill="#ef8d22" d="M410 425v-1909h547v139H590V286h367v139H410" id="am"/><path fill="#ef8d22" d="M496 0v-299h235V0H496" id="an"/><path fill="#ef8d22" d="M270 425V286h367v-1631H270v-139h547V425H270" id="ao"/><g id="k"><use transform="matrix(0.008680555555555556,0,0,0.008680555555555556,0,0)" xlink:href="#am"/><use transform="matrix(0.008680555555555556,0,0,0.008680555555555556,10.668402777777779,0)" xlink:href="#an"/><use transform="matrix(0.008680555555555556,0,0,0.008680555555555556,21.336805555555557,0)" xlink:href="#an"/><use transform="matrix(0.008680555555555556,0,0,0.008680555555555556,32.005208333333336,0)" xlink:href="#an"/><use transform="matrix(0.008680555555555556,0,0,0.008680555555555556,42.673611111111114,0)" xlink:href="#ao"/></g><g id="l"><use transform="matrix(0.008680555555555556,0,0,0.008680555555555556,0,0)" xlink:href="#ag"/><use transform="matrix(0.008680555555555556,0,0,0.008680555555555556,10.668402777777779,0)" xlink:href="#ah"/><use transform="matrix(0.008680555555555556,0,0,0.008680555555555556,21.336805555555557,0)" xlink:href="#L"/><use transform="matrix(0.008680555555555556,0,0,0.008680555555555556,32.005208333333336,0)" xlink:href="#L"/></g><g id="m"><use transform="matrix(0.008680555555555556,0,0,0.008680555555555556,0,0)" xlink:href="#ag"/><use transform="matrix(0.008680555555555556,0,0,0.008680555555555556,10.668402777777779,0)" xlink:href="#ah"/><use transform="matrix(0.008680555555555556,0,0,0.008680555555555556,21.336805555555557,0)" xlink:href="#R"/><use transform="matrix(0.008680555555555556,0,0,0.008680555555555556,32.005208333333336,0)" xlink:href="#K"/></g><path fill="#fff" d="M597-138c150 0 207-123 207-278 0-165-34-294-136-352-26-15-55-20-86-20-92 0-144 50-217 110v460c77 42 148 80 232 80zM365-802c94-76 190-158 340-158 237 0 320 206 320 453 0 216-140 349-275 449-65 48-150 88-251 88-145 0-261-74-374-126v-1170c-1-70 1-115-57-125-16-3-38-6-65-9v-70c117-19 223-41 318-80 13 13 30 27 44 41v707" id="ap"/><path fill="#fff" d="M319-259c0 68 31 114 93 114 98 0 147-56 211-105v-221c-153 26-304 50-304 212zm584 99c38 0 59-16 91-27l22 75C927-56 834 9 717 30c-65-8-88-81-93-159C538-47 445 30 293 30 154 30 65-56 65-201c0-127 64-194 141-247 107-73 248-95 417-121v-118c9-110-74-169-178-134-46 15-82 54-78 119-52 44-150 61-229 78-15 2-26 3-31 2l-21-54c84-172 266-284 511-284 166 0 266 79 266 240v482c0 44 7 78 40 78" id="aq"/><path fill="#fff" d="M547-808c-63-73-243-61-239 50 3 86 72 111 134 148 111 66 258 113 318 230 15 28 22 60 22 97C778-32 571 47 316 26 231 19 152-9 90-43c-26-75-10-216 7-293l81 11c29 127 98 232 242 232 90 0 142-26 142-112 0-138-143-173-241-229-81-46-168-92-212-173-33-59-21-140 9-197 90-174 455-200 628-79 8 74-29 165-58 217l-69-8c-17-59-43-101-72-134" id="ar"/><path fill="#fff" d="M687-616c0-120-53-224-176-224-146 0-179 124-195 260h333c31-1 38-6 38-36zm233 421C797-79 706 34 480 30 277 26 159-94 98-249c-51-132-43-317 18-435 76-147 214-276 431-276 252 0 370 162 379 410-35 35-91 61-140 82H313c10 180 71 330 251 330 142 0 208-61 304-121 21 14 39 43 52 64" id="as"/><path fill="#fff" d="M516-795c250 5 403 144 403 385 0 279-163 440-449 440-173 0-295-74-392-160l50-90c93 61 180 120 320 120 150 0 228-113 228-267 0-170-77-277-243-281-115-2-180 39-249 88l-47-33c31-194 66-403 82-612h526c48 0 87-6 121-18l37 36c-39 54-87 121-136 164H335c-6 92-23 187-38 269 60-26 133-43 219-41" id="at"/><path fill="#fff" d="M496-1119c-94 0-138 73-138 169 0 126 123 152 215 198 58-61 87-123 87-186-1-115-52-181-164-181zM530-93c188 10 214-289 100-391-46-41-104-72-164-99-68 68-129 136-129 268 0 131 69 215 193 222zm161-608c138 66 266 148 266 349C957-162 824-57 677 0 513 63 282 17 186-66c-77-67-139-195-87-320 47-113 146-189 254-246-114-55-223-116-223-283 0-165 115-251 245-296 49-16 101-24 157-24 210 0 375 67 375 266 0 145-123 200-216 268" id="au"/><g id="n"><use transform="matrix(0.005425347222222222,0,0,0.005425347222222222,0,0)" xlink:href="#ap"/><use transform="matrix(0.005425347222222222,0,0,0.005425347222222222,5.967881944444445,0)" xlink:href="#aq"/><use transform="matrix(0.005425347222222222,0,0,0.005425347222222222,11.518012152777777,0)" xlink:href="#ar"/><use transform="matrix(0.005425347222222222,0,0,0.005425347222222222,16.172960069444443,0)" xlink:href="#as"/><use transform="matrix(0.005425347222222222,0,0,0.005425347222222222,21.549479166666664,0)" xlink:href="#at"/><use transform="matrix(0.005425347222222222,0,0,0.005425347222222222,27.17013888888889,0)" xlink:href="#au"/></g><path fill="#7ab648" d="M758-535l-176-514-171 514h347zm-377 90L270-111c-7 21 2 36 27 45s64 17 119 23V0H0v-43c72-17 140-14 158-68l372-1126c26-31 81-60 117-80l420 1206c17 49 70 59 131 68V0H776v-43c52-3 88-10 108-20s26-26 19-48L789-445H381" id="av"/><path fill="#7ab648" d="M70-1470c101-21 173-37 254-80l36 34v1412c0 10 11 20 34 31s61 21 116 30V0H60v-43c58-11 108-17 142-45 6-5 8-11 8-16v-1192c1-74-10-115-71-124-18-3-41-7-69-10v-40" id="aw"/><path fill="#7ab648" d="M514-400c110 0 176-82 176-200 0-166-103-260-274-260-106 0-176 85-176 201 0 168 101 259 274 259zM392 378c206 50 428-17 428-221 0-87-73-105-152-128C598 9 468 2 388-16c-76 41-128 76-176 126-40 42-42 111-4 160 41 53 107 89 184 108zM775-813c59 73 75 219 21 313-68 117-190 200-366 205-43 36-68 61-84 99 14 50 70 52 128 66 83 20 239 29 308 56 99 38 188 77 188 194 0 182-136 265-268 330-178 88-489 47-600-64-47-46-97-127-62-212C84 67 186 21 297-42c-66-25-106-47-115-111 21-77 83-108 144-156-131-40-226-128-226-293 0-172 116-273 243-330 114-51 271-27 350 37 106-10 195-34 276-65l20 30c-18 41-27 68-57 100-53 10-96 14-157 17" id="ax"/><path fill="#7ab648" d="M524-80c208-5 271-163 271-375 0-169-81-295-186-363-34-22-69-32-103-32-210 4-271 165-271 377 0 169 87 292 192 361 33 22 66 32 97 32zm182-844c181 81 290 312 227 570C890-178 778-47 614 10 446 69 274-10 194-105 108-206 49-397 96-574c47-176 153-307 318-366 94-34 208-22 292 16" id="ay"/><path fill="#7ab648" d="M55-880c84-23 173-41 240-80l35 35 13 227c49-98 107-192 201-242 70-37 169-17 226 17 24 78-21 183-43 247h-43c-6-91-72-186-162-126-91 61-140 179-177 306v392c0 10 12 20 37 31s69 21 132 30V0H55v-43c44-10 78-19 103-29s37-21 37-32c-1-212-2-429-2-638 0-85-55-98-138-98v-40" id="az"/><path fill="#7ab648" d="M70-880c91-18 181-45 256-80h34v856c0 8 12 18 34 30s57 22 106 31V0H70v-43c45-9 80-20 104-31s36-21 36-30c-1-215 4-437-2-648-2-76-60-79-138-88v-40zm120-340c0-77 41-136 115-136 57 0 85 32 85 95 0 77-41 133-116 137-61 3-84-36-84-96" id="aA"/><path fill="#7ab648" d="M428-100c87 0 139-28 219-68l29 51C580-51 484 30 344 30 211 30 170-79 170-221v-614H41l-21-28 78-67h72v-246l119-104 31 25v325h327l29 29c-27 38-61 78-101 101-58-29-154-39-255-35v528c2 109 2 207 108 207" id="aB"/><path fill="#7ab648" d="M650-941c160-61 310 30 310 200v637c0 9 10 19 30 28s57 20 110 33V0H670v-43c48-13 83-24 106-33s34-19 34-28v-529c0-115-15-205-128-197-117 8-182 84-249 158-31 34-59 76-88 123v445c0 10 12 20 37 31s60 21 103 30V0H55v-43c44-11 78-22 103-31s37-19 37-30v-1194c1-71-4-110-64-120-19-4-44-8-76-12v-40c97-18 178-41 253-80l37 34v832c76-110 177-208 305-257" id="aC"/><path fill="#7ab648" d="M1253-960c142 3 222 76 222 219v637c0 9 10 19 31 28s57 20 110 33V0h-430v-43c48-13 84-24 106-33s33-19 33-28v-529c-3-110-5-214-113-207s-164 86-224 156c-27 32-53 70-78 111v469c0 9 10 19 31 28s57 20 110 33V0H621v-43c48-13 83-24 105-33s34-19 34-28v-529c-2-111-4-208-113-207-45 0-93 23-143 70S402-658 345-573v469c0 10 12 20 37 31s60 21 103 30V0H55v-43c44-11 78-22 103-31s37-19 37-30c-2-223 12-454-3-670-4-60-71-54-137-66v-40c94-15 168-44 240-80l35 35 11 229c73-105 152-197 269-248 28-12 54-16 78-16 159-1 228 90 222 256 70-102 150-191 264-240 28-12 54-16 79-16" id="aD"/><path fill="#7ab648" d="M625-894c93-10 183-41 260-66l30 39c3 254-10 522 5 768 3 45 10 60 59 53 19-3 46-12 80-27l10 45C999-41 935 10 850 30c-23 0-42-15-57-46s-24-81-28-150C662-71 581 30 408 30 229 30 171-92 170-279c-1-167 6-345-3-507-4-64-60-59-126-68v-40c97-10 173-35 251-66l28 39v587c2 135 23 244 153 244 143 0 210-92 292-172-2-172 9-357-5-521-6-63-63-67-135-71v-40" id="aE"/><path fill="#7ab648" d="M476-842c-113-77-312 26-223 150 100 139 343 151 425 312 15 28 22 60 22 97C696-70 560 30 356 30c-91 0-181-34-250-73-23-59-6-180 7-240l43 11C172-142 267-70 406-70c100 0 164-57 164-157 0-138-150-165-248-222-99-58-218-104-218-251 0-171 126-260 297-260 104 0 202 29 263 77 8 53-30 112-50 150l-39-8c-32-48-67-79-99-101" id="aF"/><g id="o"><use transform="matrix(0.006510416666666667,0,0,0.006510416666666667,0,0)" xlink:href="#av"/><use transform="matrix(0.006510416666666667,0,0,0.006510416666666667,7.936197916666667,0)" xlink:href="#aw"/><use transform="matrix(0.006510416666666667,0,0,0.006510416666666667,11.549479166666668,0)" xlink:href="#ax"/><use transform="matrix(0.006510416666666667,0,0,0.006510416666666667,18.053385416666668,0)" xlink:href="#ay"/><use transform="matrix(0.006510416666666667,0,0,0.006510416666666667,24.759114583333336,0)" xlink:href="#az"/><use transform="matrix(0.006510416666666667,0,0,0.006510416666666667,30.0390625,0)" xlink:href="#aA"/><use transform="matrix(0.006510416666666667,0,0,0.006510416666666667,33.65234375,0)" xlink:href="#aB"/><use transform="matrix(0.006510416666666667,0,0,0.006510416666666667,38.2421875,0)" xlink:href="#aC"/><use transform="matrix(0.006510416666666667,0,0,0.006510416666666667,45.598958333333336,0)" xlink:href="#aD"/><use transform="matrix(0.006510416666666667,0,0,0.006510416666666667,56.30859375,0)" xlink:href="#aE"/><use transform="matrix(0.006510416666666667,0,0,0.006510416666666667,63.372395833333336,0)" xlink:href="#aF"/></g><path fill="#3aa6dd" d="M684-90c146 10 180-66 217-172l43 18c-7 89-24 179-41 244H50v-43c45-9 80-20 106-31s39-21 39-30v-1051c0-8-13-18-37-30s-60-23-108-32v-43h450v43c-45 9-80 20-106 31s-39 22-39 31v991c9 77 99 74 186 74h143" id="aG"/><path fill="#3aa6dd" d="M244-229c1 78 37 129 108 129 118 0 190-59 271-127v-259c-164 29-303 49-363 176-11 23-16 50-16 81zm569 129c39-3 57-10 98-27l15 45C843-27 790 30 702 30c-22 0-40-15-55-46s-23-73-24-127C535-60 444 30 293 30 162 30 80-49 80-186c0-134 64-205 144-260 102-70 238-90 399-115v-141c0-108-55-164-168-158-89 5-163 44-163 136-28 38-109 56-170 57l-14-39c57-113 176-191 306-233 45-14 88-21 130-21 142-2 229 79 229 218v564c0 44 7 73 40 78zM580-1220c0-77 41-136 115-136 57 0 85 32 85 95 0 77-41 133-116 137-61 3-84-36-84-96zm-400 0c0-77 41-136 115-136 57 0 85 32 85 95 0 77-41 133-116 137-61 3-84-36-84-96" id="aH"/><path fill="#3aa6dd" d="M650-940c160-62 310 29 310 199v637c0 9 10 19 30 28s57 20 110 33V0H670v-43c48-13 83-24 106-33s34-19 34-28v-529c0-115-12-206-128-197-113 9-175 79-242 150-33 35-63 79-95 131v445c0 10 12 20 37 31s60 21 103 30V0H55v-43c44-11 78-22 103-31s37-19 37-30c-2-222 10-452-3-669-4-63-69-56-137-67v-40c94-15 166-44 240-80l35 35 11 249c76-114 178-213 309-264" id="aI"/><path fill="#3aa6dd" d="M514-400c110 0 176-82 176-200 0-166-103-260-274-260-106 0-176 85-176 201 0 168 101 259 274 259zM392 378c206 50 428-17 428-221 0-87-73-105-152-128C598 9 468 2 388-16c-76 41-128 76-176 126-40 42-42 111-4 160 41 53 107 89 184 108zM775-813c59 73 75 219 21 313-68 117-190 200-366 205-43 36-68 61-84 99 14 50 70 52 128 66 83 20 239 29 308 56 99 38 188 77 188 194 0 182-136 265-268 330-178 88-489 47-600-64-47-46-97-127-62-212C84 67 186 21 297-42c-66-25-106-47-115-111 21-77 83-108 144-156-131-40-226-128-226-293 0-172 116-273 243-330 114-51 271-27 350 37 106-10 195-34 276-65l20 30c-18 41-27 68-57 100-53 10-96 14-157 17" id="aJ"/><path fill="#3aa6dd" d="M702-616c0-134-64-239-206-239-165 0-232 127-260 275h428c31-1 38-6 38-36zm158 421C745-83 676 34 465 30 275 26 169-94 112-242c-53-136-32-337 26-447 68-129 169-238 330-265 260-43 390 140 398 397-25 28-71 51-110 67H230c4 167 66 294 174 358 36 21 77 32 122 32 145-2 206-68 297-136 15 7 29 29 37 41" id="aK"/><g id="p"><use transform="matrix(0.007595486111111111,0,0,0.007595486111111111,0,0)" xlink:href="#aG"/><use transform="matrix(0.007595486111111111,0,0,0.007595486111111111,7.405598958333333,0)" xlink:href="#aH"/><use transform="matrix(0.007595486111111111,0,0,0.007595486111111111,14.545355902777779,0)" xlink:href="#aI"/><use transform="matrix(0.007595486111111111,0,0,0.007595486111111111,23.128255208333336,0)" xlink:href="#aJ"/><use transform="matrix(0.007595486111111111,0,0,0.007595486111111111,30.716145833333336,0)" xlink:href="#aK"/></g><path fill="#ef8d22" d="M827-895c-4-253-205-327-472-309v1100c14 29 50 33 89 44 22 6 51 11 86 17V0H50v-43c45-9 80-20 106-31s39-21 39-30v-1086c-49 7-98 14-145 22l-9-62c232-60 630-108 813 31 74 57 128 138 128 263 0 227-142 340-324 390-84 23-181 10-246-19l-23-75c109 54 271 27 342-42 50-49 97-115 96-213" id="aL"/><path fill="#ef8d22" d="M55-880c84-23 173-41 240-80l35 35 13 227c49-98 107-192 201-242 70-37 169-17 226 17 24 78-21 183-43 247h-43c-6-91-72-186-162-126-91 61-140 179-177 306v392c0 10 12 20 37 31s69 21 132 30V0H55v-43c44-10 78-19 103-29s37-21 37-32c-1-212-2-429-2-638 0-85-55-98-138-98v-40" id="aM"/><path fill="#ef8d22" d="M625-894c93-10 183-41 260-66l30 39c3 254-10 522 5 768 3 45 10 60 59 53 19-3 46-12 80-27l10 45C999-41 935 10 850 30c-23 0-42-15-57-46s-24-81-28-150C662-71 581 30 408 30 229 30 171-92 170-279c-1-167 6-345-3-507-4-64-60-59-126-68v-40c97-10 173-35 251-66l28 39v587c2 135 23 244 153 244 143 0 210-92 292-172-2-172 9-357-5-521-6-63-63-67-135-71v-40zm20-326c0-77 41-136 115-136 57 0 85 32 85 95 0 77-41 133-116 137-61 3-84-36-84-96zm-400 0c0-77 41-136 115-136 57 0 85 32 85 95 0 77-41 133-116 137-61 3-84-36-84-96" id="aN"/><path fill="#ef8d22" d="M637-901c-26 37-60 77-98 101-49-23-102-36-189-35v733c20 27 66 28 110 40 26 7 60 12 99 19V0H60v-43c46-8 80-17 104-29s36-22 36-30v-733H66l-21-28 78-67h77c-4-206 28-357 123-458 76-80 165-162 306-162 70 0 128 40 170 71 45 34-12 63-31 82-20 20-53 42-78 54-47-38-97-74-170-82-101 14-128 103-153 206-17 68-18 189-17 289h258" id="aO"/><path fill="#ef8d22" d="M476-842c-113-77-312 26-223 150 100 139 343 151 425 312 15 28 22 60 22 97C696-70 560 30 356 30c-91 0-181-34-250-73-23-59-6-180 7-240l43 11C172-142 267-70 406-70c100 0 164-57 164-157 0-138-150-165-248-222-99-58-218-104-218-251 0-171 126-260 297-260 104 0 202 29 263 77 8 53-30 112-50 150l-39-8c-32-48-67-79-99-101" id="aP"/><path fill="#ef8d22" d="M625-894c93-10 183-41 260-66l30 39c3 254-10 522 5 768 3 45 10 60 59 53 19-3 46-12 80-27l10 45C999-41 935 10 850 30c-23 0-42-15-57-46s-24-81-28-150C662-71 581 30 408 30 229 30 171-92 170-279c-1-167 6-345-3-507-4-64-60-59-126-68v-40c97-10 173-35 251-66l28 39v587c2 135 23 244 153 244 143 0 210-92 292-172-2-172 9-357-5-521-6-63-63-67-135-71v-40" id="aQ"/><path fill="#ef8d22" d="M1253-960c142 3 222 76 222 219v637c0 9 10 19 31 28s57 20 110 33V0h-430v-43c48-13 84-24 106-33s33-19 33-28v-529c-3-110-5-214-113-207s-164 86-224 156c-27 32-53 70-78 111v469c0 9 10 19 31 28s57 20 110 33V0H621v-43c48-13 83-24 105-33s34-19 34-28v-529c-2-111-4-208-113-207-45 0-93 23-143 70S402-658 345-573v469c0 10 12 20 37 31s60 21 103 30V0H55v-43c44-11 78-22 103-31s37-19 37-30c-2-223 12-454-3-670-4-60-71-54-137-66v-40c94-15 168-44 240-80l35 35 11 229c73-105 152-197 269-248 28-12 54-16 78-16 159-1 228 90 222 256 70-102 150-191 264-240 28-12 54-16 79-16" id="aR"/><path fill="#ef8d22" d="M702-616c0-134-64-239-206-239-165 0-232 127-260 275h428c31-1 38-6 38-36zm158 421C745-83 676 34 465 30 275 26 169-94 112-242c-53-136-32-337 26-447 68-129 169-238 330-265 260-43 390 140 398 397-25 28-71 51-110 67H230c4 167 66 294 174 358 36 21 77 32 122 32 145-2 206-68 297-136 15 7 29 29 37 41" id="aS"/><path fill="#ef8d22" d="M650-940c160-62 310 29 310 199v637c0 9 10 19 30 28s57 20 110 33V0H670v-43c48-13 83-24 106-33s34-19 34-28v-529c0-115-12-206-128-197-113 9-175 79-242 150-33 35-63 79-95 131v445c0 10 12 20 37 31s60 21 103 30V0H55v-43c44-11 78-22 103-31s37-19 37-30c-2-222 10-452-3-669-4-63-69-56-137-67v-40c94-15 166-44 240-80l35 35 11 249c76-114 178-213 309-264" id="aT"/><g id="q"><use transform="matrix(0.007595486111111111,0,0,0.007595486111111111,0,0)" xlink:href="#aL"/><use transform="matrix(0.007595486111111111,0,0,0.007595486111111111,8.134765625,0)" xlink:href="#aM"/><use transform="matrix(0.007595486111111111,0,0,0.007595486111111111,14.29470486111111,0)" xlink:href="#aN"/><use transform="matrix(0.007595486111111111,0,0,0.007595486111111111,22.535807291666664,0)" xlink:href="#aO"/><use transform="matrix(0.007595486111111111,0,0,0.007595486111111111,27.374131944444443,0)" xlink:href="#aP"/><use transform="matrix(0.007595486111111111,0,0,0.007595486111111111,33.38216145833333,0)" xlink:href="#aQ"/><use transform="matrix(0.007595486111111111,0,0,0.007595486111111111,41.623263888888886,0)" xlink:href="#aR"/><use transform="matrix(0.007595486111111111,0,0,0.007595486111111111,54.117838541666664,0)" xlink:href="#aR"/><use transform="matrix(0.007595486111111111,0,0,0.007595486111111111,66.61241319444444,0)" xlink:href="#aS"/><use transform="matrix(0.007595486111111111,0,0,0.007595486111111111,73.79774305555556,0)" xlink:href="#aT"/></g><path fill="#ef8d22" d="M750-971c0-203-179-243-395-233v479c223 3 395-42 395-246zm102 649c0-198-123-323-332-328-61-2-114 7-165 15v531c9 29 60 26 93 30 219 24 404-45 404-248zM715-723c175 42 301 161 301 367 0 256-195 365-457 370C385 17 226 0 50 0v-43c45-9 80-20 106-31s39-21 39-30v-1086c-49 6-98 14-145 22l-9-62c252-70 710-117 833 97 20 33 31 71 31 113 1 149-79 256-190 297" id="aU"/><path fill="#ef8d22" d="M989-887c-52 13-92 20-110 68L545 82c-68 175-157 318-312 394-82 40-204 31-267-10-36-23 17-59 29-82 20-24 50-56 75-72 66 43 171 40 222-10 73-71 126-174 167-279L131-819c-17-46-54-54-111-68v-43h386v43c-42 6-74 10-102 23-18 10-19 23-11 45l246 637 231-637c13-61-61-54-115-68v-43h334v43" id="aV"/><path fill="#ef8d22" d="M428-100c87 0 139-28 219-68l29 51C580-51 484 30 344 30 211 30 170-79 170-221v-614H41l-21-28 78-67h72v-246l119-104 31 25v325h327l29 29c-27 38-61 78-101 101-58-29-154-39-255-35v528c2 109 2 207 108 207" id="aW"/><g id="r"><use transform="matrix(0.007595486111111111,0,0,0.007595486111111111,0,0)" xlink:href="#aU"/><use transform="matrix(0.007595486111111111,0,0,0.007595486111111111,8.55251736111111,0)" xlink:href="#aV"/><use transform="matrix(0.007595486111111111,0,0,0.007595486111111111,16.223958333333332,0)" xlink:href="#aW"/><use transform="matrix(0.007595486111111111,0,0,0.007595486111111111,21.578776041666664,0)" xlink:href="#aS"/><use transform="matrix(0.007595486111111111,0,0,0.007595486111111111,28.764105902777775,0)" xlink:href="#aP"/></g></defs></g></svg>