<svg xmlns="http://www.w3.org/2000/svg" xmlns:xlink="http://www.w3.org/1999/xlink" width="1111.26" height="630.05"><g transform="translate(-168.7372378500943 30.053539415538353)"><path d="M188.74 0H1260v180H188.74z" stroke="#000" stroke-width="2" fill="#d1bcd2"/><use xlink:href="#a" transform="matrix(1,0,0,1,193.7372378500943,5) translate(531 89)"/><path d="M189 239.8h891v140.4H189z" stroke="#000" stroke-width="2" fill="#ffeca9"/><use xlink:href="#b" transform="matrix(1,0,0,1,194,244.79865021734636) translate(408.525 69.10000000000001)"/><path d="M210 250.25h100.74v120H210z" stroke="#666" stroke-width="2" fill="#c1e4f7"/><use xlink:href="#c" transform="matrix(1,0,0,1,215,255.2548891981918) translate(5.493489583333336 52.330729166666664)"/><use xlink:href="#d" transform="matrix(1,0,0,1,215,255.2548891981918) translate(13.494791666666664 65.6640625)"/><use xlink:href="#e" transform="matrix(1,0,0,1,215,255.2548891981918) translate(61.50260416666667 65.6640625)"/><path d="M310.74 250.25h140v120h-140z" stroke="#666" stroke-width="2" fill="#c1e4f7"/><use xlink:href="#c" transform="matrix(1,0,0,1,315.7399690979653,255.2548891981918) translate(24.993489583333336 52.330729166666664)"/><use xlink:href="#d" transform="matrix(1,0,0,1,315.7399690979653,255.2548891981918) translate(32.994791666666664 65.6640625)"/><use xlink:href="#f" transform="matrix(1,0,0,1,315.7399690979653,255.2548891981918) translate(81.00260416666667 65.6640625)"/><path d="M450.74 250.25H540v120h-89.26z" stroke="#666" stroke-width="2" fill="#c1e4f7"/><use xlink:href="#c" transform="matrix(1,0,0,1,455.7399690979653,255.2548891981918) translate(-0.006510416666664298 52.330729166666664)"/><use xlink:href="#d" transform="matrix(1,0,0,1,455.7399690979653,255.2548891981918) translate(7.994791666666664 65.6640625)"/><use xlink:href="#g" transform="matrix(1,0,0,1,455.7399690979653,255.2548891981918) translate(56.00260416666667 65.6640625)"/><path d="M540 250h90v120h-90z" stroke="#666" stroke-width="2" fill="#c1e4f7"/><use xlink:href="#c" transform="matrix(1,0,0,1,545,255) translate(-0.006510416666664298 52.330729166666664)"/><use xlink:href="#d" transform="matrix(1,0,0,1,545,255) translate(7.994791666666664 65.6640625)"/><use xlink:href="#h" transform="matrix(1,0,0,1,545,255) translate(56.00260416666667 65.6640625)"/><path d="M790.74 250.25H900v120H790.74z" stroke="#666" stroke-width="2" fill="#c1e4f7"/><use xlink:href="#c" transform="matrix(1,0,0,1,795.7399690979653,255.2548891981918) translate(9.993489583333336 52.330729166666664)"/><use xlink:href="#d" transform="matrix(1,0,0,1,795.7399690979653,255.2548891981918) translate(17.994791666666664 65.6640625)"/><use xlink:href="#i" transform="matrix(1,0,0,1,795.7399690979653,255.2548891981918) translate(66.00260416666667 65.6640625)"/><path d="M630.74 250.25h160v120h-160z" stroke="#666" stroke-width="2" fill="#c1e4f7"/><use xlink:href="#c" transform="matrix(1,0,0,1,635.7399690979653,255.2548891981918) translate(34.993489583333336 52.330729166666664)"/><use xlink:href="#d" transform="matrix(1,0,0,1,635.7399690979653,255.2548891981918) translate(42.994791666666664 65.6640625)"/><use xlink:href="#j" transform="matrix(1,0,0,1,635.7399690979653,255.2548891981918) translate(91.00260416666667 65.6640625)"/><path d="M900 250.25h90.74v120H900z" stroke="#666" stroke-width="2" fill="#c1e4f7"/><use xlink:href="#c" transform="matrix(1,0,0,1,905,255.2548891981918) translate(0.4934895833333357 52.330729166666664)"/><use xlink:href="#d" transform="matrix(1,0,0,1,905,255.2548891981918) translate(8.494791666666664 65.6640625)"/><use xlink:href="#k" transform="matrix(1,0,0,1,905,255.2548891981918) translate(56.50260416666667 65.6640625)"/><path d="M210 40h160v120H210z" stroke="#000" stroke-width="2" fill="#b391b5"/><use xlink:href="#l" transform="matrix(1,0,0,1,215,45) translate(26.992187499999993 58.997395833333336)"/><use xlink:href="#m" transform="matrix(1,0,0,1,215,45) translate(58.99739583333333 58.997395833333336)"/><use xlink:href="#e" transform="matrix(1,0,0,1,215,45) translate(107.00520833333334 58.997395833333336)"/><path d="M370 40h160v120H370z" stroke="#000" stroke-width="2" fill="#b391b5"/><use xlink:href="#l" transform="matrix(1,0,0,1,375,45) translate(26.992187499999993 58.997395833333336)"/><use xlink:href="#m" transform="matrix(1,0,0,1,375,45) translate(58.99739583333333 58.997395833333336)"/><use xlink:href="#f" transform="matrix(1,0,0,1,375,45) translate(107.00520833333334 58.997395833333336)"/><path d="M530 40h160v120H530z" stroke="#000" stroke-width="2" fill="#b391b5"/><use xlink:href="#l" transform="matrix(1,0,0,1,535,45) translate(26.992187499999993 58.997395833333336)"/><use xlink:href="#m" transform="matrix(1,0,0,1,535,45) translate(58.99739583333333 58.997395833333336)"/><use xlink:href="#g" transform="matrix(1,0,0,1,535,45) translate(107.00520833333334 58.997395833333336)"/><path d="M690 40h160v120H690z" stroke="#000" stroke-width="2" fill="#b391b5"/><use xlink:href="#l" transform="matrix(1,0,0,1,695,45) translate(26.992187499999993 58.997395833333336)"/><use xlink:href="#m" transform="matrix(1,0,0,1,695,45) translate(58.99739583333333 58.997395833333336)"/><use xlink:href="#h" transform="matrix(1,0,0,1,695,45) translate(107.00520833333334 58.997395833333336)"/><path d="M1010 40h160v120h-160z" stroke="#000" stroke-width="2" fill="#b391b5"/><use xlink:href="#l" transform="matrix(1,0,0,1,1015,45) translate(26.992187499999993 58.997395833333336)"/><use xlink:href="#m" transform="matrix(1,0,0,1,1015,45) translate(58.99739583333333 58.997395833333336)"/><use xlink:href="#i" transform="matrix(1,0,0,1,1015,45) translate(107.00520833333334 58.997395833333336)"/><path d="M850 40h160v120H850z" stroke="#000" stroke-width="2" fill="#b391b5"/><use xlink:href="#l" transform="matrix(1,0,0,1,855,45) translate(26.992187499999993 58.997395833333336)"/><use xlink:href="#m" transform="matrix(1,0,0,1,855,45) translate(58.99739583333333 58.997395833333336)"/><use xlink:href="#j" transform="matrix(1,0,0,1,855,45) translate(107.00520833333334 58.997395833333336)"/><path d="M1170 40h70v120h-70z" stroke="#000" stroke-width="2" fill="#b391b5"/><use xlink:href="#n" transform="matrix(1,0,0,1,1175,45) translate(17.998046875 45.6640625)"/><use xlink:href="#o" transform="matrix(1,0,0,1,1175,45) translate(9.996744791666664 58.997395833333336)"/><use xlink:href="#k" transform="matrix(1,0,0,1,1175,45) translate(21.998697916666664 72.33072916666667)"/><path d="M500.1-10.05h450v60h-450z" fill="none"/><use xlink:href="#l" transform="matrix(1,0,0,1,505.1070788310766,-5.053539415538353) translate(31.96940104166663 28.997395833333332)"/><use xlink:href="#p" transform="matrix(1,0,0,1,505.1070788310766,-5.053539415538353) translate(63.974609374999964 28.997395833333332)"/><use xlink:href="#q" transform="matrix(1,0,0,1,505.1070788310766,-5.053539415538353) translate(103.98111979166663 28.997395833333332)"/><use xlink:href="#r" transform="matrix(1,0,0,1,505.1070788310766,-5.053539415538353) translate(159.99023437499997 28.997395833333332)"/><use xlink:href="#s" transform="matrix(1,0,0,1,505.1070788310766,-5.053539415538353) translate(232.00195312499997 28.997395833333332)"/><use xlink:href="#t" transform="matrix(1,0,0,1,505.1070788310766,-5.053539415538353) translate(256.005859375 28.997395833333332)"/><use xlink:href="#u" transform="matrix(1,0,0,1,505.1070788310766,-5.053539415538353) translate(304.013671875 28.997395833333332)"/><use xlink:href="#v" transform="matrix(1,0,0,1,505.1070788310766,-5.053539415538353) translate(352.021484375 28.997395833333332)"/><path d="M290 160l-30.12 89.25" stroke="#000" stroke-width="2" fill="none"/><path d="M290.95 160.32L290 160h1.06zM268.84 237.22l-8.96 12.03.17-15z"/><path d="M270.46 236.7l-10.08 13.55h-1.5l.2-17.38zm-9.54 9.5l6.3-8.47-6.18-2.1z"/><path d="M450 160l-71.23 89.25" stroke="#000" stroke-width="2" fill="none"/><path d="M450.78 160.62L450 160h1.28zM391.3 241l-12.53 8.25 5.28-14.04z"/><path d="M393 241.07l-13.93 9.18h-1.74l6.26-16.68zm-12.2 5.66l8.8-5.8-5.1-4.08z"/><path d="M610 160l-113.1 89.25" stroke="#000" stroke-width="2" fill="none"/><path d="M610.62 160.8l-.62-.8h1.6zM510.97 244.06l-14.07 5.2 8.33-12.48z"/><path d="M512.6 244.52l-15.52 5.73h-2.05l10.13-15.17zm-13.16 2.73l9.9-3.65-4.05-5.12z"/><path d="M770 160l-188.32 89" stroke="#000" stroke-width="2" fill="none"/><path d="M770.43 160.9l-.43-.9h2.34zM596.56 247.1l-14.88 1.9 10.9-10.3z"/><path d="M598.05 247.9l-16.3 2.1h-2.6l13.76-12.96zm-13.45-.28l10.46-1.34-2.78-5.9z"/><path d="M930 160l-209.42 89.25" stroke="#000" stroke-width="2" fill="none"/><path d="M930.4 160.92l-.4-.92h2.55zM735.53 247.93l-14.95 1.32 11.3-9.85z"/><path d="M737 248.8l-16.37 1.45h-2.7l14.34-12.5zm-13.44-.8l10.5-.95-2.55-6z"/><path d="M1090 160l-242.1 89.25" stroke="#000" stroke-width="2" fill="none"/><path d="M1090.35 160.94l-.35-.94h2.9zM862.9 248.67l-15 .58 11.8-9.28z"/><path d="M864.32 249.6l-16.4.65h-2.9l15.14-11.92zm-13.37-1.46l10.54-.42-2.27-6.1z"/><path d="M1205 160l-255.85 89.25" stroke="#000" stroke-width="2" fill="none"/><path d="M1205.33 160.94l-.33-.94h3.04zM964.15 248.93l-15 .32 11.94-9.07z"/><path d="M965.54 249.9l-16.38.35h-2.98l15.4-11.7zm-13.33-1.7l10.55-.24-2.15-6.15z"/><path d="M991 250h75v120h-75z" stroke="#666" stroke-width="2" fill="#c7e8ac"/><g><use xlink:href="#w" transform="matrix(1,0,0,1,996,255) translate(12.496744791666664 52.330729166666664)"/><use xlink:href="#x" transform="matrix(1,0,0,1,996,255) translate(4.495442708333329 65.6640625)"/></g><path d="M240 440h780v140H240z" stroke="#000" stroke-width="2" fill="#c7e8ac"/><g><use xlink:href="#y" transform="matrix(1,0,0,1,245,445) translate(385 70.4)"/></g><path d="M251 450h189v120H251z" stroke="#000" stroke-width="2" fill="#7ab648"/><g><use xlink:href="#z" transform="matrix(1,0,0,1,256,455) translate(45.49283854166666 32.330729166666664)"/><use xlink:href="#A" transform="matrix(1,0,0,1,256,455) translate(77.498046875 32.330729166666664)"/><use xlink:href="#B" transform="matrix(1,0,0,1,256,455) translate(5.486328125 45.6640625)"/><use xlink:href="#C" transform="matrix(1,0,0,1,256,455) translate(53.49414062500001 45.6640625)"/><use xlink:href="#D" transform="matrix(1,0,0,1,256,455) translate(77.498046875 45.6640625)"/><use xlink:href="#E" transform="matrix(1,0,0,1,256,455) translate(109.50325520833334 45.6640625)"/><use xlink:href="#F" transform="matrix(1,0,0,1,256,455) translate(157.51106770833334 45.6640625)"/><use xlink:href="#G" transform="matrix(1,0,0,1,256,455) translate(89.5 58.99739583333333)"/><use xlink:href="#H" transform="matrix(1,0,0,1,256,455) translate(45.49283854166666 72.33072916666666)"/><use xlink:href="#A" transform="matrix(1,0,0,1,256,455) translate(77.498046875 72.33072916666666)"/><use xlink:href="#B" transform="matrix(1,0,0,1,256,455) translate(21.48893229166667 85.6640625)"/><use xlink:href="#C" transform="matrix(1,0,0,1,256,455) translate(69.49674479166669 85.6640625)"/><use xlink:href="#E" transform="matrix(1,0,0,1,256,455) translate(93.50065104166667 85.6640625)"/><use xlink:href="#I" transform="matrix(1,0,0,1,256,455) translate(141.50846354166669 85.6640625)"/></g><path d="M441 450h189v120H441z" stroke="#000" stroke-width="2" fill="#7ab648"/><g><use xlink:href="#z" transform="matrix(1,0,0,1,446,455) translate(45.49283854166666 32.330729166666664)"/><use xlink:href="#A" transform="matrix(1,0,0,1,446,455) translate(77.498046875 32.330729166666664)"/><use xlink:href="#B" transform="matrix(1,0,0,1,446,455) translate(5.486328125 45.6640625)"/><use xlink:href="#C" transform="matrix(1,0,0,1,446,455) translate(53.49414062500001 45.6640625)"/><use xlink:href="#D" transform="matrix(1,0,0,1,446,455) translate(77.498046875 45.6640625)"/><use xlink:href="#E" transform="matrix(1,0,0,1,446,455) translate(109.50325520833334 45.6640625)"/><use xlink:href="#J" transform="matrix(1,0,0,1,446,455) translate(157.51106770833334 45.6640625)"/><use xlink:href="#G" transform="matrix(1,0,0,1,446,455) translate(89.5 58.99739583333333)"/><use xlink:href="#H" transform="matrix(1,0,0,1,446,455) translate(45.49283854166666 72.33072916666666)"/><use xlink:href="#A" transform="matrix(1,0,0,1,446,455) translate(77.498046875 72.33072916666666)"/><use xlink:href="#B" transform="matrix(1,0,0,1,446,455) translate(21.48893229166667 85.6640625)"/><use xlink:href="#C" transform="matrix(1,0,0,1,446,455) translate(69.49674479166669 85.6640625)"/><use xlink:href="#E" transform="matrix(1,0,0,1,446,455) translate(93.50065104166667 85.6640625)"/><use xlink:href="#K" transform="matrix(1,0,0,1,446,455) translate(141.50846354166669 85.6640625)"/></g><path d="M630 450h189v120H630z" stroke="#000" stroke-width="2" fill="#7ab648"/><g><use xlink:href="#L" transform="matrix(1,0,0,1,635,455) translate(65.49609375 62.994791666666664)"/></g><path d="M819 450h189v120H819z" stroke="#000" stroke-width="2" fill="#7ab648"/><g><use xlink:href="#z" transform="matrix(1,0,0,1,824,455) translate(45.49283854166666 32.330729166666664)"/><use xlink:href="#A" transform="matrix(1,0,0,1,824,455) translate(77.498046875 32.330729166666664)"/><use xlink:href="#M" transform="matrix(1,0,0,1,824,455) translate(21.488932291666657 45.6640625)"/><use xlink:href="#C" transform="matrix(1,0,0,1,824,455) translate(53.49414062499999 45.6640625)"/><use xlink:href="#N" transform="matrix(1,0,0,1,824,455) translate(77.498046875 45.6640625)"/><use xlink:href="#O" transform="matrix(1,0,0,1,824,455) translate(109.50325520833333 45.6640625)"/><use xlink:href="#G" transform="matrix(1,0,0,1,824,455) translate(89.5 58.99739583333333)"/><use xlink:href="#H" transform="matrix(1,0,0,1,824,455) translate(45.49283854166666 72.33072916666666)"/><use xlink:href="#A" transform="matrix(1,0,0,1,824,455) translate(77.498046875 72.33072916666666)"/><use xlink:href="#M" transform="matrix(1,0,0,1,824,455) translate(29.490234374999993 85.6640625)"/><use xlink:href="#C" transform="matrix(1,0,0,1,824,455) translate(61.49544270833333 85.6640625)"/><use xlink:href="#E" transform="matrix(1,0,0,1,824,455) translate(85.49934895833333 85.6640625)"/><use xlink:href="#P" transform="matrix(1,0,0,1,824,455) translate(133.50716145833334 85.6640625)"/></g><path d="M210.04 371.25v48.88H345.5V450" stroke="#000" stroke-width="2" fill="none"/><path d="M210 370.25h1.04v1h-2v-3h.96zM345.5 450l-4.64-14.27h9.28z"/><path d="M346.55 450h-2.1l-4.96-15.27h12zm-4.3-13.27l3.25 10.03 3.26-10.03z"/><path d="M310.76 371.25V400h129.5v49" stroke="#000" stroke-width="2" fill="none"/><path d="M311.76 371.25h-2v-1h.98v-2h1.02zM440.27 449l-4.64-14.27h9.28z"/><path d="M440.27 452.24l-.27-.84V450h-.46l-5.28-16.27h12.02zm-3.26-16.5l3.27 10.02 3.26-10.03z"/><path d="M988.86 371.25v39.38H913.5V450" stroke="#000" stroke-width="2" fill="none"/><path d="M989.86 371.25h-2v-1h2zM913.5 450l-4.64-14.27h9.28z"/><path d="M914.55 450h-2.1l-4.96-15.27h12zm-4.3-13.27l3.25 10.03 3.26-10.03z"/><defs><path d="M114-163C36-179 61-72 57 0H25l-1-190h30c1 12-1 29 2 39 6-27 23-49 58-41v29" id="Q"/><path d="M100-194c62-1 85 37 85 99 1 63-27 99-86 99S16-35 15-95c0-66 28-99 85-99zM99-20c44 1 53-31 53-75 0-43-8-75-51-75s-53 32-53 75 10 74 51 75" id="R"/><path d="M100-194c63 0 86 42 84 106H49c0 40 14 67 53 68 26 1 43-12 49-29l28 8c-11 28-37 45-77 45C44 4 14-33 15-96c1-61 26-98 85-98zm52 81c6-60-76-77-97-28-3 7-6 17-6 28h103" id="S"/><path d="M135-143c-3-34-86-38-87 0 15 53 115 12 119 90S17 21 10-45l28-5c4 36 97 45 98 0-10-56-113-15-118-90-4-57 82-63 122-42 12 7 21 19 24 35" id="T"/><g id="b"><use transform="matrix(0.05,0,0,0.05,10,0)" xlink:href="#Q"/><use transform="matrix(0.05,0,0,0.05,15.949999999999998,0)" xlink:href="#R"/><use transform="matrix(0.05,0,0,0.05,35.95,0)" xlink:href="#S"/><use transform="matrix(0.05,0,0,0.05,45.95,0)" xlink:href="#T"/><use transform="matrix(0.05,0,0,0.05,54.95,0)" xlink:href="#T"/></g><path d="M615-1102c343 0 484 203 482 560-1 347-147 562-488 562-336 0-475-219-479-562-4-349 156-560 485-560zm-8 989c240 0 301-180 301-429 0-245-55-427-290-427-236 0-299 181-299 427 0 243 61 429 288 429" id="U"/><path d="M839-1102c70 0 148 7 206 17v167c-112-18-268-36-363 15-129 69-208 203-208 395V0H294c-10-367 32-789-52-1082h171c21 75 41 161 48 250h5c67-152 152-270 373-270" id="V"/><path d="M617-1102c355 0 481 238 477 599H322c5 222 84 388 301 388 144 0 244-59 284-166l158 45C1002-72 854 20 623 20c-342 0-490-220-490-568 0-346 151-554 484-554zm291 461c-18-192-90-328-289-328-194 0-287 128-295 328h584" id="W"/><path d="M135-143c-3-34-86-38-87 0 15 53 115 12 119 90S17 21 10-45l28-5c4 36 97 45 98 0-10-56-113-15-118-90-4-57 82-63 122-42 12 7 21 19 24 35" id="X"/><path d="M865-914c-3-187-2-380-2-570h180v1261c0 76 1 155 6 223H877c-8-49-9-116-10-174h-5C801-44 708 26 530 26c-135 0-234-46-297-139s-95-232-95-419c0-377 131-566 392-566 176 0 271 63 335 184zm-286-51c-222 0-255 197-255 427 0 229 31 425 253 425 237 0 286-195 286-441 0-238-52-411-284-411" id="Y"/><g id="c"><use transform="matrix(0.006510416666666667,0,0,0.006510416666666667,8.001302083333334,0)" xlink:href="#U"/><use transform="matrix(0.006510416666666667,0,0,0.006510416666666667,32.005208333333336,0)" xlink:href="#V"/><use transform="matrix(0.006510416666666667,0,0,0.006510416666666667,40.00651041666667,0)" xlink:href="#W"/><use transform="matrix(0.006510416666666667,0,0,0.006510416666666667,48.00781250000001,0)" xlink:href="#X"/><use transform="matrix(0.006510416666666667,0,0,0.006510416666666667,56.00911458333335,0)" xlink:href="#X"/><use transform="matrix(0.006510416666666667,0,0,0.006510416666666667,64.01041666666667,0)" xlink:href="#W"/><use transform="matrix(0.006510416666666667,0,0,0.006510416666666667,72.01171875,0)" xlink:href="#Y"/></g><path d="M802-711c201 25 350 118 350 331C1152-95 921 0 634 0H162v-1349c401 9 908-74 908 327 0 184-111 275-268 311zm-224-69c174-2 300-51 300-218 0-163-124-198-302-198H353v416h225zM353-153c281-2 612 44 606-244-5-271-329-233-606-234v478" id="Z"/><path d="M736-142h380V0H134v-142h422v-1200H267v-142h469v1342" id="aa"/><g id="d"><use transform="matrix(0.006510416666666667,0,0,0.006510416666666667,0,0)" xlink:href="#Z"/><use transform="matrix(0.006510416666666667,0,0,0.006510416666666667,8.001302083333334,0)" xlink:href="#aa"/><use transform="matrix(0.006510416666666667,0,0,0.006510416666666667,16.002604166666668,0)" xlink:href="#U"/></g><path d="M1000-272c3 95 12 159 101 161 21 0 41-3 59-7V-6c-44 10-86 16-139 16-141 2-191-84-197-217h-6C748-76 648 20 446 20c-207 0-318-120-318-322 0-266 194-348 454-354l236-4c12-191-40-305-222-305-140 0-220 47-232 172l-188-17c33-204 181-292 423-292 255 0 401 118 401 364v466zm-683-27c0 109 63 184 175 182 166-3 259-96 306-217 24-65 20-120 20-200-232 7-501-28-501 235" id="ab"/><use transform="matrix(0.006510416666666667,0,0,0.006510416666666667,8.001302083333334,0)" xlink:href="#ab" id="l"/><g id="m"><use transform="matrix(0.006510416666666667,0,0,0.006510416666666667,0,0)" xlink:href="#Z"/><use transform="matrix(0.006510416666666667,0,0,0.006510416666666667,8.001302083333334,0)" xlink:href="#aa"/><use transform="matrix(0.006510416666666667,0,0,0.006510416666666667,16.002604166666668,0)" xlink:href="#U"/></g><use transform="matrix(0.006510416666666667,0,0,0.006510416666666667,8.001302083333334,0)" xlink:href="#ab" id="n"/><g id="o"><use transform="matrix(0.006510416666666667,0,0,0.006510416666666667,0,0)" xlink:href="#Z"/><use transform="matrix(0.006510416666666667,0,0,0.006510416666666667,8.001302083333334,0)" xlink:href="#aa"/><use transform="matrix(0.006510416666666667,0,0,0.006510416666666667,16.002604166666668,0)" xlink:href="#U"/></g><path d="M682 16c-209 0-323-80-324-285v-671H190v-142h170l58-282h120v282h432v142H538v652c2 114 60 155 182 155 106 0 209-16 297-34v137C921-4 806 16 682 16" id="ac"/><g id="p"><use transform="matrix(0.006510416666666667,0,0,0.006510416666666667,0,0)" xlink:href="#Y"/><use transform="matrix(0.006510416666666667,0,0,0.006510416666666667,8.001302083333334,0)" xlink:href="#ab"/><use transform="matrix(0.006510416666666667,0,0,0.006510416666666667,16.002604166666668,0)" xlink:href="#ac"/><use transform="matrix(0.006510416666666667,0,0,0.006510416666666667,24.00390625,0)" xlink:href="#ab"/></g><g id="q"><use transform="matrix(0.006510416666666667,0,0,0.006510416666666667,0,0)" xlink:href="#X"/><use transform="matrix(0.006510416666666667,0,0,0.006510416666666667,8.001302083333334,0)" xlink:href="#ac"/><use transform="matrix(0.006510416666666667,0,0,0.006510416666666667,16.002604166666668,0)" xlink:href="#V"/><use transform="matrix(0.006510416666666667,0,0,0.006510416666666667,24.00390625,0)" xlink:href="#W"/><use transform="matrix(0.006510416666666667,0,0,0.006510416666666667,32.005208333333336,0)" xlink:href="#ab"/></g><path d="M745-142h380V0H143v-142h422v-798H246v-142h499v940zM545-1292v-192h200v192H545" id="ad"/><g id="r"><use transform="matrix(0.006510416666666667,0,0,0.006510416666666667,8.001302083333334,0)" xlink:href="#Y"/><use transform="matrix(0.006510416666666667,0,0,0.006510416666666667,16.002604166666668,0)" xlink:href="#ad"/><use transform="matrix(0.006510416666666667,0,0,0.006510416666666667,32.005208333333336,0)" xlink:href="#ad"/><use transform="matrix(0.006510416666666667,0,0,0.006510416666666667,40.00651041666667,0)" xlink:href="#Y"/><use transform="matrix(0.006510416666666667,0,0,0.006510416666666667,48.00781250000001,0)" xlink:href="#W"/><use transform="matrix(0.006510416666666667,0,0,0.006510416666666667,56.00911458333335,0)" xlink:href="#Y"/></g><path d="M706-1102c241 0 344 136 343 381V0H868v-695c1-168-57-273-220-268-190 6-283 138-283 336V0H185c-3-360 6-732-6-1082h170c4 54 7 126 8 185h3c63-121 164-204 346-205" id="ae"/><g id="s"><use transform="matrix(0.006510416666666667,0,0,0.006510416666666667,0,0)" xlink:href="#ad"/><use transform="matrix(0.006510416666666667,0,0,0.006510416666666667,8.001302083333334,0)" xlink:href="#ae"/></g><path d="M530 26c-303-6-392-228-392-558 0-187 33-329 98-424s162-142 293-142c178 0 273 69 334 184 1-56 3-122 12-169h175c-6 88-6 180-6 282V425H863c1-202-4-411 4-607h-2C805-59 713 29 530 26zm47-139c234 0 286-193 286-441 0-238-55-411-284-411-223 0-255 198-255 427 0 227 33 425 253 425" id="af"/><path d="M528 20c-247 0-343-132-343-381v-721h180v686c-4 177 45 284 224 277 194-8 279-136 279-336v-627h181c3 360-6 732 6 1082H885c-4-54-7-126-8-185h-3C809-64 714 20 528 20" id="ag"/><g id="t"><use transform="matrix(0.006510416666666667,0,0,0.006510416666666667,0,0)" xlink:href="#W"/><use transform="matrix(0.006510416666666667,0,0,0.006510416666666667,8.001302083333334,0)" xlink:href="#af"/><use transform="matrix(0.006510416666666667,0,0,0.006510416666666667,16.002604166666668,0)" xlink:href="#ag"/><use transform="matrix(0.006510416666666667,0,0,0.006510416666666667,24.00390625,0)" xlink:href="#ab"/><use transform="matrix(0.006510416666666667,0,0,0.006510416666666667,32.005208333333336,0)" xlink:href="#aa"/></g><g id="u"><use transform="matrix(0.006510416666666667,0,0,0.006510416666666667,0,0)" xlink:href="#X"/><use transform="matrix(0.006510416666666667,0,0,0.006510416666666667,8.001302083333334,0)" xlink:href="#ad"/><use transform="matrix(0.006510416666666667,0,0,0.006510416666666667,24.00390625,0)" xlink:href="#W"/><use transform="matrix(0.006510416666666667,0,0,0.006510416666666667,32.005208333333336,0)" xlink:href="#Y"/></g><path d="M365-904c58-129 161-200 334-200 130 0 228 46 293 138s98 233 98 420c0 189-34 331-102 425S824 20 698 20c-170 0-275-64-336-184 0 55-3 116-9 164H179c5-68 6-147 6-223v-1261h180c-2 193 4 394-4 580h4zm283 791c221 0 256-197 256-427 0-229-34-425-254-425-236 0-285 195-285 441 0 237 53 411 283 411" id="ah"/><g id="v"><use transform="matrix(0.006510416666666667,0,0,0.006510416666666667,0,0)" xlink:href="#ah"/><use transform="matrix(0.006510416666666667,0,0,0.006510416666666667,8.001302083333334,0)" xlink:href="#aa"/><use transform="matrix(0.006510416666666667,0,0,0.006510416666666667,16.002604166666668,0)" xlink:href="#U"/><use transform="matrix(0.006510416666666667,0,0,0.006510416666666667,40.00651041666667,0)" xlink:href="#X"/></g><path d="M237 0v-1349h191v1193h672V0H237" id="ai"/><use transform="matrix(0.006510416666666667,0,0,0.006510416666666667,32.005208333333336,0)" xlink:href="#ai" id="x"/><path fill="#fff" d="M1000-272c3 95 12 159 101 161 21 0 41-3 59-7V-6c-44 10-86 16-139 16-141 2-191-84-197-217h-6C748-76 648 20 446 20c-207 0-318-120-318-322 0-266 194-348 454-354l236-4c12-191-40-305-222-305-140 0-220 47-232 172l-188-17c33-204 181-292 423-292 255 0 401 118 401 364v466zm-683-27c0 109 63 184 175 182 166-3 259-96 306-217 24-65 20-120 20-200-232 7-501-28-501 235" id="aj"/><use transform="matrix(0.006510416666666667,0,0,0.006510416666666667,8.001302083333334,0)" xlink:href="#aj" id="z"/><path fill="#fff" d="M102-681c0-398 126-689 513-689 165 0 291 58 379 174s132 287 132 515c-1 318-88 554-298 657-123 61-317 58-438-3-206-104-288-341-288-654zm749 406c94-160 97-656-5-807-57-85-130-132-231-132-104 0-178 47-234 132-101 153-99 655 1 809 57 89 130 138 232 138 109 0 184-49 237-140" id="ak"/><path fill="#fff" d="M135-143c-3-34-86-38-87 0 15 53 115 12 119 90S17 21 10-45l28-5c4 36 97 45 98 0-10-56-113-15-118-90-4-57 82-63 122-42 12 7 21 19 24 35" id="al"/><path fill="#fff" d="M617-1102c355 0 481 238 477 599H322c5 222 84 388 301 388 144 0 244-59 284-166l158 45C1002-72 854 20 623 20c-342 0-490-220-490-568 0-346 151-554 484-554zm291 461c-18-192-90-328-289-328-194 0-287 128-295 328h584" id="am"/><path fill="#fff" d="M682 16c-209 0-323-80-324-285v-671H190v-142h170l58-282h120v282h432v142H538v652c2 114 60 155 182 155 106 0 209-16 297-34v137C921-4 806 16 682 16" id="an"/><g id="A"><use transform="matrix(0.006510416666666667,0,0,0.006510416666666667,0,0)" xlink:href="#ak"/><use transform="matrix(0.006510416666666667,0,0,0.006510416666666667,24.00390625,0)" xlink:href="#al"/><use transform="matrix(0.006510416666666667,0,0,0.006510416666666667,32.005208333333336,0)" xlink:href="#am"/><use transform="matrix(0.006510416666666667,0,0,0.006510416666666667,40.00651041666667,0)" xlink:href="#an"/></g><path fill="#fff" d="M185-189c-5-48-123-54-124 2 14 75 158 14 163 119 3 78-121 87-175 55-17-10-28-26-33-46l33-7c5 56 141 63 141-1 0-78-155-14-162-118-5-82 145-84 179-34 5 7 8 16 11 25" id="ao"/><path fill="#fff" d="M839-1102c70 0 148 7 206 17v167c-112-18-268-36-363 15-129 69-208 203-208 395V0H294c-10-367 32-789-52-1082h171c21 75 41 161 48 250h5c67-152 152-270 373-270" id="ap"/><g id="B"><use transform="matrix(0.006510416666666667,0,0,0.006510416666666667,0,0)" xlink:href="#ao"/><use transform="matrix(0.006510416666666667,0,0,0.006510416666666667,8.001302083333334,0)" xlink:href="#an"/><use transform="matrix(0.006510416666666667,0,0,0.006510416666666667,16.002604166666668,0)" xlink:href="#aj"/><use transform="matrix(0.006510416666666667,0,0,0.006510416666666667,24.00390625,0)" xlink:href="#ap"/><use transform="matrix(0.006510416666666667,0,0,0.006510416666666667,32.005208333333336,0)" xlink:href="#an"/></g><path fill="#fff" d="M615-1102c343 0 484 203 482 560-1 347-147 562-488 562-336 0-475-219-479-562-4-349 156-560 485-560zm-8 989c240 0 301-180 301-429 0-245-55-427-290-427-236 0-299 181-299 427 0 243 61 429 288 429" id="aq"/><use transform="matrix(0.006510416666666667,0,0,0.006510416666666667,0,0)" xlink:href="#aq" id="C"/><use transform="matrix(0.006510416666666667,0,0,0.006510416666666667,8.001302083333334,0)" xlink:href="#aj" id="D"/><path fill="#fff" d="M802-711c201 25 350 118 350 331C1152-95 921 0 634 0H162v-1349c401 9 908-74 908 327 0 184-111 275-268 311zm-224-69c174-2 300-51 300-218 0-163-124-198-302-198H353v416h225zM353-153c281-2 612 44 606-244-5-271-329-233-606-234v478" id="ar"/><path fill="#fff" d="M736-142h380V0H134v-142h422v-1200H267v-142h469v1342" id="as"/><g id="E"><use transform="matrix(0.006510416666666667,0,0,0.006510416666666667,0,0)" xlink:href="#ar"/><use transform="matrix(0.006510416666666667,0,0,0.006510416666666667,8.001302083333334,0)" xlink:href="#as"/><use transform="matrix(0.006510416666666667,0,0,0.006510416666666667,16.002604166666668,0)" xlink:href="#aq"/></g><path fill="#fff" d="M745-142h380V0H143v-142h422v-798H246v-142h499v940zM545-1292v-192h200v192H545" id="at"/><use transform="matrix(0.006510416666666667,0,0,0.006510416666666667,8.001302083333334,0)" xlink:href="#at" id="H"/><path fill="#fff" d="M706-1102c241 0 344 136 343 381V0H868v-695c1-168-57-273-220-268-190 6-283 138-283 336V0H185c-3-360 6-732-6-1082h170c4 54 7 126 8 185h3c63-121 164-204 346-205" id="au"/><path fill="#fff" d="M865-914c-3-187-2-380-2-570h180v1261c0 76 1 155 6 223H877c-8-49-9-116-10-174h-5C801-44 708 26 530 26c-135 0-234-46-297-139s-95-232-95-419c0-377 131-566 392-566 176 0 271 63 335 184zm-286-51c-222 0-255 197-255 427 0 229 31 425 253 425 237 0 286-195 286-441 0-238-52-411-284-411" id="av"/><g id="M"><use transform="matrix(0.006510416666666667,0,0,0.006510416666666667,8.001302083333334,0)" xlink:href="#au"/><use transform="matrix(0.006510416666666667,0,0,0.006510416666666667,16.002604166666668,0)" xlink:href="#av"/></g><g id="N"><use transform="matrix(0.006510416666666667,0,0,0.006510416666666667,0,0)" xlink:href="#ap"/><use transform="matrix(0.006510416666666667,0,0,0.006510416666666667,8.001302083333334,0)" xlink:href="#aj"/></g><g id="O"><use transform="matrix(0.006510416666666667,0,0,0.006510416666666667,0,0)" xlink:href="#al"/><use transform="matrix(0.006510416666666667,0,0,0.006510416666666667,8.001302083333334,0)" xlink:href="#an"/><use transform="matrix(0.006510416666666667,0,0,0.006510416666666667,16.002604166666668,0)" xlink:href="#ap"/><use transform="matrix(0.006510416666666667,0,0,0.006510416666666667,24.00390625,0)" xlink:href="#am"/><use transform="matrix(0.006510416666666667,0,0,0.006510416666666667,32.005208333333336,0)" xlink:href="#aj"/></g></defs></g></svg>