<svg xmlns="http://www.w3.org/2000/svg" xmlns:xlink="http://www.w3.org/1999/xlink" width="1200" height="920"><g transform="translate(-60 -340)"><path d="M80 360h334l26 26v104H80z" stroke="#d9be60" stroke-width="2" fill="#ffdf71"/><path d="M414 360l26 26h-26z" fill="#d9be60"/><use xlink:href="#a" transform="matrix(1,0,0,1,85,365) translate(175 65.4)"/><path d="M480 360h160v120H480z" stroke="#000" stroke-width="2" fill="#f9d2de"/><use xlink:href="#b" transform="matrix(1,0,0,1,485,365) translate(20.9912109375 42.396484375)"/><use xlink:href="#c" transform="matrix(1,0,0,1,485,365) translate(107.4052734375 42.396484375)"/><use xlink:href="#d" transform="matrix(1,0,0,1,485,365) translate(75 60.396484375)"/><use xlink:href="#e" transform="matrix(1,0,0,1,485,365) translate(31.79296875 78.396484375)"/><path d="M900 360h160v120H900z" stroke="#000" stroke-width="2" fill="#f9d2de"/><use xlink:href="#b" transform="matrix(1,0,0,1,905,365) translate(20.9912109375 42.396484375)"/><use xlink:href="#f" transform="matrix(1,0,0,1,905,365) translate(107.4052734375 42.396484375)"/><use xlink:href="#d" transform="matrix(1,0,0,1,905,365) translate(75 60.396484375)"/><use xlink:href="#g" transform="matrix(1,0,0,1,905,365) translate(31.79296875 78.396484375)"/><path d="M640 420h259" stroke="#000" stroke-width="2" fill="none"/><path d="M654.27 424.64L640 420l14.27-4.64z"/><path d="M655.27 426L640 421.06v-2.1l15.27-4.96zm-12.03-6l10.03 3.26v-6.52zM900 421h-1v-2h1z"/><path d="M480 560h160v120H480z" stroke="#000" stroke-width="2" fill="#c1e4f7"/><use xlink:href="#h" transform="matrix(1,0,0,1,485,565) translate(10.189453125 42.396484375)"/><use xlink:href="#i" transform="matrix(1,0,0,1,485,565) translate(129.0087890625 42.396484375)"/><use xlink:href="#j" transform="matrix(1,0,0,1,485,565) translate(75 60.396484375)"/><use xlink:href="#k" transform="matrix(1,0,0,1,485,565) translate(31.79296875 78.396484375)"/><path d="M560 480v79" stroke="#000" stroke-width="2" fill="none"/><path d="M560 559l-4.64-14.27h9.28z"/><path d="M560.73 560h-1.46L554 543.73h12zm-4-14.27l3.27 10.03 3.26-10.03z"/><path d="M980 480v80" stroke="#000" stroke-width="2" fill="none"/><path d="M980 560l-4.64-14.27h9.28z"/><path d="M981.05 560h-2.1L974 544.73h12zm-4.3-13.27l3.25 10.03 3.26-10.03z"/><path d="M200 740h200v120H200z" stroke="#000" stroke-width="2" fill="#c1e4f7"/><use xlink:href="#l" transform="matrix(1,0,0,1,205,745) translate(3.18505859375 42.396484375)"/><use xlink:href="#j" transform="matrix(1,0,0,1,205,745) translate(95 60.396484375)"/><use xlink:href="#k" transform="matrix(1,0,0,1,205,745) translate(51.79296875 78.396484375)"/><path d="M300 740v-29.5h223.8V681" stroke="#000" stroke-width="2" fill="none"/><path d="M300 740l-4.64-14.27h9.28z"/><path d="M301.05 740h-2.1L294 724.73h12zm-4.3-13.27l3.25 10.03 3.26-10.03zM524.8 681h-2v-1h2z"/><path d="M120 940h160v120H120z" stroke="#000" stroke-width="2" fill="#c7e8ac"/><use xlink:href="#m" transform="matrix(1,0,0,1,125,945) translate(10.189453125 42.396484375)"/><use xlink:href="#n" transform="matrix(1,0,0,1,125,945) translate(75 42.396484375)"/><use xlink:href="#j" transform="matrix(1,0,0,1,125,945) translate(75 60.396484375)"/><use xlink:href="#o" transform="matrix(1,0,0,1,125,945) translate(31.79296875 78.396484375)"/><path d="M900 560h160v120H900z" stroke="#000" stroke-width="2" fill="#c1e4f7"/><use xlink:href="#h" transform="matrix(1,0,0,1,905,565) translate(10.189453125 42.396484375)"/><use xlink:href="#i" transform="matrix(1,0,0,1,905,565) translate(129.0087890625 42.396484375)"/><use xlink:href="#j" transform="matrix(1,0,0,1,905,565) translate(75 60.396484375)"/><use xlink:href="#p" transform="matrix(1,0,0,1,905,565) translate(31.79296875 78.396484375)"/><path d="M200 940v-40h100v-40" stroke="#000" stroke-width="2" fill="none"/><path d="M200 940l-4.64-14.27h9.28z"/><path d="M201.05 940h-2.1L194 924.73h12zm-4.3-13.27l3.25 10.03 3.26-10.03z"/><path d="M320 940h160v120H320z" stroke="#000" stroke-width="2" fill="#c7e8ac"/><use xlink:href="#m" transform="matrix(1,0,0,1,325,945) translate(4.78857421875 42.396484375)"/><use xlink:href="#q" transform="matrix(1,0,0,1,325,945) translate(69.59912109375 42.396484375)"/><use xlink:href="#j" transform="matrix(1,0,0,1,325,945) translate(75 60.396484375)"/><use xlink:href="#r" transform="matrix(1,0,0,1,325,945) translate(31.79296875 78.396484375)"/><path d="M400 940v-40H300v-40" stroke="#000" stroke-width="2" fill="none"/><path d="M400 940l-4.64-14.27h9.28z"/><path d="M401.05 940h-2.1L394 924.73h12zm-4.3-13.27l3.25 10.03 3.26-10.03z"/><path d="M540 740h160v120H540z" stroke="#000" stroke-width="2" fill="#c7e8ac"/><use xlink:href="#m" transform="matrix(1,0,0,1,545,745) translate(4.78857421875 42.396484375)"/><use xlink:href="#s" transform="matrix(1,0,0,1,545,745) translate(69.59912109375 42.396484375)"/><use xlink:href="#t" transform="matrix(1,0,0,1,545,745) translate(75 60.396484375)"/><use xlink:href="#u" transform="matrix(1,0,0,1,545,745) translate(31.79296875 78.396484375)"/><path d="M597.14 681v29.5H620V740" stroke="#000" stroke-width="2" fill="none"/><path d="M598.14 681h-2v-1h2zM620 740l-4.64-14.27h9.28z"/><path d="M621.05 740h-2.1L614 724.73h12zm-4.3-13.27l3.25 10.03 3.26-10.03z"/><path d="M900 740h160v120H900z" stroke="#000" stroke-width="2" fill="#c7e8ac"/><use xlink:href="#m" transform="matrix(1,0,0,1,905,745) translate(4.78857421875 42.396484375)"/><use xlink:href="#s" transform="matrix(1,0,0,1,905,745) translate(69.59912109375 42.396484375)"/><use xlink:href="#t" transform="matrix(1,0,0,1,905,745) translate(75 60.396484375)"/><use xlink:href="#v" transform="matrix(1,0,0,1,905,745) translate(31.79296875 78.396484375)"/><path d="M1009.47 681v58" stroke="#000" stroke-width="2" fill="none"/><path d="M1010.47 681h-2v-1h2zM1009.47 739l-4.64-14.27h9.27z"/><path d="M1010.2 740h-1.46l-5.3-16.27h12.04zm-4-14.27l3.27 10.03 3.25-10.03z"/><path d="M540 940h160v120H540z" stroke="#000" stroke-width="2" fill="#ffdba9"/><use xlink:href="#w" transform="matrix(1,0,0,1,545,945) translate(4.78857421875 42.396484375)"/><use xlink:href="#x" transform="matrix(1,0,0,1,545,945) translate(123.60791015625 42.396484375)"/><use xlink:href="#y" transform="matrix(1,0,0,1,545,945) translate(75 60.396484375)"/><use xlink:href="#e" transform="matrix(1,0,0,1,545,945) translate(31.79296875 78.396484375)"/><path d="M720 940h160v120H720z" stroke="#000" stroke-width="2" fill="#ffdba9"/><use xlink:href="#w" transform="matrix(1,0,0,1,725,945) translate(4.78857421875 42.396484375)"/><use xlink:href="#z" transform="matrix(1,0,0,1,725,945) translate(123.60791015625 42.396484375)"/><use xlink:href="#y" transform="matrix(1,0,0,1,725,945) translate(75 60.396484375)"/><use xlink:href="#A" transform="matrix(1,0,0,1,725,945) translate(31.79296875 78.396484375)"/><path d="M900 940h160v120H900z" stroke="#000" stroke-width="2" fill="#ffdba9"/><use xlink:href="#w" transform="matrix(1,0,0,1,905,945) translate(4.78857421875 42.396484375)"/><use xlink:href="#B" transform="matrix(1,0,0,1,905,945) translate(123.60791015625 42.396484375)"/><use xlink:href="#y" transform="matrix(1,0,0,1,905,945) translate(75 60.396484375)"/><use xlink:href="#C" transform="matrix(1,0,0,1,905,945) translate(31.79296875 78.396484375)"/><path d="M620 860v79" stroke="#000" stroke-width="2" fill="none"/><path d="M620 939l-4.64-14.27h9.28z"/><path d="M620.73 940h-1.46L614 923.73h12zm-4-14.27l3.27 10.03 3.26-10.03z"/><path d="M620 860v39.5h141.5V939" stroke="#000" stroke-width="2" fill="none"/><path d="M761.5 939l-4.65-14.27h9.27z"/><path d="M762.22 940h-1.46l-5.28-16.27h12.02zm-4-14.27l3.27 10.03 3.25-10.03z"/><path d="M1080 740v120h160V740z" fill="none"/><path d="M1080 860c4.14 0 7.5-3.36 7.5-7.5v-45c0-4.14 3.36-7.5 7.5-7.5-4.14 0-7.5-3.36-7.5-7.5v-45c0-4.14-3.36-7.5-7.5-7.5" stroke="#000" stroke-width="2" fill="none"/><g><use xlink:href="#D" transform="matrix(1,0,0,1,1107.5,745) translate(20.599999999999994 47.8)"/><use xlink:href="#E" transform="matrix(1,0,0,1,1107.5,745) translate(93.45 47.8)"/><use xlink:href="#F" transform="matrix(1,0,0,1,1107.5,745) translate(20.599999999999994 69.4)"/><use xlink:href="#G" transform="matrix(1,0,0,1,1107.5,745) translate(87.4 69.4)"/></g><path d="M640 380h240v60H640z" fill="none"/><g><use xlink:href="#H" transform="matrix(1,0,0,1,645,385) translate(90.99609375 28.997395833333332)"/></g><path d="M980 860v80" stroke="#000" stroke-width="2" fill="none"/><path d="M980 940l-4.64-14.27h9.28z"/><path d="M981.05 940h-2.1L974 924.73h12zm-4.3-13.27l3.25 10.03 3.26-10.03z"/><path d="M943.77 681v19H300v40" stroke="#000" stroke-width="2" fill="none"/><path d="M944.77 681h-2v-1h2zM300 740l-4.64-14.27h9.28z"/><path d="M301.05 740h-2.1L294 724.73h12zm-4.3-13.27l3.25 10.03 3.26-10.03z"/><path d="M640 660h240v60H640z" fill="none"/><g><use xlink:href="#I" transform="matrix(1,0,0,1,645,665) translate(46.98893229166666 28.997395833333332)"/><use xlink:href="#J" transform="matrix(1,0,0,1,645,665) translate(127.00195312499999 28.997395833333332)"/></g><path d="M180 880h240v60H180z" fill="none"/><g><use xlink:href="#K" transform="matrix(1,0,0,1,185,885) translate(34.98697916666667 28.997395833333332)"/><use xlink:href="#J" transform="matrix(1,0,0,1,185,885) translate(139.00390625 28.997395833333332)"/></g><path d="M680 840h240v60H680z" fill="none"/><g><use xlink:href="#L" transform="matrix(1,0,0,1,685,845) translate(38.987630208333314 28.997395833333332)"/><use xlink:href="#M" transform="matrix(1,0,0,1,685,845) translate(78.99414062499999 28.997395833333332)"/><use xlink:href="#N" transform="matrix(1,0,0,1,685,845) translate(135.00325520833331 28.997395833333332)"/></g><path d="M80 390h360v100H80z" fill="none"/><g><use xlink:href="#O" transform="matrix(1,0,0,1,85,395) translate(0 15.538194444444445)"/><use xlink:href="#P" transform="matrix(1,0,0,1,85,395) translate(204.5486111111111 15.538194444444445)"/><use xlink:href="#Q" transform="matrix(1,0,0,1,85,395) translate(246.38020833333331 15.538194444444445)"/><use xlink:href="#R" transform="matrix(1,0,0,1,85,395) translate(0 36.111111111111114)"/><use xlink:href="#S" transform="matrix(1,0,0,1,85,395) translate(112.62152777777777 36.111111111111114)"/><use xlink:href="#T" transform="matrix(1,0,0,1,85,395) translate(141.28472222222223 36.111111111111114)"/><use xlink:href="#U" transform="matrix(1,0,0,1,85,395) translate(173.671875 36.111111111111114)"/><use xlink:href="#V" transform="matrix(1,0,0,1,85,395) translate(213.13368055555554 36.111111111111114)"/><use xlink:href="#W" transform="matrix(1,0,0,1,85,395) translate(255.13888888888889 36.111111111111114)"/><use xlink:href="#X" transform="matrix(1,0,0,1,85,395) translate(0 56.68402777777778)"/><use xlink:href="#Y" transform="matrix(1,0,0,1,85,395) translate(23.01215277777778 56.68402777777778)"/><use xlink:href="#Z" transform="matrix(1,0,0,1,85,395) translate(90.75520833333334 56.68402777777778)"/><use xlink:href="#aa" transform="matrix(1,0,0,1,85,395) translate(122.3090277777778 56.68402777777778)"/><use xlink:href="#ab" transform="matrix(1,0,0,1,85,395) translate(153.74131944444446 56.68402777777778)"/></g><path d="M120 1120h160v120H120z" stroke="#000" stroke-width="2" fill="#ffdba9"/><g><use xlink:href="#w" transform="matrix(1,0,0,1,125,1125) translate(4.78857421875 42.396484375)"/><use xlink:href="#ac" transform="matrix(1,0,0,1,125,1125) translate(123.60791015625 42.396484375)"/><use xlink:href="#y" transform="matrix(1,0,0,1,125,1125) translate(75 60.396484375)"/><use xlink:href="#ad" transform="matrix(1,0,0,1,125,1125) translate(31.79296875 78.396484375)"/></g><path d="M320 1120h160v120H320z" stroke="#000" stroke-width="2" fill="#ffdba9"/><g><use xlink:href="#w" transform="matrix(1,0,0,1,325,1125) translate(4.78857421875 42.396484375)"/><use xlink:href="#ae" transform="matrix(1,0,0,1,325,1125) translate(123.60791015625 42.396484375)"/><use xlink:href="#y" transform="matrix(1,0,0,1,325,1125) translate(75 60.396484375)"/><use xlink:href="#af" transform="matrix(1,0,0,1,325,1125) translate(31.79296875 78.396484375)"/></g><path d="M200 1060v60" stroke="#000" stroke-width="2" fill="none"/><path d="M200 1120l-4.64-14.27h9.28z"/><path d="M201.05 1120h-2.1l-4.96-15.27h12zm-4.3-13.27l3.25 10.03 3.26-10.03z"/><path d="M400 1060v59" stroke="#000" stroke-width="2" fill="none"/><path d="M400 1119l-4.64-14.27h9.28z"/><path d="M400.73 1120h-1.46l-5.28-16.27h12zm-4-14.27l3.27 10.03 3.26-10.03z"/><path d="M952.25 861v49H620v30" stroke="#000" stroke-width="2" fill="none"/><path d="M953.25 861h-2v-1h2zM620 940l-4.64-14.27h9.28z"/><path d="M621.05 940h-2.1L614 924.73h12zm-4.3-13.27l3.25 10.03 3.26-10.03z"/><defs><path fill="#834187" d="M631 20c-350 0-501-215-501-562 0-355 162-560 502-560 250 0 399 118 446 323l-192 14c-23-124-109-196-262-196-242 0-305 171-305 415 1 245 61 427 304 427 151 0 248-77 267-215l190 12C1039-107 883 20 631 20" id="ag"/><path fill="#834187" d="M615-1102c343 0 484 203 482 560-1 347-147 562-488 562-336 0-475-219-479-562-4-349 156-560 485-560zm-8 989c240 0 301-180 301-429 0-245-55-427-290-427-236 0-299 181-299 427 0 243 61 429 288 429" id="ah"/><path fill="#834187" d="M904-1102c199 0 220 177 220 381V0H956v-686c-3-114 0-215-60-264-70-33-125-4-158 71-26 56-39 140-39 252V0H531v-686c-3-114-1-215-61-264-78-41-136 24-157 84-24 69-39 159-39 259V0H105c-3-360 6-732-6-1082h149c6 50 3 123 8 175 36-100 83-195 216-195 135 0 166 79 196 196 42-105 93-196 236-196" id="ai"/><path fill="#834187" d="M745-142h380V0H143v-142h422v-798H246v-142h499v940zM545-1292v-192h200v192H545" id="aj"/><path fill="#834187" d="M682 16c-209 0-323-80-324-285v-671H190v-142h170l58-282h120v282h432v142H538v652c2 114 60 155 182 155 106 0 209-16 297-34v137C921-4 806 16 682 16" id="ak"/><path fill="#834187" d="M496 0v-299h235V0H496zm0-783v-299h235v299H496" id="al"/><g id="b"><use transform="matrix(0.0087890625,0,0,0.0087890625,0,0)" xlink:href="#ag"/><use transform="matrix(0.0087890625,0,0,0.0087890625,10.8017578125,0)" xlink:href="#ah"/><use transform="matrix(0.0087890625,0,0,0.0087890625,21.603515625,0)" xlink:href="#ai"/><use transform="matrix(0.0087890625,0,0,0.0087890625,32.4052734375,0)" xlink:href="#ai"/><use transform="matrix(0.0087890625,0,0,0.0087890625,43.20703125,0)" xlink:href="#aj"/><use transform="matrix(0.0087890625,0,0,0.0087890625,54.0087890625,0)" xlink:href="#ak"/><use transform="matrix(0.0087890625,0,0,0.0087890625,64.810546875,0)" xlink:href="#al"/></g><path fill="#834187" d="M930-833l-67 317h260v108H840L752 0H642l86-408H365L281 0H171l84-408H54v-108h225l67-317H105v-108h263l89-408h110l-88 408h363l88-408h110l-88 408h211v108H930zm-471 0l-69 317h362l67-317H459" id="am"/><path fill="#834187" d="M148-1120c216-7 379-89 463-229h166v1204h353V0H157v-145h439v-1021c-79 124-254 184-448 194v-148" id="an"/><g id="c"><use transform="matrix(0.0087890625,0,0,0.0087890625,0,0)" xlink:href="#am"/><use transform="matrix(0.0087890625,0,0,0.0087890625,10.8017578125,0)" xlink:href="#an"/></g><path d="M102-681c0-398 126-689 513-689 165 0 291 58 379 174s132 287 132 515c0 353-105 610-380 685 49 143 111 234 276 240 36 1 86-7 115-13v134c-94 24-238 34-327-3-143-59-210-191-259-346-336-41-449-320-449-697zm749 406c94-160 97-656-5-807-57-85-130-132-231-132-104 0-178 47-234 132-101 153-99 655 1 809 57 89 130 138 232 138 109 0 184-49 237-140" id="ao"/><path d="M904-1102c199 0 220 177 220 381V0H956v-686c-3-114 0-215-60-264-70-33-125-4-158 71-26 56-39 140-39 252V0H531v-686c-3-114-1-215-61-264-78-41-136 24-157 84-24 69-39 159-39 259V0H105c-3-360 6-732-6-1082h149c6 50 3 123 8 175 36-100 83-195 216-195 135 0 166 79 196 196 42-105 93-196 236-196" id="ap"/><path d="M709-1193V0H519v-1193H76v-156h1076v156H709" id="aq"/><path d="M1060-1016c0 191-128 285-295 323v4c154 18 262 91 313 209 14 35 21 72 21 110 0 277-194 390-478 390-292 0-457-129-493-382l186-17c24 161 121 250 307 250 172 1 298-80 291-247-8-208-220-239-446-233v-156c217 9 409-34 409-232 0-152-102-225-264-225-159 0-264 88-278 233l-181-14c33-239 196-367 461-367 264 0 447 102 447 354" id="ar"/><path d="M706-1102c241 0 344 136 343 381V0H868v-695c1-168-57-273-220-268-190 6-283 138-283 336V0H185c-3-360 6-732-6-1082h170c4 54 7 126 8 185h3c63-121 164-204 346-205" id="as"/><path d="M617-1102c355 0 481 238 477 599H322c5 222 84 388 301 388 144 0 244-59 284-166l158 45C1002-72 854 20 623 20c-342 0-490-220-490-568 0-346 151-554 484-554zm291 461c-18-192-90-328-289-328-194 0-287 128-295 328h584" id="at"/><path d="M611-1370c266 0 451 106 451 368 0 147-77 243-154 327-132 144-316 255-451 395-42 44-75 87-96 134h723V0H144v-117c124-264 387-411 582-603 73-72 151-147 151-271 0-161-104-231-266-231-163 0-249 90-268 238l-184-17c35-233 185-369 452-369" id="au"/><path d="M809-709c168 33 285 134 285 331 0 277-191 398-480 398-287 0-481-120-481-396 0-192 118-296 281-331v-4c-145-39-248-139-248-313 0-238 192-346 444-346 211 0 357 75 422 217 19 41 27 86 27 131 0 172-101 274-250 309v4zm-197-70c168 0 260-73 260-233 0-158-100-224-262-224-160 0-260 68-260 224 0 155 97 232 262 233zm4 664c194 1 291-91 291-280 0-172-115-249-297-249-178 0-291 85-291 253 0 186 106 275 297 276" id="av"/><g id="e"><use transform="matrix(0.0087890625,0,0,0.0087890625,0,0)" xlink:href="#ao"/><use transform="matrix(0.0087890625,0,0,0.0087890625,10.8017578125,0)" xlink:href="#ap"/><use transform="matrix(0.0087890625,0,0,0.0087890625,21.603515625,0)" xlink:href="#aq"/><use transform="matrix(0.0087890625,0,0,0.0087890625,32.4052734375,0)" xlink:href="#ar"/><use transform="matrix(0.0087890625,0,0,0.0087890625,43.20703125,0)" xlink:href="#as"/><use transform="matrix(0.0087890625,0,0,0.0087890625,54.0087890625,0)" xlink:href="#at"/><use transform="matrix(0.0087890625,0,0,0.0087890625,64.810546875,0)" xlink:href="#au"/><use transform="matrix(0.0087890625,0,0,0.0087890625,75.6123046875,0)" xlink:href="#av"/></g><path fill="#834187" d="M611-1370c266 0 451 106 451 368 0 147-77 243-154 327-132 144-316 255-451 395-42 44-75 87-96 134h723V0H144v-117c124-264 387-411 582-603 73-72 151-147 151-271 0-161-104-231-266-231-163 0-249 90-268 238l-184-17c35-233 185-369 452-369" id="aw"/><g id="f"><use transform="matrix(0.0087890625,0,0,0.0087890625,0,0)" xlink:href="#am"/><use transform="matrix(0.0087890625,0,0,0.0087890625,10.8017578125,0)" xlink:href="#aw"/></g><path d="M614-1226c-167 1-283 53-283 213 0 183 186 193 334 234 230 63 463 120 463 409 0 286-219 387-518 390C309 23 131-98 79-338l185-37c34 165 149 248 351 246 184-2 324-58 324-238 0-203-207-221-372-266-210-57-422-111-422-377 0-267 201-356 470-360 279-5 430 101 480 324l-188 33c-28-141-121-215-293-213" id="ax"/><path d="M365-904c58-129 161-200 334-200 130 0 228 46 293 138s98 233 98 420c0 189-34 331-102 425S824 20 698 20c-170 0-275-64-336-184 0 55-3 116-9 164H179c5-68 6-147 6-223v-1261h180c-2 193 4 394-4 580h4zm283 791c221 0 256-197 256-427 0-229-34-425-254-425-236 0-285 195-285 441 0 237 53 411 283 411" id="ay"/><path d="M839-1102c70 0 148 7 206 17v167c-112-18-268-36-363 15-129 69-208 203-208 395V0H294c-10-367 32-789-52-1082h171c21 75 41 161 48 250h5c67-152 152-270 373-270" id="az"/><path d="M141-911c0-296 172-459 469-459 157 0 276 55 356 166s121 278 121 501c-1 324-87 567-297 677-134 70-367 56-475-22-71-52-117-126-145-226l172-27c34 111 103 176 238 176 187 0 261-138 304-298 16-65 24-141 25-227-59 121-177 199-350 199-275 0-418-184-418-460zm461 318c168 0 289-96 289-269 0-158-59-275-163-332-36-20-77-30-124-30-187 0-280 125-280 313s90 318 278 318" id="aA"/><path d="M1000-272c3 95 12 159 101 161 21 0 41-3 59-7V-6c-44 10-86 16-139 16-141 2-191-84-197-217h-6C748-76 648 20 446 20c-207 0-318-120-318-322 0-266 194-348 454-354l236-4c12-191-40-305-222-305-140 0-220 47-232 172l-188-17c33-204 181-292 423-292 255 0 401 118 401 364v466zm-683-27c0 109 63 184 175 182 166-3 259-96 306-217 24-65 20-120 20-200-232 7-501-28-501 235" id="aB"/><g id="g"><use transform="matrix(0.0087890625,0,0,0.0087890625,0,0)" xlink:href="#ao"/><use transform="matrix(0.0087890625,0,0,0.0087890625,10.8017578125,0)" xlink:href="#ap"/><use transform="matrix(0.0087890625,0,0,0.0087890625,21.603515625,0)" xlink:href="#ax"/><use transform="matrix(0.0087890625,0,0,0.0087890625,32.4052734375,0)" xlink:href="#ay"/><use transform="matrix(0.0087890625,0,0,0.0087890625,43.20703125,0)" xlink:href="#az"/><use transform="matrix(0.0087890625,0,0,0.0087890625,54.0087890625,0)" xlink:href="#ar"/><use transform="matrix(0.0087890625,0,0,0.0087890625,64.810546875,0)" xlink:href="#aA"/><use transform="matrix(0.0087890625,0,0,0.0087890625,75.6123046875,0)" xlink:href="#aB"/></g><path fill="#0c7cba" d="M865-914c-3-187-2-380-2-570h180v1261c0 76 1 155 6 223H877c-8-49-9-116-10-174h-5C801-44 708 26 530 26c-135 0-234-46-297-139s-95-232-95-419c0-377 131-566 392-566 176 0 271 63 335 184zm-286-51c-222 0-255 197-255 427 0 229 31 425 253 425 237 0 286-195 286-441 0-238-52-411-284-411" id="aC"/><path fill="#0c7cba" d="M745-142h380V0H143v-142h422v-798H246v-142h499v940zM545-1292v-192h200v192H545" id="aD"/><path fill="#0c7cba" d="M839-1102c70 0 148 7 206 17v167c-112-18-268-36-363 15-129 69-208 203-208 395V0H294c-10-367 32-789-52-1082h171c21 75 41 161 48 250h5c67-152 152-270 373-270" id="aE"/><path fill="#0c7cba" d="M617-1102c355 0 481 238 477 599H322c5 222 84 388 301 388 144 0 244-59 284-166l158 45C1002-72 854 20 623 20c-342 0-490-220-490-568 0-346 151-554 484-554zm291 461c-18-192-90-328-289-328-194 0-287 128-295 328h584" id="aF"/><path fill="#0c7cba" d="M631 20c-350 0-501-215-501-562 0-355 162-560 502-560 250 0 399 118 446 323l-192 14c-23-124-109-196-262-196-242 0-305 171-305 415 1 245 61 427 304 427 151 0 248-77 267-215l190 12C1039-107 883 20 631 20" id="aG"/><path fill="#0c7cba" d="M682 16c-209 0-323-80-324-285v-671H190v-142h170l58-282h120v282h432v142H538v652c2 114 60 155 182 155 106 0 209-16 297-34v137C921-4 806 16 682 16" id="aH"/><path fill="#0c7cba" d="M615-1102c343 0 484 203 482 560-1 347-147 562-488 562-336 0-475-219-479-562-4-349 156-560 485-560zm-8 989c240 0 301-180 301-429 0-245-55-427-290-427-236 0-299 181-299 427 0 243 61 429 288 429" id="aI"/><path fill="#0c7cba" d="M168 279c222 39 310-114 368-290L66-1082h192c120 299 249 590 362 896 115-301 235-597 351-896h190L705 0c-65 164-130 320-275 396-67 36-177 35-262 18V279" id="aJ"/><path fill="#0c7cba" d="M496 0v-299h235V0H496zm0-783v-299h235v299H496" id="aK"/><g id="h"><use transform="matrix(0.0087890625,0,0,0.0087890625,0,0)" xlink:href="#aC"/><use transform="matrix(0.0087890625,0,0,0.0087890625,10.8017578125,0)" xlink:href="#aD"/><use transform="matrix(0.0087890625,0,0,0.0087890625,21.603515625,0)" xlink:href="#aE"/><use transform="matrix(0.0087890625,0,0,0.0087890625,32.4052734375,0)" xlink:href="#aF"/><use transform="matrix(0.0087890625,0,0,0.0087890625,43.20703125,0)" xlink:href="#aG"/><use transform="matrix(0.0087890625,0,0,0.0087890625,54.0087890625,0)" xlink:href="#aH"/><use transform="matrix(0.0087890625,0,0,0.0087890625,64.810546875,0)" xlink:href="#aI"/><use transform="matrix(0.0087890625,0,0,0.0087890625,75.6123046875,0)" xlink:href="#aE"/><use transform="matrix(0.0087890625,0,0,0.0087890625,86.4140625,0)" xlink:href="#aJ"/><use transform="matrix(0.0087890625,0,0,0.0087890625,97.2158203125,0)" xlink:href="#aK"/></g><path fill="#0c7cba" d="M114 20l821-1504h178L296 20H114" id="aL"/><use transform="matrix(0.0087890625,0,0,0.0087890625,0,0)" xlink:href="#aL" id="i"/><path d="M604-135c236 0 291-142 291-376v-838h190v859c5 340-142 510-480 510-326 0-463-164-463-492v-877h191v851c-3 222 46 363 271 363" id="aM"/><path d="M682 16c-209 0-323-80-324-285v-671H190v-142h170l58-282h120v282h432v142H538v652c2 114 60 155 182 155 106 0 209-16 297-34v137C921-4 806 16 682 16" id="aN"/><path d="M1034 0L896-382H333L196 0H0l510-1349h217L1228 0h-194zM847-531c-77-225-157-447-231-674-69 231-154 451-232 674h463" id="aO"/><path d="M353-779c69-51 166-92 291-90 218 3 357 100 423 255 21 52 32 109 32 170 0 305-189 464-500 464-268 0-424-116-471-335l182-21c35 130 124 212 293 209 198-4 309-114 309-313 0-182-118-282-305-282-120 0-198 45-262 101H169l47-728h801v145H382" id="aP"/><path d="M1018 0H814c-67-224-138-444-200-673C552-442 476-224 407 0H204L21-1082h178c43 310 105 601 126 933 54-225 128-425 193-638h193c63 212 134 415 185 638 22-336 90-622 136-933h176" id="aQ"/><path d="M385-1193v494h676v158H385V0H194v-1349h891v156H385" id="aR"/><g id="k"><use transform="matrix(0.0087890625,0,0,0.0087890625,0,0)" xlink:href="#ao"/><use transform="matrix(0.0087890625,0,0,0.0087890625,10.8017578125,0)" xlink:href="#ap"/><use transform="matrix(0.0087890625,0,0,0.0087890625,21.603515625,0)" xlink:href="#aM"/><use transform="matrix(0.0087890625,0,0,0.0087890625,32.4052734375,0)" xlink:href="#aN"/><use transform="matrix(0.0087890625,0,0,0.0087890625,43.20703125,0)" xlink:href="#aO"/><use transform="matrix(0.0087890625,0,0,0.0087890625,54.0087890625,0)" xlink:href="#aP"/><use transform="matrix(0.0087890625,0,0,0.0087890625,64.810546875,0)" xlink:href="#aQ"/><use transform="matrix(0.0087890625,0,0,0.0087890625,75.6123046875,0)" xlink:href="#aR"/></g><path fill="#0c7cba" d="M698-1104c312 3 392 244 392 558 0 315-82 566-392 566-169 0-277-65-331-184h-5c8 188 2 394 4 589H185V-858c0-76-1-156-6-224h175c6 52 9 120 10 178h4c58-122 150-202 330-200zm-49 991c225 0 255-203 255-433 0-225-32-419-253-419-236 0-285 192-285 441 0 237 53 411 283 411" id="aS"/><path fill="#0c7cba" d="M648-963c-190 6-283 138-283 336V0H185v-1484h181c-2 197 6 404-9 587h3c62-120 159-205 339-205 242 0 351 135 350 381V0H868v-695c1-168-57-273-220-268" id="aT"/><path fill="#0c7cba" d="M873-819c-18-114-119-146-250-146-163 0-245 50-245 151 0 151 170 148 294 185 182 54 388 94 388 320 0 240-189 325-439 329-245 4-410-69-454-268l159-31c24 133 136 168 295 165 144-2 270-31 270-171 0-164-195-160-331-202-167-52-350-87-350-299 0-218 173-315 413-313 220 2 373 77 412 260" id="aU"/><g id="l"><use transform="matrix(0.0087890625,0,0,0.0087890625,0,0)" xlink:href="#aC"/><use transform="matrix(0.0087890625,0,0,0.0087890625,10.8017578125,0)" xlink:href="#aD"/><use transform="matrix(0.0087890625,0,0,0.0087890625,21.603515625,0)" xlink:href="#aE"/><use transform="matrix(0.0087890625,0,0,0.0087890625,32.4052734375,0)" xlink:href="#aF"/><use transform="matrix(0.0087890625,0,0,0.0087890625,43.20703125,0)" xlink:href="#aG"/><use transform="matrix(0.0087890625,0,0,0.0087890625,54.0087890625,0)" xlink:href="#aH"/><use transform="matrix(0.0087890625,0,0,0.0087890625,64.810546875,0)" xlink:href="#aI"/><use transform="matrix(0.0087890625,0,0,0.0087890625,75.6123046875,0)" xlink:href="#aE"/><use transform="matrix(0.0087890625,0,0,0.0087890625,86.4140625,0)" xlink:href="#aJ"/><use transform="matrix(0.0087890625,0,0,0.0087890625,97.2158203125,0)" xlink:href="#aK"/><use transform="matrix(0.0087890625,0,0,0.0087890625,108.017578125,0)" xlink:href="#aL"/><use transform="matrix(0.0087890625,0,0,0.0087890625,118.8193359375,0)" xlink:href="#aS"/><use transform="matrix(0.0087890625,0,0,0.0087890625,129.62109375,0)" xlink:href="#aT"/><use transform="matrix(0.0087890625,0,0,0.0087890625,140.4228515625,0)" xlink:href="#aI"/><use transform="matrix(0.0087890625,0,0,0.0087890625,151.224609375,0)" xlink:href="#aH"/><use transform="matrix(0.0087890625,0,0,0.0087890625,162.0263671875,0)" xlink:href="#aI"/><use transform="matrix(0.0087890625,0,0,0.0087890625,172.828125,0)" xlink:href="#aU"/></g><path fill="#19967d" d="M839-1335c-182-6-269 67-259 253h491v142H580V0H400v-940H138v-142h262c-15-293 132-408 418-402 94 2 200 7 281 21v145c-75-10-177-14-260-17" id="aV"/><path fill="#19967d" d="M745-142h380V0H143v-142h422v-798H246v-142h499v940zM545-1292v-192h200v192H545" id="aW"/><path fill="#19967d" d="M736-142h380V0H134v-142h422v-1200H267v-142h469v1342" id="aX"/><path fill="#19967d" d="M617-1102c355 0 481 238 477 599H322c5 222 84 388 301 388 144 0 244-59 284-166l158 45C1002-72 854 20 623 20c-342 0-490-220-490-568 0-346 151-554 484-554zm291 461c-18-192-90-328-289-328-194 0-287 128-295 328h584" id="aY"/><path fill="#19967d" d="M496 0v-299h235V0H496zm0-783v-299h235v299H496" id="aZ"/><g id="m"><use transform="matrix(0.0087890625,0,0,0.0087890625,0,0)" xlink:href="#aV"/><use transform="matrix(0.0087890625,0,0,0.0087890625,10.8017578125,0)" xlink:href="#aW"/><use transform="matrix(0.0087890625,0,0,0.0087890625,21.603515625,0)" xlink:href="#aX"/><use transform="matrix(0.0087890625,0,0,0.0087890625,32.4052734375,0)" xlink:href="#aY"/><use transform="matrix(0.0087890625,0,0,0.0087890625,43.20703125,0)" xlink:href="#aZ"/></g><path fill="#19967d" d="M904-1102c199 0 220 177 220 381V0H956v-686c-3-114 0-215-60-264-70-33-125-4-158 71-26 56-39 140-39 252V0H531v-686c-3-114-1-215-61-264-78-41-136 24-157 84-24 69-39 159-39 259V0H105c-3-360 6-732-6-1082h149c6 50 3 123 8 175 36-100 83-195 216-195 135 0 166 79 196 196 42-105 93-196 236-196" id="ba"/><path fill="#19967d" d="M496 0v-299h235V0H496" id="bb"/><path fill="#19967d" d="M698-1104c312 3 392 244 392 558 0 315-82 566-392 566-169 0-277-65-331-184h-5c8 188 2 394 4 589H185V-858c0-76-1-156-6-224h175c6 52 9 120 10 178h4c58-122 150-202 330-200zm-49 991c225 0 255-203 255-433 0-225-32-419-253-419-236 0-285 192-285 441 0 237 53 411 283 411" id="bc"/><path fill="#19967d" d="M706-1102c241 0 344 136 343 381V0H868v-695c1-168-57-273-220-268-190 6-283 138-283 336V0H185c-3-360 6-732-6-1082h170c4 54 7 126 8 185h3c63-121 164-204 346-205" id="bd"/><path fill="#19967d" d="M1048-32c-2 300-135 456-433 456-222-1-358-88-400-267l184-25c22 99 100 157 222 156 184-2 248-125 248-315 0-64 3-133-2-194C807-100 706-13 524-12c-306 0-381-228-381-537 0-318 85-550 400-550 164 0 271 83 325 202h3c1-60 3-134 12-185h171c-13 339-4 702-6 1050zM585-145c210-8 284-178 284-406 0-192-52-331-177-392-33-16-69-22-104-22-223 2-259 184-259 414 0 229 31 415 256 406" id="be"/><g id="n"><use transform="matrix(0.0087890625,0,0,0.0087890625,0,0)" xlink:href="#ba"/><use transform="matrix(0.0087890625,0,0,0.0087890625,10.8017578125,0)" xlink:href="#aY"/><use transform="matrix(0.0087890625,0,0,0.0087890625,21.603515625,0)" xlink:href="#bb"/><use transform="matrix(0.0087890625,0,0,0.0087890625,32.4052734375,0)" xlink:href="#bc"/><use transform="matrix(0.0087890625,0,0,0.0087890625,43.20703125,0)" xlink:href="#bd"/><use transform="matrix(0.0087890625,0,0,0.0087890625,54.0087890625,0)" xlink:href="#be"/></g><path d="M875 0v-623H353V0H162v-1349h191v566h522v-566h191V0H875" id="bf"/><path d="M650-1214c-281 0-336 244-336 533 0 295 60 546 347 546 188 0 263-142 322-282l159 65C1058-155 935 20 659 20c-401 0-546-295-546-701 0-407 135-689 536-689 264 0 391 146 466 335l-168 65c-47-129-127-244-297-244" id="bg"/><path d="M698-1104c312 3 392 244 392 558 0 315-82 566-392 566-169 0-277-65-331-184h-5c8 188 2 394 4 589H185V-858c0-76-1-156-6-224h175c6 52 9 120 10 178h4c58-122 150-202 330-200zm-49 991c225 0 255-203 255-433 0-225-32-419-253-419-236 0-285 192-285 441 0 237 53 411 283 411" id="bh"/><path d="M530 26c-303-6-392-228-392-558 0-187 33-329 98-424s162-142 293-142c178 0 273 69 334 184 1-56 3-122 12-169h175c-6 88-6 180-6 282V425H863c1-202-4-411 4-607h-2C805-59 713 29 530 26zm47-139c234 0 286-193 286-441 0-238-55-411-284-411-223 0-255 198-255 427 0 227 33 425 253 425" id="bi"/><g id="o"><use transform="matrix(0.0087890625,0,0,0.0087890625,0,0)" xlink:href="#ao"/><use transform="matrix(0.0087890625,0,0,0.0087890625,10.8017578125,0)" xlink:href="#ap"/><use transform="matrix(0.0087890625,0,0,0.0087890625,21.603515625,0)" xlink:href="#bf"/><use transform="matrix(0.0087890625,0,0,0.0087890625,32.4052734375,0)" xlink:href="#bg"/><use transform="matrix(0.0087890625,0,0,0.0087890625,43.20703125,0)" xlink:href="#aq"/><use transform="matrix(0.0087890625,0,0,0.0087890625,54.0087890625,0)" xlink:href="#aM"/><use transform="matrix(0.0087890625,0,0,0.0087890625,64.810546875,0)" xlink:href="#bh"/><use transform="matrix(0.0087890625,0,0,0.0087890625,75.6123046875,0)" xlink:href="#bi"/></g><path d="M912-211c-10-84-18-177-18-274v-864h172V0H836L316-1130c7 79 16 167 16 254V0H162v-1349h222" id="bj"/><path d="M708-584V0H520v-584L36-1349h205l374 611 372-611h205" id="bk"/><path d="M148-1120c216-7 379-89 463-229h166v1204h353V0H157v-145h439v-1021c-79 124-254 184-448 194v-148" id="bl"/><g id="p"><use transform="matrix(0.0087890625,0,0,0.0087890625,0,0)" xlink:href="#ao"/><use transform="matrix(0.0087890625,0,0,0.0087890625,10.8017578125,0)" xlink:href="#ap"/><use transform="matrix(0.0087890625,0,0,0.0087890625,21.603515625,0)" xlink:href="#bj"/><use transform="matrix(0.0087890625,0,0,0.0087890625,32.4052734375,0)" xlink:href="#bk"/><use transform="matrix(0.0087890625,0,0,0.0087890625,43.20703125,0)" xlink:href="#bh"/><use transform="matrix(0.0087890625,0,0,0.0087890625,54.0087890625,0)" xlink:href="#au"/><use transform="matrix(0.0087890625,0,0,0.0087890625,64.810546875,0)" xlink:href="#bl"/><use transform="matrix(0.0087890625,0,0,0.0087890625,75.6123046875,0)" xlink:href="#bl"/></g><path fill="#19967d" d="M631 20c-350 0-501-215-501-562 0-355 162-560 502-560 250 0 399 118 446 323l-192 14c-23-124-109-196-262-196-242 0-305 171-305 415 1 245 61 427 304 427 151 0 248-77 267-215l190 12C1039-107 883 20 631 20" id="bm"/><path fill="#19967d" d="M1000-272c3 95 12 159 101 161 21 0 41-3 59-7V-6c-44 10-86 16-139 16-141 2-191-84-197-217h-6C748-76 648 20 446 20c-207 0-318-120-318-322 0-266 194-348 454-354l236-4c12-191-40-305-222-305-140 0-220 47-232 172l-188-17c33-204 181-292 423-292 255 0 401 118 401 364v466zm-683-27c0 109 63 184 175 182 166-3 259-96 306-217 24-65 20-120 20-200-232 7-501-28-501 235" id="bn"/><path fill="#19967d" d="M682 16c-209 0-323-80-324-285v-671H190v-142h170l58-282h120v282h432v142H538v652c2 114 60 155 182 155 106 0 209-16 297-34v137C921-4 806 16 682 16" id="bo"/><g id="q"><use transform="matrix(0.0087890625,0,0,0.0087890625,0,0)" xlink:href="#bm"/><use transform="matrix(0.0087890625,0,0,0.0087890625,10.8017578125,0)" xlink:href="#bn"/><use transform="matrix(0.0087890625,0,0,0.0087890625,21.603515625,0)" xlink:href="#bo"/><use transform="matrix(0.0087890625,0,0,0.0087890625,32.4052734375,0)" xlink:href="#bb"/><use transform="matrix(0.0087890625,0,0,0.0087890625,43.20703125,0)" xlink:href="#bc"/><use transform="matrix(0.0087890625,0,0,0.0087890625,54.0087890625,0)" xlink:href="#bd"/><use transform="matrix(0.0087890625,0,0,0.0087890625,64.810546875,0)" xlink:href="#be"/></g><path d="M1155 0H73v-143l818-1050H146v-156h962v139L290-156h865V0" id="bp"/><path d="M1048-32c-2 300-135 456-433 456-222-1-358-88-400-267l184-25c22 99 100 157 222 156 184-2 248-125 248-315 0-64 3-133-2-194C807-100 706-13 524-12c-306 0-381-228-381-537 0-318 85-550 400-550 164 0 271 83 325 202h3c1-60 3-134 12-185h171c-13 339-4 702-6 1050zM585-145c210-8 284-178 284-406 0-192-52-331-177-392-33-16-69-22-104-22-223 2-259 184-259 414 0 229 31 415 256 406" id="bq"/><path d="M615-1102c343 0 484 203 482 560-1 347-147 562-488 562-336 0-475-219-479-562-4-349 156-560 485-560zm-8 989c240 0 301-180 301-429 0-245-55-427-290-427-236 0-299 181-299 427 0 243 61 429 288 429" id="br"/><path d="M237 0v-1349h191v1193h672V0H237" id="bs"/><path d="M914 0L548-499l-132 98V0H236v-1484h180v927l475-525h211L663-617 1125 0H914" id="bt"/><g id="r"><use transform="matrix(0.0087890625,0,0,0.0087890625,0,0)" xlink:href="#ao"/><use transform="matrix(0.0087890625,0,0,0.0087890625,10.8017578125,0)" xlink:href="#ap"/><use transform="matrix(0.0087890625,0,0,0.0087890625,21.603515625,0)" xlink:href="#bp"/><use transform="matrix(0.0087890625,0,0,0.0087890625,32.4052734375,0)" xlink:href="#bq"/><use transform="matrix(0.0087890625,0,0,0.0087890625,43.20703125,0)" xlink:href="#br"/><use transform="matrix(0.0087890625,0,0,0.0087890625,54.0087890625,0)" xlink:href="#bg"/><use transform="matrix(0.0087890625,0,0,0.0087890625,64.810546875,0)" xlink:href="#bs"/><use transform="matrix(0.0087890625,0,0,0.0087890625,75.6123046875,0)" xlink:href="#bt"/></g><path fill="#19967d" d="M365-904c58-129 161-200 334-200 130 0 228 46 293 138s98 233 98 420c0 189-34 331-102 425S824 20 698 20c-170 0-275-64-336-184 0 55-3 116-9 164H179c5-68 6-147 6-223v-1261h180c-2 193 4 394-4 580h4zm283 791c221 0 256-197 256-427 0-229-34-425-254-425-236 0-285 195-285 441 0 237 53 411 283 411" id="bu"/><path fill="#19967d" d="M914 0L548-499l-132 98V0H236v-1484h180v927l475-525h211L663-617 1125 0H914" id="bv"/><path fill="#19967d" d="M715 0H502L69-1082h202c94 253 197 500 285 758 19 57 36 126 52 183 96-335 234-626 350-941h201" id="bw"/><g id="s"><use transform="matrix(0.0087890625,0,0,0.0087890625,0,0)" xlink:href="#bu"/><use transform="matrix(0.0087890625,0,0,0.0087890625,10.8017578125,0)" xlink:href="#aW"/><use transform="matrix(0.0087890625,0,0,0.0087890625,21.603515625,0)" xlink:href="#be"/><use transform="matrix(0.0087890625,0,0,0.0087890625,32.4052734375,0)" xlink:href="#bb"/><use transform="matrix(0.0087890625,0,0,0.0087890625,43.20703125,0)" xlink:href="#ba"/><use transform="matrix(0.0087890625,0,0,0.0087890625,54.0087890625,0)" xlink:href="#bv"/><use transform="matrix(0.0087890625,0,0,0.0087890625,64.810546875,0)" xlink:href="#bw"/></g><path d="M1121-976c0 225-142 341-344 379L1177 0H957L591-575H353V0H162v-1349h482c281 3 477 100 477 373zM633-726c181-1 296-73 296-247 0-149-101-223-304-223H353v470h280" id="bx"/><path d="M1018 0H810c-67-251-137-496-194-756C558-495 487-250 419 0H211L0-1349h189c48 393 110 772 142 1181 58-262 128-512 197-763h175c69 251 139 500 197 763 37-402 92-789 139-1181h189" id="by"/><path d="M873-819c-18-114-119-146-250-146-163 0-245 50-245 151 0 151 170 148 294 185 182 54 388 94 388 320 0 240-189 325-439 329-245 4-410-69-454-268l159-31c24 133 136 168 295 165 144-2 270-31 270-171 0-164-195-160-331-202-167-52-350-87-350-299 0-218 173-315 413-313 220 2 373 77 412 260" id="bz"/><g id="u"><use transform="matrix(0.0087890625,0,0,0.0087890625,0,0)" xlink:href="#ao"/><use transform="matrix(0.0087890625,0,0,0.0087890625,10.8017578125,0)" xlink:href="#ap"/><use transform="matrix(0.0087890625,0,0,0.0087890625,21.603515625,0)" xlink:href="#bx"/><use transform="matrix(0.0087890625,0,0,0.0087890625,32.4052734375,0)" xlink:href="#aP"/><use transform="matrix(0.0087890625,0,0,0.0087890625,43.20703125,0)" xlink:href="#aO"/><use transform="matrix(0.0087890625,0,0,0.0087890625,54.0087890625,0)" xlink:href="#by"/><use transform="matrix(0.0087890625,0,0,0.0087890625,64.810546875,0)" xlink:href="#bz"/><use transform="matrix(0.0087890625,0,0,0.0087890625,75.6123046875,0)" xlink:href="#aA"/></g><path d="M614-836l333-513h205L717-705 1193 0H988L614-573 241 0H36l476-705-435-644h205" id="bA"/><path d="M745-142h380V0H143v-142h422v-798H246v-142h499v940zM545-1292v-192h200v192H545" id="bB"/><g id="v"><use transform="matrix(0.0087890625,0,0,0.0087890625,0,0)" xlink:href="#ao"/><use transform="matrix(0.0087890625,0,0,0.0087890625,10.8017578125,0)" xlink:href="#ap"/><use transform="matrix(0.0087890625,0,0,0.0087890625,21.603515625,0)" xlink:href="#bk"/><use transform="matrix(0.0087890625,0,0,0.0087890625,32.4052734375,0)" xlink:href="#bk"/><use transform="matrix(0.0087890625,0,0,0.0087890625,43.20703125,0)" xlink:href="#bs"/><use transform="matrix(0.0087890625,0,0,0.0087890625,54.0087890625,0)" xlink:href="#as"/><use transform="matrix(0.0087890625,0,0,0.0087890625,64.810546875,0)" xlink:href="#bA"/><use transform="matrix(0.0087890625,0,0,0.0087890625,75.6123046875,0)" xlink:href="#bB"/></g><path fill="#ef8d22" d="M865-914c-3-187-2-380-2-570h180v1261c0 76 1 155 6 223H877c-8-49-9-116-10-174h-5C801-44 708 26 530 26c-135 0-234-46-297-139s-95-232-95-419c0-377 131-566 392-566 176 0 271 63 335 184zm-286-51c-222 0-255 197-255 427 0 229 31 425 253 425 237 0 286-195 286-441 0-238-52-411-284-411" id="bC"/><path fill="#ef8d22" d="M1000-272c3 95 12 159 101 161 21 0 41-3 59-7V-6c-44 10-86 16-139 16-141 2-191-84-197-217h-6C748-76 648 20 446 20c-207 0-318-120-318-322 0-266 194-348 454-354l236-4c12-191-40-305-222-305-140 0-220 47-232 172l-188-17c33-204 181-292 423-292 255 0 401 118 401 364v466zm-683-27c0 109 63 184 175 182 166-3 259-96 306-217 24-65 20-120 20-200-232 7-501-28-501 235" id="bD"/><path fill="#ef8d22" d="M682 16c-209 0-323-80-324-285v-671H190v-142h170l58-282h120v282h432v142H538v652c2 114 60 155 182 155 106 0 209-16 297-34v137C921-4 806 16 682 16" id="bE"/><path fill="#ef8d22" d="M334-464v-160h560v160H334" id="bF"/><path fill="#ef8d22" d="M365-904c58-129 161-200 334-200 130 0 228 46 293 138s98 233 98 420c0 189-34 331-102 425S824 20 698 20c-170 0-275-64-336-184 0 55-3 116-9 164H179c5-68 6-147 6-223v-1261h180c-2 193 4 394-4 580h4zm283 791c221 0 256-197 256-427 0-229-34-425-254-425-236 0-285 195-285 441 0 237 53 411 283 411" id="bG"/><path fill="#ef8d22" d="M736-142h380V0H134v-142h422v-1200H267v-142h469v1342" id="bH"/><path fill="#ef8d22" d="M615-1102c343 0 484 203 482 560-1 347-147 562-488 562-336 0-475-219-479-562-4-349 156-560 485-560zm-8 989c240 0 301-180 301-429 0-245-55-427-290-427-236 0-299 181-299 427 0 243 61 429 288 429" id="bI"/><path fill="#ef8d22" d="M496 0v-299h235V0H496zm0-783v-299h235v299H496" id="bJ"/><g id="w"><use transform="matrix(0.0087890625,0,0,0.0087890625,0,0)" xlink:href="#bC"/><use transform="matrix(0.0087890625,0,0,0.0087890625,10.8017578125,0)" xlink:href="#bD"/><use transform="matrix(0.0087890625,0,0,0.0087890625,21.603515625,0)" xlink:href="#bE"/><use transform="matrix(0.0087890625,0,0,0.0087890625,32.4052734375,0)" xlink:href="#bD"/><use transform="matrix(0.0087890625,0,0,0.0087890625,43.20703125,0)" xlink:href="#bF"/><use transform="matrix(0.0087890625,0,0,0.0087890625,54.0087890625,0)" xlink:href="#bG"/><use transform="matrix(0.0087890625,0,0,0.0087890625,64.810546875,0)" xlink:href="#bH"/><use transform="matrix(0.0087890625,0,0,0.0087890625,75.6123046875,0)" xlink:href="#bI"/><use transform="matrix(0.0087890625,0,0,0.0087890625,86.4140625,0)" xlink:href="#bG"/><use transform="matrix(0.0087890625,0,0,0.0087890625,97.2158203125,0)" xlink:href="#bJ"/></g><path fill="#ef8d22" d="M930-833l-67 317h260v108H840L752 0H642l86-408H365L281 0H171l84-408H54v-108h225l67-317H105v-108h263l89-408h110l-88 408h363l88-408h110l-88 408h211v108H930zm-471 0l-69 317h362l67-317H459" id="bK"/><path fill="#ef8d22" d="M1060-1016c0 191-128 285-295 323v4c154 18 262 91 313 209 14 35 21 72 21 110 0 277-194 390-478 390-292 0-457-129-493-382l186-17c24 161 121 250 307 250 172 1 298-80 291-247-8-208-220-239-446-233v-156c217 9 409-34 409-232 0-152-102-225-264-225-159 0-264 88-278 233l-181-14c33-239 196-367 461-367 264 0 447 102 447 354" id="bL"/><g id="x"><use transform="matrix(0.0087890625,0,0,0.0087890625,0,0)" xlink:href="#bK"/><use transform="matrix(0.0087890625,0,0,0.0087890625,10.8017578125,0)" xlink:href="#bL"/></g><path fill="#ef8d22" d="M937-319V0H757v-319H103v-140l635-890h199v888h188v142H937zm-180-835L257-461h500v-693" id="bM"/><g id="z"><use transform="matrix(0.0087890625,0,0,0.0087890625,0,0)" xlink:href="#bK"/><use transform="matrix(0.0087890625,0,0,0.0087890625,10.8017578125,0)" xlink:href="#bM"/></g><path d="M390 276c167 0 266-82 266-251v-965H249v-142h587V28c-4 270-165 397-431 397-107 0-208-16-288-43V242c80 18 173 34 273 34zm246-1568v-192h200v192H636" id="bN"/><g id="A"><use transform="matrix(0.0087890625,0,0,0.0087890625,0,0)" xlink:href="#ao"/><use transform="matrix(0.0087890625,0,0,0.0087890625,10.8017578125,0)" xlink:href="#ap"/><use transform="matrix(0.0087890625,0,0,0.0087890625,21.603515625,0)" xlink:href="#bA"/><use transform="matrix(0.0087890625,0,0,0.0087890625,32.4052734375,0)" xlink:href="#bN"/><use transform="matrix(0.0087890625,0,0,0.0087890625,43.20703125,0)" xlink:href="#ax"/><use transform="matrix(0.0087890625,0,0,0.0087890625,54.0087890625,0)" xlink:href="#aQ"/><use transform="matrix(0.0087890625,0,0,0.0087890625,64.810546875,0)" xlink:href="#bz"/><use transform="matrix(0.0087890625,0,0,0.0087890625,75.6123046875,0)" xlink:href="#by"/></g><path fill="#ef8d22" d="M353-779c69-51 166-92 291-90 218 3 357 100 423 255 21 52 32 109 32 170 0 305-189 464-500 464-268 0-424-116-471-335l182-21c35 130 124 212 293 209 198-4 309-114 309-313 0-182-118-282-305-282-120 0-198 45-262 101H169l47-728h801v145H382" id="bO"/><g id="B"><use transform="matrix(0.0087890625,0,0,0.0087890625,0,0)" xlink:href="#bK"/><use transform="matrix(0.0087890625,0,0,0.0087890625,10.8017578125,0)" xlink:href="#bO"/></g><path d="M713 0H515L10-1349h201C345-955 498-579 615-168c116-411 269-787 402-1181h201" id="bP"/><path d="M622-1349c296 4 497 117 497 404 0 282-193 424-485 431H353V0H162v-1349h460zm-15 684c195-3 320-88 320-277 0-184-129-255-328-254H353v531h254" id="bQ"/><g id="C"><use transform="matrix(0.0087890625,0,0,0.0087890625,0,0)" xlink:href="#ao"/><use transform="matrix(0.0087890625,0,0,0.0087890625,10.8017578125,0)" xlink:href="#ap"/><use transform="matrix(0.0087890625,0,0,0.0087890625,21.603515625,0)" xlink:href="#bP"/><use transform="matrix(0.0087890625,0,0,0.0087890625,32.4052734375,0)" xlink:href="#aR"/><use transform="matrix(0.0087890625,0,0,0.0087890625,43.20703125,0)" xlink:href="#aR"/><use transform="matrix(0.0087890625,0,0,0.0087890625,54.0087890625,0)" xlink:href="#aP"/><use transform="matrix(0.0087890625,0,0,0.0087890625,64.810546875,0)" xlink:href="#bQ"/><use transform="matrix(0.0087890625,0,0,0.0087890625,75.6123046875,0)" xlink:href="#bN"/></g><path fill="#c92d39" d="M240 0l2-218c-23 76-54 145-80 218h-23L58-218 59 0H30v-248h44l77 211c21-75 51-140 76-211h43V0h-30" id="bR"/><path fill="#c92d39" d="M100-194c62-1 85 37 85 99 1 63-27 99-86 99S16-35 15-95c0-66 28-99 85-99zM99-20c44 1 53-31 53-75 0-43-8-75-51-75s-53 32-53 75 10 74 51 75" id="bS"/><path fill="#c92d39" d="M85-194c31 0 48 13 60 33l-1-100h32l1 261h-30c-2-10 0-23-3-31C134-8 116 4 85 4 32 4 16-35 15-94c0-66 23-100 70-100zm9 24c-40 0-46 34-46 75 0 40 6 74 45 74 42 0 51-32 51-76 0-42-9-74-50-73" id="bT"/><path fill="#c92d39" d="M24-231v-30h32v30H24zM24 0v-190h32V0H24" id="bU"/><path fill="#c92d39" d="M101-234c-31-9-42 10-38 44h38v23H63V0H32v-167H5v-23h27c-7-52 17-82 69-68v24" id="bV"/><path fill="#c92d39" d="M100-194c63 0 86 42 84 106H49c0 40 14 67 53 68 26 1 43-12 49-29l28 8c-11 28-37 45-77 45C44 4 14-33 15-96c1-61 26-98 85-98zm52 81c6-60-76-77-97-28-3 7-6 17-6 28h103" id="bW"/><g id="D"><use transform="matrix(0.05,0,0,0.05,0,0)" xlink:href="#bR"/><use transform="matrix(0.05,0,0,0.05,14.950000000000001,0)" xlink:href="#bS"/><use transform="matrix(0.05,0,0,0.05,24.950000000000003,0)" xlink:href="#bT"/><use transform="matrix(0.05,0,0,0.05,34.95,0)" xlink:href="#bU"/><use transform="matrix(0.05,0,0,0.05,38.900000000000006,0)" xlink:href="#bV"/><use transform="matrix(0.05,0,0,0.05,43.900000000000006,0)" xlink:href="#bU"/><use transform="matrix(0.05,0,0,0.05,47.85000000000001,0)" xlink:href="#bW"/><use transform="matrix(0.05,0,0,0.05,57.85,0)" xlink:href="#bT"/></g><path fill="#c92d39" d="M117-194c89-4 53 116 60 194h-32v-121c0-31-8-49-39-48C34-167 62-67 57 0H25l-1-190h30c1 10-1 24 2 32 11-22 29-35 61-36" id="bX"/><g id="E"><use transform="matrix(0.05,0,0,0.05,0,0)" xlink:href="#bU"/><use transform="matrix(0.05,0,0,0.05,3.95,0)" xlink:href="#bX"/></g><path fill="#c92d39" d="M212-179c-10-28-35-45-73-45-59 0-87 40-87 99 0 60 29 101 89 101 43 0 62-24 78-52l27 14C228-24 195 4 139 4 59 4 22-46 18-125c-6-104 99-153 187-111 19 9 31 26 39 46" id="bY"/><path fill="#c92d39" d="M210-169c-67 3-38 105-44 169h-31v-121c0-29-5-50-35-48C34-165 62-65 56 0H25l-1-190h30c1 10-1 24 2 32 10-44 99-50 107 0 11-21 27-35 58-36 85-2 47 119 55 194h-31v-121c0-29-5-49-35-48" id="bZ"/><path fill="#c92d39" d="M59-47c-2 24 18 29 38 22v24C64 9 27 4 27-40v-127H5v-23h24l9-43h21v43h35v23H59v120" id="ca"/><g id="F"><use transform="matrix(0.05,0,0,0.05,0,0)" xlink:href="#bY"/><use transform="matrix(0.05,0,0,0.05,12.950000000000001,0)" xlink:href="#bS"/><use transform="matrix(0.05,0,0,0.05,22.950000000000003,0)" xlink:href="#bZ"/><use transform="matrix(0.05,0,0,0.05,37.900000000000006,0)" xlink:href="#bZ"/><use transform="matrix(0.05,0,0,0.05,52.85,0)" xlink:href="#bU"/><use transform="matrix(0.05,0,0,0.05,56.80000000000001,0)" xlink:href="#ca"/></g><path fill="#c92d39" d="M158-156l-14 65h45v19h-49L124 0h-19l15-72H56L41 0H22l15-72H2v-19h39l14-65H11v-19h48l15-71h20l-16 71h64l16-71h19l-16 71h37v19h-40zm-83 0L61-91h63l14-65H75" id="cb"/><path fill="#c92d39" d="M101-251c82-7 93 87 43 132L82-64C71-53 59-42 53-27h129V0H18c2-99 128-94 128-182 0-28-16-43-45-43s-46 15-49 41l-32-3c6-41 34-60 81-64" id="cc"/><g id="G"><use transform="matrix(0.05,0,0,0.05,0,0)" xlink:href="#cb"/><use transform="matrix(0.05,0,0,0.05,10,0)" xlink:href="#cc"/></g><g id="H"><use transform="matrix(0.006510416666666667,0,0,0.006510416666666667,0,0)" xlink:href="#bQ"/><use transform="matrix(0.006510416666666667,0,0,0.006510416666666667,8.001302083333334,0)" xlink:href="#aB"/><use transform="matrix(0.006510416666666667,0,0,0.006510416666666667,16.002604166666668,0)" xlink:href="#az"/><use transform="matrix(0.006510416666666667,0,0,0.006510416666666667,24.00390625,0)" xlink:href="#at"/><use transform="matrix(0.006510416666666667,0,0,0.006510416666666667,32.005208333333336,0)" xlink:href="#as"/><use transform="matrix(0.006510416666666667,0,0,0.006510416666666667,40.00651041666667,0)" xlink:href="#aN"/></g><path d="M473-1349c438-1 655 221 652 661C1122-268 945-8 532 0H162v-1349h311zm42 1193c308-4 416-205 418-532 2-330-131-509-459-505H353v1037h162" id="cd"/><path d="M631 20c-350 0-501-215-501-562 0-355 162-560 502-560 250 0 399 118 446 323l-192 14c-23-124-109-196-262-196-242 0-305 171-305 415 1 245 61 427 304 427 151 0 248-77 267-215l190 12C1039-107 883 20 631 20" id="ce"/><path d="M168 279c222 39 310-114 368-290L66-1082h192c120 299 249 590 362 896 115-301 235-597 351-896h190L705 0c-65 164-130 320-275 396-67 36-177 35-262 18V279" id="cf"/><g id="I"><use transform="matrix(0.006510416666666667,0,0,0.006510416666666667,0,0)" xlink:href="#cd"/><use transform="matrix(0.006510416666666667,0,0,0.006510416666666667,8.001302083333334,0)" xlink:href="#bB"/><use transform="matrix(0.006510416666666667,0,0,0.006510416666666667,16.002604166666668,0)" xlink:href="#az"/><use transform="matrix(0.006510416666666667,0,0,0.006510416666666667,24.00390625,0)" xlink:href="#at"/><use transform="matrix(0.006510416666666667,0,0,0.006510416666666667,32.005208333333336,0)" xlink:href="#ce"/><use transform="matrix(0.006510416666666667,0,0,0.006510416666666667,40.00651041666667,0)" xlink:href="#aN"/><use transform="matrix(0.006510416666666667,0,0,0.006510416666666667,48.00781250000001,0)" xlink:href="#br"/><use transform="matrix(0.006510416666666667,0,0,0.006510416666666667,56.00911458333335,0)" xlink:href="#az"/><use transform="matrix(0.006510416666666667,0,0,0.006510416666666667,64.01041666666667,0)" xlink:href="#cf"/></g><g id="J"><use transform="matrix(0.006510416666666667,0,0,0.006510416666666667,0,0)" xlink:href="#at"/><use transform="matrix(0.006510416666666667,0,0,0.006510416666666667,8.001302083333334,0)" xlink:href="#as"/><use transform="matrix(0.006510416666666667,0,0,0.006510416666666667,16.002604166666668,0)" xlink:href="#aN"/><use transform="matrix(0.006510416666666667,0,0,0.006510416666666667,24.00390625,0)" xlink:href="#az"/><use transform="matrix(0.006510416666666667,0,0,0.006510416666666667,32.005208333333336,0)" xlink:href="#bB"/><use transform="matrix(0.006510416666666667,0,0,0.006510416666666667,40.00651041666667,0)" xlink:href="#at"/><use transform="matrix(0.006510416666666667,0,0,0.006510416666666667,48.00781250000001,0)" xlink:href="#bz"/></g><path d="M528 20c-247 0-343-132-343-381v-721h180v686c-4 177 45 284 224 277 194-8 279-136 279-336v-627h181c3 360-6 732 6 1082H885c-4-54-7-126-8-185h-3C809-64 714 20 528 20" id="cg"/><path d="M865-914c-3-187-2-380-2-570h180v1261c0 76 1 155 6 223H877c-8-49-9-116-10-174h-5C801-44 708 26 530 26c-135 0-234-46-297-139s-95-232-95-419c0-377 131-566 392-566 176 0 271 63 335 184zm-286-51c-222 0-255 197-255 427 0 229 31 425 253 425 237 0 286-195 286-441 0-238-52-411-284-411" id="ch"/><g id="K"><use transform="matrix(0.006510416666666667,0,0,0.006510416666666667,0,0)" xlink:href="#ax"/><use transform="matrix(0.006510416666666667,0,0,0.006510416666666667,8.001302083333334,0)" xlink:href="#cg"/><use transform="matrix(0.006510416666666667,0,0,0.006510416666666667,16.002604166666668,0)" xlink:href="#ay"/><use transform="matrix(0.006510416666666667,0,0,0.006510416666666667,24.00390625,0)" xlink:href="#ch"/><use transform="matrix(0.006510416666666667,0,0,0.006510416666666667,32.005208333333336,0)" xlink:href="#bB"/><use transform="matrix(0.006510416666666667,0,0,0.006510416666666667,40.00651041666667,0)" xlink:href="#az"/><use transform="matrix(0.006510416666666667,0,0,0.006510416666666667,48.00781250000001,0)" xlink:href="#at"/><use transform="matrix(0.006510416666666667,0,0,0.006510416666666667,56.00911458333335,0)" xlink:href="#ce"/><use transform="matrix(0.006510416666666667,0,0,0.006510416666666667,64.01041666666667,0)" xlink:href="#aN"/><use transform="matrix(0.006510416666666667,0,0,0.006510416666666667,72.01171875,0)" xlink:href="#br"/><use transform="matrix(0.006510416666666667,0,0,0.006510416666666667,80.01302083333333,0)" xlink:href="#az"/><use transform="matrix(0.006510416666666667,0,0,0.006510416666666667,88.01432291666666,0)" xlink:href="#cf"/></g><path d="M736-142h380V0H134v-142h422v-1200H267v-142h469v1342" id="ci"/><g id="L"><use transform="matrix(0.006510416666666667,0,0,0.006510416666666667,0,0)" xlink:href="#aR"/><use transform="matrix(0.006510416666666667,0,0,0.006510416666666667,8.001302083333334,0)" xlink:href="#bB"/><use transform="matrix(0.006510416666666667,0,0,0.006510416666666667,16.002604166666668,0)" xlink:href="#ci"/><use transform="matrix(0.006510416666666667,0,0,0.006510416666666667,24.00390625,0)" xlink:href="#at"/></g><path d="M802-711c201 25 350 118 350 331C1152-95 921 0 634 0H162v-1349c401 9 908-74 908 327 0 184-111 275-268 311zm-224-69c174-2 300-51 300-218 0-163-124-198-302-198H353v416h225zM353-153c281-2 612 44 606-244-5-271-329-233-606-234v478" id="cj"/><g id="M"><use transform="matrix(0.006510416666666667,0,0,0.006510416666666667,0,0)" xlink:href="#cj"/><use transform="matrix(0.006510416666666667,0,0,0.006510416666666667,8.001302083333334,0)" xlink:href="#ci"/><use transform="matrix(0.006510416666666667,0,0,0.006510416666666667,16.002604166666668,0)" xlink:href="#br"/><use transform="matrix(0.006510416666666667,0,0,0.006510416666666667,24.00390625,0)" xlink:href="#ce"/><use transform="matrix(0.006510416666666667,0,0,0.006510416666666667,32.005208333333336,0)" xlink:href="#bt"/><use transform="matrix(0.006510416666666667,0,0,0.006510416666666667,40.00651041666667,0)" xlink:href="#bz"/></g><path d="M891-1484c-201 251-362 514-362 954 0 441 161 704 362 955H701C500 176 342-90 342-532c0-440 159-704 359-952h190" id="ck"/><path d="M528-1484c201 248 357 511 357 952 0 442-156 709-357 957H336C537 174 700-89 700-530c0-440-163-703-364-954h192" id="cl"/><g id="N"><use transform="matrix(0.006510416666666667,0,0,0.006510416666666667,0,0)" xlink:href="#ck"/><use transform="matrix(0.006510416666666667,0,0,0.006510416666666667,8.001302083333334,0)" xlink:href="#cj"/><use transform="matrix(0.006510416666666667,0,0,0.006510416666666667,16.002604166666668,0)" xlink:href="#ci"/><use transform="matrix(0.006510416666666667,0,0,0.006510416666666667,24.00390625,0)" xlink:href="#br"/><use transform="matrix(0.006510416666666667,0,0,0.006510416666666667,32.005208333333336,0)" xlink:href="#ay"/><use transform="matrix(0.006510416666666667,0,0,0.006510416666666667,40.00651041666667,0)" xlink:href="#bz"/><use transform="matrix(0.006510416666666667,0,0,0.006510416666666667,48.00781250000001,0)" xlink:href="#cl"/></g><path d="M215-1177c-40-24-90-38-145-40v-43c100 2 208-4 303 3 25 18 32 47 47 81l398 902c135-316 265-635 403-949 10-22 15-36 43-37h286v43c-49 1-97 18-135 36l10 1077c0 8 13 18 37 30s60 22 108 31V0h-455v-43c45-9 82-20 111-31s44-21 44-30l-9-936L823 0h-49L329-1033l-9 929c0 8 12 18 36 30s61 22 109 31V0H60v-43c46-9 82-20 107-31s38-21 38-30" id="cm"/><path d="M702-616c0-134-64-239-206-239-165 0-232 127-260 275h428c31-1 38-6 38-36zm158 421C745-83 676 34 465 30 275 26 169-94 112-242c-53-136-32-337 26-447 68-129 169-238 330-265 260-43 390 140 398 397-25 28-71 51-110 67H230c4 167 66 294 174 358 36 21 77 32 122 32 145-2 206-68 297-136 15 7 29 29 37 41" id="cn"/><path d="M55-880c84-23 173-41 240-80l35 35 13 227c49-98 107-192 201-242 70-37 169-17 226 17 24 78-21 183-43 247h-43c-6-91-72-186-162-126-91 61-140 179-177 306v392c0 10 12 20 37 31s69 21 132 30V0H55v-43c44-10 78-19 103-29s37-21 37-32c-1-212-2-429-2-638 0-85-55-98-138-98v-40" id="co"/><path d="M1024-18C930 0 787 36 725-43L345-522v418c3 28 26 30 51 41 14 6 34 12 59 20V0H55v-43c44-11 78-21 103-30s37-19 37-31v-1192c1-74-7-117-69-125-18-3-42-6-71-9v-40c89-19 185-40 253-80l37 34v986l308-269c22-19 35-35 40-47 14-44-42-38-83-41v-43h379v43c-72 10-110 21-160 62L488-552l376 441c31 39 80 57 154 50" id="cp"/><path d="M70-1470c101-21 173-37 254-80l36 34v1412c0 10 11 20 34 31s61 21 116 30V0H60v-43c58-11 108-17 142-45 6-5 8-11 8-16v-1192c1-74-10-115-71-124-18-3-41-7-69-10v-40" id="cq"/><path d="M953-637c0-380-192-600-598-566v1049c2 43 22 54 64 62 81 16 187 12 261-26 167-87 273-261 273-519zM41-1230c204-49 518-97 728-18 221 83 354 271 354 572 0 362-159 580-441 660C639-4 598 0 559 0H50v-43c45-9 80-20 106-31s39-21 39-30v-1084c-50 6-98 13-145 20" id="cr"/><path d="M758-535l-176-514-171 514h347zm-377 90L270-111c-7 21 2 36 27 45s64 17 119 23V0H0v-43c72-17 140-14 158-68l372-1126c26-31 81-60 117-80l420 1206c17 49 70 59 131 68V0H776v-43c52-3 88-10 108-20s26-26 19-48L789-445H381" id="cs"/><path d="M1040-154C915-59 820 30 618 30c-260 0-417-147-500-342-67-156-61-411 4-568 99-239 294-410 615-410 125 0 227 47 305 102-3 49-68 84-96 117l-33-6c-72-72-173-117-315-103-200 19-302 174-352 358-34 126-26 317 16 427C325-227 436-99 645-90c99 4 181-21 245-56v-339c-11-43-59-48-106-62-26-8-59-13-100-20v-43h461v43c-58 15-105 32-105 82v331" id="ct"/><path d="M61-479c7-29 20-66 31-91h512l25 24c-7 27-20 69-31 91H86" id="cu"/><path d="M514-602c-55 5-111 1-159-9v507c0 8 12 18 36 30s60 22 109 31V0H50v-43c45-9 80-20 106-31s39-21 39-30v-1085c-47 7-97 15-145 21l-9-62c217-63 597-103 773 27 65 48 113 115 113 216 0 208-122 309-282 362l303 486c31 53 95 70 180 59l11 43c-69 22-148 49-224 51-41 1-82-28-98-55zm258-354c-4-212-191-262-417-247v512c228 33 422-47 417-265" id="cv"/><path d="M621-100c178 0 249-140 249-326 0-169-55-307-154-378-113-81-221 20-285 86-28 29-57 65-86 108v397c80 57 151 113 276 113zM55-880c89-19 167-45 240-80l35 35 9 198c79-93 166-176 283-219 127-47 238 29 294 110 71 103 116 296 74 463C948-205 861-59 719 8 577 76 437-21 345-98v473c0 11 12 21 37 32s69 21 132 30v43H55v-43c44-11 78-21 103-31s37-20 37-31V-711c2-68-10-110-65-121-18-4-43-7-75-8v-40" id="cw"/><path d="M244-229c1 78 37 129 108 129 118 0 190-59 271-127v-259c-164 29-303 49-363 176-11 23-16 50-16 81zm569 129c39-3 57-10 98-27l15 45C843-27 790 30 702 30c-22 0-40-15-55-46s-23-73-24-127C535-60 444 30 293 30 162 30 80-49 80-186c0-134 64-205 144-260 102-70 238-90 399-115v-141c0-108-55-164-168-158-89 5-163 44-163 136-28 38-109 56-170 57l-14-39c57-113 176-191 306-233 45-14 88-21 130-21 142-2 229 79 229 218v564c0 44 7 73 40 78zM580-1220c0-77 41-136 115-136 57 0 85 32 85 95 0 77-41 133-116 137-61 3-84-36-84-96zm-400 0c0-77 41-136 115-136 57 0 85 32 85 95 0 77-41 133-116 137-61 3-84-36-84-96" id="cx"/><path d="M476-842c-113-77-312 26-223 150 100 139 343 151 425 312 15 28 22 60 22 97C696-70 560 30 356 30c-91 0-181-34-250-73-23-59-6-180 7-240l43 11C172-142 267-70 406-70c100 0 164-57 164-157 0-138-150-165-248-222-99-58-218-104-218-251 0-171 126-260 297-260 104 0 202 29 263 77 8 53-30 112-50 150l-39-8c-32-48-67-79-99-101" id="cy"/><path d="M650-940c160-62 310 29 310 199v637c0 9 10 19 30 28s57 20 110 33V0H670v-43c48-13 83-24 106-33s34-19 34-28v-529c0-115-12-206-128-197-113 9-175 79-242 150-33 35-63 79-95 131v445c0 10 12 20 37 31s60 21 103 30V0H55v-43c44-11 78-22 103-31s37-19 37-30c-2-222 10-452-3-669-4-63-69-56-137-67v-40c94-15 166-44 240-80l35 35 11 249c76-114 178-213 309-264" id="cz"/><path d="M428-100c87 0 139-28 219-68l29 51C580-51 484 30 344 30 211 30 170-79 170-221v-614H41l-21-28 78-67h72v-246l119-104 31 25v325h327l29 29c-27 38-61 78-101 101-58-29-154-39-255-35v528c2 109 2 207 108 207" id="cA"/><path d="M244-229c1 78 37 129 108 129 118 0 190-59 271-127v-259c-164 29-303 49-363 176-11 23-16 50-16 81zm569 129c39-3 57-10 98-27l15 45C843-27 790 30 702 30c-22 0-40-15-55-46s-23-73-24-127C535-60 444 30 293 30 162 30 80-49 80-186c0-134 64-205 144-260 102-70 238-90 399-115v-141c0-108-55-164-168-158-89 5-163 44-163 136-28 38-109 56-170 57l-14-39c57-113 176-191 306-233 45-14 88-21 130-21 142-2 229 79 229 218v564c0 44 7 73 40 78" id="cB"/><path d="M70-880c91-18 181-45 256-80h34v856c0 8 12 18 34 30s57 22 106 31V0H70v-43c45-9 80-20 104-31s36-21 36-30c-1-215 4-437-2-648-2-76-60-79-138-88v-40zm120-340c0-77 41-136 115-136 57 0 85 32 85 95 0 77-41 133-116 137-61 3-84-36-84-96" id="cC"/><path d="M524-80c208-5 271-163 271-375 0-169-81-295-186-363-34-22-69-32-103-32-210 4-271 165-271 377 0 169 87 292 192 361 33 22 66 32 97 32zm182-844c181 81 290 312 227 570C890-178 778-47 614 10 446 69 274-10 194-105 108-206 49-397 96-574c47-176 153-307 318-366 94-34 208-22 292 16" id="cD"/><g id="O"><use transform="matrix(0.008680555555555556,0,0,0.008680555555555556,0,0)" xlink:href="#cm"/><use transform="matrix(0.008680555555555556,0,0,0.008680555555555556,14.331597222222223,0)" xlink:href="#cn"/><use transform="matrix(0.008680555555555556,0,0,0.008680555555555556,22.54340277777778,0)" xlink:href="#co"/><use transform="matrix(0.008680555555555556,0,0,0.008680555555555556,29.583333333333336,0)" xlink:href="#cp"/><use transform="matrix(0.008680555555555556,0,0,0.008680555555555556,38.47222222222223,0)" xlink:href="#cq"/><use transform="matrix(0.008680555555555556,0,0,0.008680555555555556,43.289930555555564,0)" xlink:href="#cn"/><use transform="matrix(0.008680555555555556,0,0,0.008680555555555556,51.50173611111112,0)" xlink:href="#cr"/><use transform="matrix(0.008680555555555556,0,0,0.008680555555555556,62.039930555555564,0)" xlink:href="#cs"/><use transform="matrix(0.008680555555555556,0,0,0.008680555555555556,72.62152777777779,0)" xlink:href="#ct"/><use transform="matrix(0.008680555555555556,0,0,0.008680555555555556,82.98611111111111,0)" xlink:href="#cu"/><use transform="matrix(0.008680555555555556,0,0,0.008680555555555556,88.97569444444444,0)" xlink:href="#cv"/><use transform="matrix(0.008680555555555556,0,0,0.008680555555555556,98.94965277777777,0)" xlink:href="#cn"/><use transform="matrix(0.008680555555555556,0,0,0.008680555555555556,107.16145833333333,0)" xlink:href="#cw"/><use transform="matrix(0.008680555555555556,0,0,0.008680555555555556,116.57986111111111,0)" xlink:href="#co"/><use transform="matrix(0.008680555555555556,0,0,0.008680555555555556,123.61979166666667,0)" xlink:href="#cx"/><use transform="matrix(0.008680555555555556,0,0,0.008680555555555556,131.77951388888889,0)" xlink:href="#cy"/><use transform="matrix(0.008680555555555556,0,0,0.008680555555555556,138.64583333333334,0)" xlink:href="#cn"/><use transform="matrix(0.008680555555555556,0,0,0.008680555555555556,146.85763888888889,0)" xlink:href="#cz"/><use transform="matrix(0.008680555555555556,0,0,0.008680555555555556,156.66666666666663,0)" xlink:href="#cA"/><use transform="matrix(0.008680555555555556,0,0,0.008680555555555556,162.78645833333331,0)" xlink:href="#cB"/><use transform="matrix(0.008680555555555556,0,0,0.008680555555555556,170.94618055555554,0)" xlink:href="#cA"/><use transform="matrix(0.008680555555555556,0,0,0.008680555555555556,177.0659722222222,0)" xlink:href="#cC"/><use transform="matrix(0.008680555555555556,0,0,0.008680555555555556,181.88368055555554,0)" xlink:href="#cD"/><use transform="matrix(0.008680555555555556,0,0,0.008680555555555556,190.8246527777778,0)" xlink:href="#cz"/></g><g id="P"><use transform="matrix(0.008680555555555556,0,0,0.008680555555555556,0,0)" xlink:href="#cn"/><use transform="matrix(0.008680555555555556,0,0,0.008680555555555556,8.211805555555555,0)" xlink:href="#cC"/><use transform="matrix(0.008680555555555556,0,0,0.008680555555555556,13.02951388888889,0)" xlink:href="#cz"/><use transform="matrix(0.008680555555555556,0,0,0.008680555555555556,22.838541666666668,0)" xlink:href="#cn"/><use transform="matrix(0.008680555555555556,0,0,0.008680555555555556,31.050347222222218,0)" xlink:href="#cy"/></g><path d="M989-887c-52 13-92 20-110 68L596-59c-22 51-77 75-135 89L131-819c-17-46-54-54-111-68v-43h386v43c-42 6-74 10-102 23-18 10-19 23-11 45l246 641 231-641c16-61-51-55-104-68v-43h323v43" id="cE"/><g id="Q"><use transform="matrix(0.008680555555555556,0,0,0.008680555555555556,0,0)" xlink:href="#cE"/><use transform="matrix(0.008680555555555556,0,0,0.008680555555555556,8.76736111111111,0)" xlink:href="#cn"/><use transform="matrix(0.008680555555555556,0,0,0.008680555555555556,16.979166666666664,0)" xlink:href="#co"/><use transform="matrix(0.008680555555555556,0,0,0.008680555555555556,24.019097222222225,0)" xlink:href="#cy"/><use transform="matrix(0.008680555555555556,0,0,0.008680555555555556,30.885416666666664,0)" xlink:href="#cC"/><use transform="matrix(0.008680555555555556,0,0,0.008680555555555556,35.703125,0)" xlink:href="#cD"/><use transform="matrix(0.008680555555555556,0,0,0.008680555555555556,44.64409722222222,0)" xlink:href="#cz"/><use transform="matrix(0.008680555555555556,0,0,0.008680555555555556,54.453125,0)" xlink:href="#cC"/><use transform="matrix(0.008680555555555556,0,0,0.008680555555555556,59.270833333333336,0)" xlink:href="#cn"/><use transform="matrix(0.008680555555555556,0,0,0.008680555555555556,67.48263888888889,0)" xlink:href="#co"/><use transform="matrix(0.008680555555555556,0,0,0.008680555555555556,74.52256944444444,0)" xlink:href="#cA"/><use transform="matrix(0.008680555555555556,0,0,0.008680555555555556,80.64236111111111,0)" xlink:href="#cn"/><use transform="matrix(0.008680555555555556,0,0,0.008680555555555556,88.85416666666667,0)" xlink:href="#cz"/></g><path d="M1290-1217c-71 18-137 13-155 66L752-59c-22 54-89 74-150 89L162-1151c-22-45-74-56-142-66v-43h435v43c-53 4-89 11-109 21s-26 24-19 43l353 950 336-948c7-19 0-34-24-43s-63-16-118-23v-43h416v43" id="cF"/><path d="M137-946c38 11 72 16 120 16h548l22 43L270-90h422c17 0 32-12 46-38s29-69 44-130l47 10c-1 83-3 175-12 248H102L76-45l555-795H285c-81 7-97 76-117 150l-49-12" id="cG"/><path d="M537-100c135-1 177-67 264-131l39 41C769-107 717-50 634-4c-84 47-221 46-312 2C175-75 80-225 80-444c0-244 136-395 309-476 134-63 354-48 436 39-1 63-33 121-57 164l-37-10c-42-97-207-161-333-99-111 55-168 180-168 351 0 172 77 291 192 349 37 18 75 26 115 26" id="cH"/><path d="M650-941c160-61 310 30 310 200v637c0 9 10 19 30 28s57 20 110 33V0H670v-43c48-13 83-24 106-33s34-19 34-28v-529c0-115-15-205-128-197-117 8-182 84-249 158-31 34-59 76-88 123v445c0 10 12 20 37 31s60 21 103 30V0H55v-43c44-11 78-22 103-31s37-19 37-30v-1194c1-71-4-110-64-120-19-4-44-8-76-12v-40c97-18 178-41 253-80l37 34v832c76-110 177-208 305-257" id="cI"/><g id="R"><use transform="matrix(0.008680555555555556,0,0,0.008680555555555556,0,0)" xlink:href="#cF"/><use transform="matrix(0.008680555555555556,0,0,0.008680555555555556,11.553819444444445,0)" xlink:href="#cn"/><use transform="matrix(0.008680555555555556,0,0,0.008680555555555556,19.765625,0)" xlink:href="#co"/><use transform="matrix(0.008680555555555556,0,0,0.008680555555555556,26.805555555555557,0)" xlink:href="#cG"/><use transform="matrix(0.008680555555555556,0,0,0.008680555555555556,34.661458333333336,0)" xlink:href="#cn"/><use transform="matrix(0.008680555555555556,0,0,0.008680555555555556,42.87326388888889,0)" xlink:href="#cC"/><use transform="matrix(0.008680555555555556,0,0,0.008680555555555556,47.690972222222236,0)" xlink:href="#cH"/><use transform="matrix(0.008680555555555556,0,0,0.008680555555555556,55.46006944444445,0)" xlink:href="#cI"/><use transform="matrix(0.008680555555555556,0,0,0.008680555555555556,65.26909722222223,0)" xlink:href="#cz"/><use transform="matrix(0.008680555555555556,0,0,0.008680555555555556,75.078125,0)" xlink:href="#cC"/><use transform="matrix(0.008680555555555556,0,0,0.008680555555555556,79.89583333333331,0)" xlink:href="#cy"/><use transform="matrix(0.008680555555555556,0,0,0.008680555555555556,86.76215277777777,0)" xlink:href="#cy"/><use transform="matrix(0.008680555555555556,0,0,0.008680555555555556,93.62847222222221,0)" xlink:href="#cn"/><use transform="matrix(0.008680555555555556,0,0,0.008680555555555556,101.84027777777777,0)" xlink:href="#cy"/></g><g id="S"><use transform="matrix(0.008680555555555556,0,0,0.008680555555555556,0,0)" xlink:href="#cE"/><use transform="matrix(0.008680555555555556,0,0,0.008680555555555556,8.76736111111111,0)" xlink:href="#cD"/><use transform="matrix(0.008680555555555556,0,0,0.008680555555555556,17.708333333333336,0)" xlink:href="#co"/></g><path d="M625-894c93-10 183-41 260-66l30 39c3 254-10 522 5 768 3 45 10 60 59 53 19-3 46-12 80-27l10 45C999-41 935 10 850 30c-23 0-42-15-57-46s-24-81-28-150C662-71 581 30 408 30 229 30 171-92 170-279c-1-167 6-345-3-507-4-64-60-59-126-68v-40c97-10 173-35 251-66l28 39v587c2 135 23 244 153 244 143 0 210-92 292-172-2-172 9-357-5-521-6-63-63-67-135-71v-40" id="cJ"/><path d="M600-1485c99-12 185-40 264-65l31 30c1 442-9 888 1 1326 1 47 0 102 56 94 17-3 46-12 86-27l13 43C976-39 923 30 829 30c-22 0-40-15-54-45s-23-81-28-154C662-73 586 30 416 30c-165 0-251-137-304-275-51-133-34-327 28-435 84-144 195-280 411-280 87 0 134 18 194 63-2-152 5-318-3-465-4-76-62-77-142-84v-39zM487-100c124 0 184-97 258-161v-469c-39-70-122-120-225-120-208 0-290 158-290 375 0 165 69 286 170 349 30 19 60 26 87 26" id="cK"/><g id="T"><use transform="matrix(0.008680555555555556,0,0,0.008680555555555556,0,0)" xlink:href="#cJ"/><use transform="matrix(0.008680555555555556,0,0,0.008680555555555556,9.418402777777779,0)" xlink:href="#cz"/><use transform="matrix(0.008680555555555556,0,0,0.008680555555555556,19.227430555555557,0)" xlink:href="#cK"/></g><g id="U"><use transform="matrix(0.008680555555555556,0,0,0.008680555555555556,0,0)" xlink:href="#cz"/><use transform="matrix(0.008680555555555556,0,0,0.008680555555555556,9.809027777777779,0)" xlink:href="#cB"/><use transform="matrix(0.008680555555555556,0,0,0.008680555555555556,17.96875,0)" xlink:href="#cH"/><use transform="matrix(0.008680555555555556,0,0,0.008680555555555556,25.737847222222225,0)" xlink:href="#cI"/></g><g id="V"><use transform="matrix(0.008680555555555556,0,0,0.008680555555555556,0,0)" xlink:href="#cn"/><use transform="matrix(0.008680555555555556,0,0,0.008680555555555556,8.211805555555555,0)" xlink:href="#cC"/><use transform="matrix(0.008680555555555556,0,0,0.008680555555555556,13.02951388888889,0)" xlink:href="#cz"/><use transform="matrix(0.008680555555555556,0,0,0.008680555555555556,22.838541666666668,0)" xlink:href="#cn"/><use transform="matrix(0.008680555555555556,0,0,0.008680555555555556,31.050347222222218,0)" xlink:href="#co"/></g><path d="M637-901c-26 37-60 77-98 101-49-23-102-36-189-35v733c20 27 66 28 110 40 26 7 60 12 99 19V0H60v-43c46-8 80-17 104-29s36-22 36-30v-733H66l-21-28 78-67h77c-4-206 28-357 123-458 76-80 165-162 306-162 70 0 128 40 170 71 45 34-12 63-31 82-20 20-53 42-78 54-47-38-97-74-170-82-101 14-128 103-153 206-17 68-18 189-17 289h258" id="cL"/><g id="W"><use transform="matrix(0.008680555555555556,0,0,0.008680555555555556,0,0)" xlink:href="#cm"/><use transform="matrix(0.008680555555555556,0,0,0.008680555555555556,14.331597222222223,0)" xlink:href="#cD"/><use transform="matrix(0.008680555555555556,0,0,0.008680555555555556,23.272569444444446,0)" xlink:href="#cK"/><use transform="matrix(0.008680555555555556,0,0,0.008680555555555556,32.517361111111114,0)" xlink:href="#cC"/><use transform="matrix(0.008680555555555556,0,0,0.008680555555555556,37.33506944444444,0)" xlink:href="#cL"/><use transform="matrix(0.008680555555555556,0,0,0.008680555555555556,42.86458333333334,0)" xlink:href="#cC"/><use transform="matrix(0.008680555555555556,0,0,0.008680555555555556,47.68229166666668,0)" xlink:href="#cp"/><use transform="matrix(0.008680555555555556,0,0,0.008680555555555556,56.57118055555557,0)" xlink:href="#cB"/><use transform="matrix(0.008680555555555556,0,0,0.008680555555555556,64.7309027777778,0)" xlink:href="#cA"/><use transform="matrix(0.008680555555555556,0,0,0.008680555555555556,70.85069444444447,0)" xlink:href="#cC"/><use transform="matrix(0.008680555555555556,0,0,0.008680555555555556,75.6684027777778,0)" xlink:href="#cD"/><use transform="matrix(0.008680555555555556,0,0,0.008680555555555556,84.60937500000003,0)" xlink:href="#cz"/></g><path d="M1253-960c142 3 222 76 222 219v637c0 9 10 19 31 28s57 20 110 33V0h-430v-43c48-13 84-24 106-33s33-19 33-28v-529c-3-110-5-214-113-207s-164 86-224 156c-27 32-53 70-78 111v469c0 9 10 19 31 28s57 20 110 33V0H621v-43c48-13 83-24 105-33s34-19 34-28v-529c-2-111-4-208-113-207-45 0-93 23-143 70S402-658 345-573v469c0 10 12 20 37 31s60 21 103 30V0H55v-43c44-11 78-22 103-31s37-19 37-30c-2-223 12-454-3-670-4-60-71-54-137-66v-40c94-15 168-44 240-80l35 35 11 229c73-105 152-197 269-248 28-12 54-16 78-16 159-1 228 90 222 256 70-102 150-191 264-240 28-12 54-16 79-16" id="cM"/><g id="X"><use transform="matrix(0.008680555555555556,0,0,0.008680555555555556,0,0)" xlink:href="#cC"/><use transform="matrix(0.008680555555555556,0,0,0.008680555555555556,4.817708333333334,0)" xlink:href="#cM"/></g><g id="Y"><use transform="matrix(0.008680555555555556,0,0,0.008680555555555556,0,0)" xlink:href="#cI"/><use transform="matrix(0.008680555555555556,0,0,0.008680555555555556,9.809027777777779,0)" xlink:href="#cC"/><use transform="matrix(0.008680555555555556,0,0,0.008680555555555556,14.626736111111112,0)" xlink:href="#cz"/><use transform="matrix(0.008680555555555556,0,0,0.008680555555555556,24.435763888888893,0)" xlink:href="#cA"/><use transform="matrix(0.008680555555555556,0,0,0.008680555555555556,30.55555555555556,0)" xlink:href="#cn"/><use transform="matrix(0.008680555555555556,0,0,0.008680555555555556,38.767361111111114,0)" xlink:href="#co"/><use transform="matrix(0.008680555555555556,0,0,0.008680555555555556,45.80729166666667,0)" xlink:href="#cn"/><use transform="matrix(0.008680555555555556,0,0,0.008680555555555556,54.01909722222222,0)" xlink:href="#cz"/></g><path d="M1083-1235c-3 78-16 161-30 235h-45c-17-64-17-127-58-161-8-7-21-9-35-9H631v1055c0 9 12 20 36 33s67 26 128 39V0H307v-43c63-13 116-26 155-57 6-6 9-10 9-15v-1055H172c-52 3-59 40-81 82-12 23-23 54-38 93l-43-19c7-76 18-178 33-246h1010" id="cN"/><g id="Z"><use transform="matrix(0.008680555555555556,0,0,0.008680555555555556,0,0)" xlink:href="#cN"/><use transform="matrix(0.008680555555555556,0,0,0.008680555555555556,9.791666666666668,0)" xlink:href="#cn"/><use transform="matrix(0.008680555555555556,0,0,0.008680555555555556,18.00347222222222,0)" xlink:href="#cC"/><use transform="matrix(0.008680555555555556,0,0,0.008680555555555556,22.821180555555557,0)" xlink:href="#cq"/></g><g id="aa"><use transform="matrix(0.008680555555555556,0,0,0.008680555555555556,0,0)" xlink:href="#cE"/><use transform="matrix(0.008680555555555556,0,0,0.008680555555555556,8.76736111111111,0)" xlink:href="#cD"/><use transform="matrix(0.008680555555555556,0,0,0.008680555555555556,17.708333333333336,0)" xlink:href="#cz"/></g><path d="M914-430L553-17l-43-30 231-420-230-416 42-30 359 410zm-370 0L183-17l-43-30 231-420-230-416 42-30 359 410" id="cO"/><path d="M253-1550c12 13 24 23 37 34v789c79-93 162-176 279-219 126-47 236 30 293 110 92 129 120 422 29 582C806-106 691 30 469 30 340 30 241-44 140-96v-1200c0-72-5-116-64-125-17-3-39-6-66-9v-40c91-23 169-38 243-80zm37 1347c74 54 163 101 277 103 332 7 292-579 93-697-116-69-221 19-286 83-28 28-56 63-84 104v407" id="cP"/><path d="M514-400c110 0 176-82 176-200 0-166-103-260-274-260-106 0-176 85-176 201 0 168 101 259 274 259zM392 378c206 50 428-17 428-221 0-87-73-105-152-128C598 9 468 2 388-16c-76 41-128 76-176 126-40 42-42 111-4 160 41 53 107 89 184 108zM775-813c59 73 75 219 21 313-68 117-190 200-366 205-43 36-68 61-84 99 14 50 70 52 128 66 83 20 239 29 308 56 99 38 188 77 188 194 0 182-136 265-268 330-178 88-489 47-600-64-47-46-97-127-62-212C84 67 186 21 297-42c-66-25-106-47-115-111 21-77 83-108 144-156-131-40-226-128-226-293 0-172 116-273 243-330 114-51 271-27 350 37 106-10 195-34 276-65l20 30c-18 41-27 68-57 100-53 10-96 14-157 17" id="cQ"/><path d="M270-236c68-4 101 44 99 113-2 93-48 159-138 163-73 3-100-40-100-112 0-92 50-159 139-164" id="cR"/><path d="M80-430c0-24-1-53 2-73l359-410 42 30c-73 135-157 281-230 416L484-47l-43 30zm370 0c0-24-1-53 2-73l359-410 42 30c-73 135-157 281-230 416L854-47l-43 30" id="cS"/><g id="ab"><use transform="matrix(0.008680555555555556,0,0,0.008680555555555556,0,0)" xlink:href="#cO"/><use transform="matrix(0.008680555555555556,0,0,0.008680555555555556,8.628472222222223,0)" xlink:href="#cP"/><use transform="matrix(0.008680555555555556,0,0,0.008680555555555556,17.65625,0)" xlink:href="#cC"/><use transform="matrix(0.008680555555555556,0,0,0.008680555555555556,22.473958333333336,0)" xlink:href="#cQ"/><use transform="matrix(0.008680555555555556,0,0,0.008680555555555556,31.145833333333336,0)" xlink:href="#cR"/><use transform="matrix(0.008680555555555556,0,0,0.008680555555555556,35.21701388888889,0)" xlink:href="#cM"/><use transform="matrix(0.008680555555555556,0,0,0.008680555555555556,49.496527777777786,0)" xlink:href="#cp"/><use transform="matrix(0.008680555555555556,0,0,0.008680555555555556,58.38541666666667,0)" xlink:href="#cE"/><use transform="matrix(0.008680555555555556,0,0,0.008680555555555556,67.15277777777779,0)" xlink:href="#cS"/><use transform="matrix(0.008680555555555556,0,0,0.008680555555555556,75.78125000000001,0)" xlink:href="#cR"/></g><path fill="#ef8d22" d="M148-1120c216-7 379-89 463-229h166v1204h353V0H157v-145h439v-1021c-79 124-254 184-448 194v-148" id="cT"/><g id="ac"><use transform="matrix(0.0087890625,0,0,0.0087890625,0,0)" xlink:href="#bK"/><use transform="matrix(0.0087890625,0,0,0.0087890625,10.8017578125,0)" xlink:href="#cT"/></g><path d="M715 0H502L69-1082h202c94 253 197 500 285 758 19 57 36 126 52 183 96-335 234-626 350-941h201" id="cU"/><g id="ad"><use transform="matrix(0.0087890625,0,0,0.0087890625,0,0)" xlink:href="#ao"/><use transform="matrix(0.0087890625,0,0,0.0087890625,10.8017578125,0)" xlink:href="#ap"/><use transform="matrix(0.0087890625,0,0,0.0087890625,21.603515625,0)" xlink:href="#bA"/><use transform="matrix(0.0087890625,0,0,0.0087890625,32.4052734375,0)" xlink:href="#cU"/><use transform="matrix(0.0087890625,0,0,0.0087890625,43.20703125,0)" xlink:href="#ap"/><use transform="matrix(0.0087890625,0,0,0.0087890625,54.0087890625,0)" xlink:href="#ar"/><use transform="matrix(0.0087890625,0,0,0.0087890625,64.810546875,0)" xlink:href="#aM"/><use transform="matrix(0.0087890625,0,0,0.0087890625,75.6123046875,0)" xlink:href="#bh"/></g><path fill="#ef8d22" d="M611-1370c266 0 451 106 451 368 0 147-77 243-154 327-132 144-316 255-451 395-42 44-75 87-96 134h723V0H144v-117c124-264 387-411 582-603 73-72 151-147 151-271 0-161-104-231-266-231-163 0-249 90-268 238l-184-17c35-233 185-369 452-369" id="cV"/><g id="ae"><use transform="matrix(0.0087890625,0,0,0.0087890625,0,0)" xlink:href="#bK"/><use transform="matrix(0.0087890625,0,0,0.0087890625,10.8017578125,0)" xlink:href="#cV"/></g><path d="M932 0L611-444 288 0H94l415-556-397-526h199l300 421 298-421h201L713-558 1133 0H932" id="cW"/><g id="af"><use transform="matrix(0.0087890625,0,0,0.0087890625,0,0)" xlink:href="#ao"/><use transform="matrix(0.0087890625,0,0,0.0087890625,10.8017578125,0)" xlink:href="#ap"/><use transform="matrix(0.0087890625,0,0,0.0087890625,21.603515625,0)" xlink:href="#aB"/><use transform="matrix(0.0087890625,0,0,0.0087890625,32.4052734375,0)" xlink:href="#cj"/><use transform="matrix(0.0087890625,0,0,0.0087890625,43.20703125,0)" xlink:href="#bs"/><use transform="matrix(0.0087890625,0,0,0.0087890625,54.0087890625,0)" xlink:href="#cg"/><use transform="matrix(0.0087890625,0,0,0.0087890625,64.810546875,0)" xlink:href="#bP"/><use transform="matrix(0.0087890625,0,0,0.0087890625,75.6123046875,0)" xlink:href="#cW"/></g></defs></g></svg>