<svg xmlns="http://www.w3.org/2000/svg" xmlns:xlink="http://www.w3.org/1999/xlink" width="1278" height="1160"><g transform="translate(-12 -80)"><path d="M640 420h160v80H640z" stroke="#000" stroke-width="2" fill="#de5f85"/><use xlink:href="#a" transform="matrix(1,0,0,1,645,425) translate(53.396484375 40.396484375)"/><path d="M1110 240h160v80h-160z" stroke="#000" stroke-width="2" fill="#f9d2de"/><use xlink:href="#b" transform="matrix(1,0,0,1,1115,245) translate(53.396484375 40.396484375)"/><path d="M420 420h160v80H420z" stroke="#000" stroke-width="2" fill="#c7e8ac"/><use xlink:href="#c" transform="matrix(1,0,0,1,425,425) translate(47.99560546875 40.396484375)"/><path d="M640 660h160v80H640z" stroke="#000" stroke-width="2" fill="#ffeca9"/><use xlink:href="#d" transform="matrix(1,0,0,1,645,665) translate(53.396484375 40.396484375)"/><path d="M520 240h160v80H520z" stroke="#000" stroke-width="2" fill="#99d5ca"/><use xlink:href="#e" transform="matrix(1,0,0,1,525,245) translate(42.5947265625 40.396484375)"/><path d="M890 240h160v80H890z" stroke="#000" stroke-width="2" fill="#f9d2de"/><use xlink:href="#f" transform="matrix(1,0,0,1,895,245) translate(31.79296875 40.396484375)"/><path d="M540 540h160v80H540z" stroke="#000" stroke-width="2" fill="#ffbbb1"/><use xlink:href="#g" transform="matrix(1,0,0,1,545,545) translate(53.396484375 40.396484375)"/><path d="M740 540h160v80H740z" stroke="#000" stroke-width="2" fill="#b391b5"/><use xlink:href="#h" transform="matrix(1,0,0,1,745,545) translate(64.1982421875 40.396484375)"/><path d="M340 1020h160v80H340z" stroke="#000" stroke-width="2" fill="#ffeca9"/><use xlink:href="#i" transform="matrix(1,0,0,1,345,1025) translate(31.79296875 40.396484375)"/><path d="M940 1020h160v80H940z" stroke="#000" stroke-width="2" fill="#ffeca9"/><use xlink:href="#j" transform="matrix(1,0,0,1,945,1025) translate(53.396484375 40.396484375)"/><path d="M440 900h160v80H440z" stroke="#000" stroke-width="2" fill="#ffeca9"/><use xlink:href="#k" transform="matrix(1,0,0,1,445,905) translate(42.5947265625 40.396484375)"/><path d="M820 900h160v80H820z" stroke="#000" stroke-width="2" fill="#ffeca9"/><use xlink:href="#l" transform="matrix(1,0,0,1,825,905) translate(31.79296875 40.396484375)"/><path d="M540 1020h160v80H540z" stroke="#000" stroke-width="2" fill="#ffeca9"/><use xlink:href="#m" transform="matrix(1,0,0,1,545,1025) translate(31.79296875 40.396484375)"/><path d="M720 740v139.5H620V1019" stroke="#000" stroke-width="2" fill="none"/><path d="M620 1019l-4.64-14.27h9.28z"/><path d="M620.73 1020h-1.46l-5.28-16.27h12zm-4-14.27l3.27 10.03 3.26-10.03z"/><path d="M640 700H420v320" stroke="#000" stroke-width="2" fill="none"/><path d="M420 1020l-4.64-14.27h9.28z"/><path d="M421.05 1020h-2.1l-4.96-15.27h12zm-4.3-13.27l3.25 10.03 3.26-10.03z"/><path d="M800 700h220v320" stroke="#000" stroke-width="2" fill="none"/><path d="M1020 1020l-4.64-14.27h9.28z"/><path d="M1021.05 1020h-2.1l-4.96-15.27h12zm-4.3-13.27l3.25 10.03 3.26-10.03z"/><path d="M540 1140h160v80H540z" stroke="#000" stroke-width="2" fill="#ffeca9"/><use xlink:href="#b" transform="matrix(1,0,0,1,545,1145) translate(53.396484375 40.396484375)"/><path d="M888.72 100h160v80h-160z" stroke="#000" stroke-width="2" fill="#f9d2de"/><use xlink:href="#n" transform="matrix(1,0,0,1,893.7168550703177,105) translate(47.99560546875 40.396484375)"/><path d="M908.72 420h160v80h-160z" stroke="#000" stroke-width="2" fill="#b2d6ef"/><use xlink:href="#o" transform="matrix(1,0,0,1,913.7168550703176,425) translate(53.396484375 40.396484375)"/><path d="M1050 280h59" stroke="#000" stroke-width="2" fill="none"/><path d="M1109 280l-14.27 4.64v-9.28z"/><path d="M1110 279.27v1.46l-16.27 5.28v-12zm-14.27 4l10.03-3.27-10.03-3.26z"/><path d="M970 240v-30h-1.28v-30" stroke="#000" stroke-width="2" fill="none"/><path d="M973.35 194.27h-9.27l4.64-14.27z"/><path d="M974.73 195.27H962.7l4.97-15.27h2.1zm-9.27-2h6.52l-3.26-10.03z"/><path d="M620 1100v39" stroke="#000" stroke-width="2" fill="none"/><path d="M620 1139l-4.64-14.27h9.28z"/><path d="M620.73 1140h-1.46l-5.28-16.27h12zm-4-14.27l3.27 10.03 3.26-10.03z"/><path d="M780 780h160v80H780z" stroke="#000" stroke-width="2" fill="#ffeca9"/><use xlink:href="#p" transform="matrix(1,0,0,1,785,785) translate(58.79736328125 40.396484375)"/><path d="M500 780h160v80H500z" stroke="#000" stroke-width="2" fill="#ffeca9"/><use xlink:href="#q" transform="matrix(1,0,0,1,505,785) translate(31.79296875 40.396484375)"/><path d="M639 727.7h-59V780" stroke="#000" stroke-width="2" fill="none"/><path d="M640 728.7h-1v-2h1zM580 780l-4.64-14.27h9.28z"/><path d="M581.05 780h-2.1L574 764.73h12zm-4.3-13.27l3.25 10.03 3.26-10.03z"/><path d="M801 731h59v49" stroke="#000" stroke-width="2" fill="none"/><path d="M801 732h-1v-2h1zM860 780l-4.64-14.27h9.28z"/><path d="M861.05 780h-2.1L854 764.73h12zm-4.3-13.27l3.25 10.03 3.26-10.03z"/><path d="M639 713.8H475.72V899" stroke="#000" stroke-width="2" fill="none"/><path d="M640 714.8h-1v-2h1zM475.72 899l-4.63-14.27h9.26z"/><path d="M476.45 900H475l-5.3-16.27h12.03zm-4-14.27l3.27 10.03 3.26-10.03z"/><path d="M801 714.32h166.33V899" stroke="#000" stroke-width="2" fill="none"/><path d="M801 715.32h-1v-2h1zM967.33 899l-4.64-14.27h9.26z"/><path d="M968.06 900h-1.46l-5.28-16.27h12.02zm-4-14.27l3.27 10.03 3.26-10.03z"/><path d="M730 1020h160v80H730z" stroke="#000" stroke-width="2" fill="#ffeca9"/><use xlink:href="#r" transform="matrix(1,0,0,1,735,1025) translate(58.79736328125 40.396484375)"/><path d="M730 1140h160v80H730z" stroke="#000" stroke-width="2" fill="#ffeca9"/><use xlink:href="#s" transform="matrix(1,0,0,1,735,1145) translate(31.79296875 40.396484375)"/><path d="M720 740v140h90v140" stroke="#000" stroke-width="2" fill="none"/><path d="M810 1020l-4.64-14.27h9.28z"/><path d="M811.05 1020h-2.1l-4.96-15.27h12zm-4.3-13.27l3.25 10.03 3.26-10.03z"/><path d="M810 1100v40" stroke="#000" stroke-width="2" fill="none"/><path d="M810 1140l-4.64-14.27h9.28z"/><path d="M811.05 1140h-2.1l-4.96-15.27h12zm-4.3-13.27l3.25 10.03 3.26-10.03z"/><path d="M220 280h160v80H220z" stroke="#000" stroke-width="2" fill="#c7e8ac"/><use xlink:href="#t" transform="matrix(1,0,0,1,225,285) translate(31.79296875 40.396484375)"/><path d="M32 360h160v80H32z" stroke="#000" stroke-width="2" fill="#c7e8ac"/><use xlink:href="#u" transform="matrix(1,0,0,1,37,365) translate(26.39208984375 40.396484375)"/><path d="M220 420h160v80H220z" stroke="#000" stroke-width="2" fill="#c7e8ac"/><use xlink:href="#b" transform="matrix(1,0,0,1,225,425) translate(53.396484375 40.396484375)"/><path d="M32 480h160v80H32z" stroke="#000" stroke-width="2" fill="#c7e8ac"/><use xlink:href="#v" transform="matrix(1,0,0,1,37,485) translate(15.59033203125 40.396484375)"/><path d="M220 560h160v80H220z" stroke="#000" stroke-width="2" fill="#c7e8ac"/><use xlink:href="#w" transform="matrix(1,0,0,1,225,565) translate(37.19384765625 40.396484375)"/><path d="M420 460h-39" stroke="#000" stroke-width="2" fill="none"/><path d="M395.27 464.64L381 460l14.27-4.64z"/><path d="M396.27 466L380 460.74v-1.46l16.27-5.28zm-12.03-6l10.03 3.26v-6.52z"/><path d="M443.66 419v-19H192" stroke="#000" stroke-width="2" fill="none"/><path d="M444.66 420h-2v-1h2zM206.27 404.64L192 400l14.27-4.64z"/><path d="M207.27 406L192 401.06v-2.1l15.27-4.96zm-12.03-6l10.03 3.26v-6.52z"/><path d="M444.8 501v19H192" stroke="#000" stroke-width="2" fill="none"/><path d="M445.8 501h-2v-1h2zM206.27 524.64L192 520l14.27-4.64z"/><path d="M207.27 526L192 521.06v-2.1l15.27-4.96zm-12.03-6l10.03 3.26v-6.52z"/><path d="M500 420V320H380" stroke="#000" stroke-width="2" fill="none"/><path d="M394.27 324.64L380 320l14.27-4.64z"/><path d="M395.27 326L380 321.06v-2.1l15.27-4.96zm-12.03-6l10.03 3.26v-6.52z"/><path d="M500 500v100H380" stroke="#000" stroke-width="2" fill="none"/><path d="M394.27 604.64L380 600l14.27-4.64z"/><path d="M395.27 606L380 601.06v-2.1l15.27-4.96zm-12.03-6l10.03 3.26v-6.52z"/><path d="M801 437.32h20V380h149v-60" stroke="#000" stroke-width="2" fill="none"/><path d="M801 438.32h-1v-2h1zM974.64 334.27h-9.28L970 320z"/><path d="M976 335.27h-12l4.95-15.27h2.1zm-9.26-2h6.52L970 323.24z"/><path d="M639 439.74h-39V320" stroke="#000" stroke-width="2" fill="none"/><path d="M640 440.74h-1v-2h1zM604.64 334.27h-9.28L600 320z"/><path d="M606 335.27h-12l4.95-15.27h2.1zm-9.26-2h6.52L600 323.24z"/><path d="M640 460h-59" stroke="#000" stroke-width="2" fill="none"/><path d="M595.27 464.64L581 460l14.27-4.64z"/><path d="M596.27 466L580 460.74v-1.46l16.27-5.28zm-12.03-6l10.03 3.26v-6.52z"/><path d="M720 500v159" stroke="#000" stroke-width="2" fill="none"/><path d="M720 659l-4.64-14.27h9.28z"/><path d="M720.73 660h-1.46L714 643.73h12zm-4-14.27l3.27 10.03 3.26-10.03z"/><path d="M340 100h160v80H340z" stroke="#000" stroke-width="2" fill="#99d5ca"/><use xlink:href="#b" transform="matrix(1,0,0,1,345,105) translate(53.396484375 40.396484375)"/><path d="M1108.72 360h160v80h-160z" stroke="#000" stroke-width="2" fill="#b2d6ef"/><use xlink:href="#x" transform="matrix(1,0,0,1,1113.7168550703177,365) translate(42.5947265625 40.396484375)"/><path d="M1108.72 480h160v80h-160z" stroke="#000" stroke-width="2" fill="#b2d6ef"/><use xlink:href="#y" transform="matrix(1,0,0,1,1113.7168550703177,485) translate(42.5947265625 40.396484375)"/><path d="M800 460h107.72" stroke="#000" stroke-width="2" fill="none"/><path d="M907.72 460l-14.27 4.64v-9.28z"/><path d="M908.72 459.27v1.46L892.45 466v-12zm-14.27 4l10.03-3.27-10.03-3.26z"/><path d="M1068.72 460h20v-60h20" stroke="#000" stroke-width="2" fill="none"/><path d="M1108.72 400l-14.27 4.64v-9.28z"/><path d="M1108.72 398.95v2.1l-15.27 4.96v-12zm-13.27 4.3l10.03-3.25-10.03-3.26z"/><path d="M1068.72 460h20v60h20" stroke="#000" stroke-width="2" fill="none"/><path d="M1108.72 520l-14.27 4.64v-9.28z"/><path d="M1108.72 518.95v2.1l-15.27 4.96v-12zm-13.27 4.3l10.03-3.25-10.03-3.26z"/><path d="M520 100h160v80H520z" stroke="#000" stroke-width="2" fill="#99d5ca"/><use xlink:href="#z" transform="matrix(1,0,0,1,525,105) translate(37.19384765625 40.396484375)"/><path d="M520 280H420V180" stroke="#000" stroke-width="2" fill="none"/><path d="M424.64 194.27h-9.28L420 180z"/><path d="M426 195.27h-12l4.95-15.27h2.1zm-9.26-2h6.52L420 183.24z"/><path d="M600 240v-59" stroke="#000" stroke-width="2" fill="none"/><path d="M604.64 195.27h-9.28L600 181z"/><path d="M606 196.27h-12l5.27-16.27h1.46zm-9.26-2h6.52L600 184.24z"/><path d="M704.36 240h160v80h-160z" stroke="#000" stroke-width="2" fill="#ff8f80"/><use xlink:href="#z" transform="matrix(1,0,0,1,709.3584275351589,245) translate(37.19384765625 40.396484375)"/><path d="M784.36 419v-99" stroke="#000" stroke-width="2" fill="none"/><path d="M785.36 420h-2v-1h2zM789 334.27h-9.28l4.64-14.27z"/><path d="M790.37 335.27h-12.02L783.3 320h2.1zm-9.27-2h6.52l-3.26-10.03z"/><path d="M672.4 501v19.5H620V540" stroke="#000" stroke-width="2" fill="none"/><path d="M673.4 501h-2v-1h2zM620 540l-4.64-14.27h9.28z"/><path d="M621.05 540h-2.1L614 524.73h12zm-4.3-13.27l3.25 10.03 3.26-10.03z"/><path d="M761.62 501v19.5H820V540" stroke="#000" stroke-width="2" fill="none"/><path d="M762.62 501h-2v-1h2zM820 540l-4.64-14.27h9.28z"/><path d="M821.05 540h-2.1L814 524.73h12zm-4.3-13.27l3.25 10.03 3.26-10.03z"/><defs><path d="M365-904c58-129 161-200 334-200 130 0 228 46 293 138s98 233 98 420c0 189-34 331-102 425S824 20 698 20c-170 0-275-64-336-184 0 55-3 116-9 164H179c5-68 6-147 6-223v-1261h180c-2 193 4 394-4 580h4zm283 791c221 0 256-197 256-427 0-229-34-425-254-425-236 0-285 195-285 441 0 237 53 411 283 411" id="A"/><path d="M839-1102c70 0 148 7 206 17v167c-112-18-268-36-363 15-129 69-208 203-208 395V0H294c-10-367 32-789-52-1082h171c21 75 41 161 48 250h5c67-152 152-270 373-270" id="B"/><path d="M745-142h380V0H143v-142h422v-798H246v-142h499v940zM545-1292v-192h200v192H545" id="C"/><path d="M1048-32c-2 300-135 456-433 456-222-1-358-88-400-267l184-25c22 99 100 157 222 156 184-2 248-125 248-315 0-64 3-133-2-194C807-100 706-13 524-12c-306 0-381-228-381-537 0-318 85-550 400-550 164 0 271 83 325 202h3c1-60 3-134 12-185h171c-13 339-4 702-6 1050zM585-145c210-8 284-178 284-406 0-192-52-331-177-392-33-16-69-22-104-22-223 2-259 184-259 414 0 229 31 415 256 406" id="D"/><g id="a"><use transform="matrix(0.0087890625,0,0,0.0087890625,0,0)" xlink:href="#A"/><use transform="matrix(0.0087890625,0,0,0.0087890625,10.8017578125,0)" xlink:href="#B"/><use transform="matrix(0.0087890625,0,0,0.0087890625,21.603515625,0)" xlink:href="#C"/><use transform="matrix(0.0087890625,0,0,0.0087890625,32.4052734375,0)" xlink:href="#D"/></g><path d="M1018 0H814c-67-224-138-444-200-673C552-442 476-224 407 0H204L21-1082h178c43 310 105 601 126 933 54-225 128-425 193-638h193c63 212 134 415 185 638 22-336 90-622 136-933h176" id="E"/><path d="M617-1102c355 0 481 238 477 599H322c5 222 84 388 301 388 144 0 244-59 284-166l158 45C1002-72 854 20 623 20c-342 0-490-220-490-568 0-346 151-554 484-554zm291 461c-18-192-90-328-289-328-194 0-287 128-295 328h584" id="F"/><g id="b"><use transform="matrix(0.0087890625,0,0,0.0087890625,0,0)" xlink:href="#E"/><use transform="matrix(0.0087890625,0,0,0.0087890625,10.8017578125,0)" xlink:href="#C"/><use transform="matrix(0.0087890625,0,0,0.0087890625,21.603515625,0)" xlink:href="#B"/><use transform="matrix(0.0087890625,0,0,0.0087890625,32.4052734375,0)" xlink:href="#F"/></g><path d="M873-819c-18-114-119-146-250-146-163 0-245 50-245 151 0 151 170 148 294 185 182 54 388 94 388 320 0 240-189 325-439 329-245 4-410-69-454-268l159-31c24 133 136 168 295 165 144-2 270-31 270-171 0-164-195-160-331-202-167-52-350-87-350-299 0-218 173-315 413-313 220 2 373 77 412 260" id="G"/><path d="M682 16c-209 0-323-80-324-285v-671H190v-142h170l58-282h120v282h432v142H538v652c2 114 60 155 182 155 106 0 209-16 297-34v137C921-4 806 16 682 16" id="H"/><path d="M615-1102c343 0 484 203 482 560-1 347-147 562-488 562-336 0-475-219-479-562-4-349 156-560 485-560zm-8 989c240 0 301-180 301-429 0-245-55-427-290-427-236 0-299 181-299 427 0 243 61 429 288 429" id="I"/><g id="c"><use transform="matrix(0.0087890625,0,0,0.0087890625,0,0)" xlink:href="#G"/><use transform="matrix(0.0087890625,0,0,0.0087890625,10.8017578125,0)" xlink:href="#H"/><use transform="matrix(0.0087890625,0,0,0.0087890625,21.603515625,0)" xlink:href="#I"/><use transform="matrix(0.0087890625,0,0,0.0087890625,32.4052734375,0)" xlink:href="#B"/><use transform="matrix(0.0087890625,0,0,0.0087890625,43.20703125,0)" xlink:href="#F"/></g><path d="M528 20c-247 0-343-132-343-381v-721h180v686c-4 177 45 284 224 277 194-8 279-136 279-336v-627h181c3 360-6 732 6 1082H885c-4-54-7-126-8-185h-3C809-64 714 20 528 20" id="J"/><path d="M736-142h380V0H134v-142h422v-1200H267v-142h469v1342" id="K"/><g id="d"><use transform="matrix(0.0087890625,0,0,0.0087890625,0,0)" xlink:href="#J"/><use transform="matrix(0.0087890625,0,0,0.0087890625,10.8017578125,0)" xlink:href="#H"/><use transform="matrix(0.0087890625,0,0,0.0087890625,21.603515625,0)" xlink:href="#C"/><use transform="matrix(0.0087890625,0,0,0.0087890625,32.4052734375,0)" xlink:href="#K"/></g><path d="M865-914c-3-187-2-380-2-570h180v1261c0 76 1 155 6 223H877c-8-49-9-116-10-174h-5C801-44 708 26 530 26c-135 0-234-46-297-139s-95-232-95-419c0-377 131-566 392-566 176 0 271 63 335 184zm-286-51c-222 0-255 197-255 427 0 229 31 425 253 425 237 0 286-195 286-441 0-238-52-411-284-411" id="L"/><path d="M1000-272c3 95 12 159 101 161 21 0 41-3 59-7V-6c-44 10-86 16-139 16-141 2-191-84-197-217h-6C748-76 648 20 446 20c-207 0-318-120-318-322 0-266 194-348 454-354l236-4c12-191-40-305-222-305-140 0-220 47-232 172l-188-17c33-204 181-292 423-292 255 0 401 118 401 364v466zm-683-27c0 109 63 184 175 182 166-3 259-96 306-217 24-65 20-120 20-200-232 7-501-28-501 235" id="M"/><path d="M904-1102c199 0 220 177 220 381V0H956v-686c-3-114 0-215-60-264-70-33-125-4-158 71-26 56-39 140-39 252V0H531v-686c-3-114-1-215-61-264-78-41-136 24-157 84-24 69-39 159-39 259V0H105c-3-360 6-732-6-1082h149c6 50 3 123 8 175 36-100 83-195 216-195 135 0 166 79 196 196 42-105 93-196 236-196" id="N"/><path d="M706-1102c241 0 344 136 343 381V0H868v-695c1-168-57-273-220-268-190 6-283 138-283 336V0H185c-3-360 6-732-6-1082h170c4 54 7 126 8 185h3c63-121 164-204 346-205" id="O"/><g id="e"><use transform="matrix(0.0087890625,0,0,0.0087890625,0,0)" xlink:href="#L"/><use transform="matrix(0.0087890625,0,0,0.0087890625,10.8017578125,0)" xlink:href="#M"/><use transform="matrix(0.0087890625,0,0,0.0087890625,21.603515625,0)" xlink:href="#F"/><use transform="matrix(0.0087890625,0,0,0.0087890625,32.4052734375,0)" xlink:href="#N"/><use transform="matrix(0.0087890625,0,0,0.0087890625,43.20703125,0)" xlink:href="#I"/><use transform="matrix(0.0087890625,0,0,0.0087890625,54.0087890625,0)" xlink:href="#O"/></g><path d="M839-1335c-182-6-269 67-259 253h491v142H580V0H400v-940H138v-142h262c-15-293 132-408 418-402 94 2 200 7 281 21v145c-75-10-177-14-260-17" id="P"/><g id="f"><use transform="matrix(0.0087890625,0,0,0.0087890625,0,0)" xlink:href="#H"/><use transform="matrix(0.0087890625,0,0,0.0087890625,10.8017578125,0)" xlink:href="#B"/><use transform="matrix(0.0087890625,0,0,0.0087890625,21.603515625,0)" xlink:href="#M"/><use transform="matrix(0.0087890625,0,0,0.0087890625,32.4052734375,0)" xlink:href="#O"/><use transform="matrix(0.0087890625,0,0,0.0087890625,43.20703125,0)" xlink:href="#G"/><use transform="matrix(0.0087890625,0,0,0.0087890625,54.0087890625,0)" xlink:href="#P"/><use transform="matrix(0.0087890625,0,0,0.0087890625,64.810546875,0)" xlink:href="#F"/><use transform="matrix(0.0087890625,0,0,0.0087890625,75.6123046875,0)" xlink:href="#B"/></g><g id="g"><use transform="matrix(0.0087890625,0,0,0.0087890625,0,0)" xlink:href="#P"/><use transform="matrix(0.0087890625,0,0,0.0087890625,10.8017578125,0)" xlink:href="#J"/><use transform="matrix(0.0087890625,0,0,0.0087890625,21.603515625,0)" xlink:href="#G"/><use transform="matrix(0.0087890625,0,0,0.0087890625,32.4052734375,0)" xlink:href="#F"/></g><g id="h"><use transform="matrix(0.0087890625,0,0,0.0087890625,0,0)" xlink:href="#C"/><use transform="matrix(0.0087890625,0,0,0.0087890625,10.8017578125,0)" xlink:href="#L"/></g><path d="M631 20c-350 0-501-215-501-562 0-355 162-560 502-560 250 0 399 118 446 323l-192 14c-23-124-109-196-262-196-242 0-305 171-305 415 1 245 61 427 304 427 151 0 248-77 267-215l190 12C1039-107 883 20 631 20" id="Q"/><path d="M168 279c222 39 310-114 368-290L66-1082h192c120 299 249 590 362 896 115-301 235-597 351-896h190L705 0c-65 164-130 320-275 396-67 36-177 35-262 18V279" id="R"/><g id="i"><use transform="matrix(0.0087890625,0,0,0.0087890625,0,0)" xlink:href="#G"/><use transform="matrix(0.0087890625,0,0,0.0087890625,10.8017578125,0)" xlink:href="#F"/><use transform="matrix(0.0087890625,0,0,0.0087890625,21.603515625,0)" xlink:href="#Q"/><use transform="matrix(0.0087890625,0,0,0.0087890625,32.4052734375,0)" xlink:href="#J"/><use transform="matrix(0.0087890625,0,0,0.0087890625,43.20703125,0)" xlink:href="#B"/><use transform="matrix(0.0087890625,0,0,0.0087890625,54.0087890625,0)" xlink:href="#C"/><use transform="matrix(0.0087890625,0,0,0.0087890625,64.810546875,0)" xlink:href="#H"/><use transform="matrix(0.0087890625,0,0,0.0087890625,75.6123046875,0)" xlink:href="#R"/></g><g id="j"><use transform="matrix(0.0087890625,0,0,0.0087890625,0,0)" xlink:href="#H"/><use transform="matrix(0.0087890625,0,0,0.0087890625,10.8017578125,0)" xlink:href="#B"/><use transform="matrix(0.0087890625,0,0,0.0087890625,21.603515625,0)" xlink:href="#C"/><use transform="matrix(0.0087890625,0,0,0.0087890625,32.4052734375,0)" xlink:href="#F"/></g><g id="k"><use transform="matrix(0.0087890625,0,0,0.0087890625,0,0)" xlink:href="#Q"/><use transform="matrix(0.0087890625,0,0,0.0087890625,10.8017578125,0)" xlink:href="#I"/><use transform="matrix(0.0087890625,0,0,0.0087890625,21.603515625,0)" xlink:href="#K"/><use transform="matrix(0.0087890625,0,0,0.0087890625,32.4052734375,0)" xlink:href="#I"/><use transform="matrix(0.0087890625,0,0,0.0087890625,43.20703125,0)" xlink:href="#B"/><use transform="matrix(0.0087890625,0,0,0.0087890625,54.0087890625,0)" xlink:href="#G"/></g><path d="M914 0L548-499l-132 98V0H236v-1484h180v927l475-525h211L663-617 1125 0H914" id="S"/><g id="l"><use transform="matrix(0.0087890625,0,0,0.0087890625,0,0)" xlink:href="#P"/><use transform="matrix(0.0087890625,0,0,0.0087890625,10.8017578125,0)" xlink:href="#C"/><use transform="matrix(0.0087890625,0,0,0.0087890625,21.603515625,0)" xlink:href="#K"/><use transform="matrix(0.0087890625,0,0,0.0087890625,32.4052734375,0)" xlink:href="#F"/><use transform="matrix(0.0087890625,0,0,0.0087890625,43.20703125,0)" xlink:href="#K"/><use transform="matrix(0.0087890625,0,0,0.0087890625,54.0087890625,0)" xlink:href="#I"/><use transform="matrix(0.0087890625,0,0,0.0087890625,64.810546875,0)" xlink:href="#Q"/><use transform="matrix(0.0087890625,0,0,0.0087890625,75.6123046875,0)" xlink:href="#S"/></g><path d="M698-1104c312 3 392 244 392 558 0 315-82 566-392 566-169 0-277-65-331-184h-5c8 188 2 394 4 589H185V-858c0-76-1-156-6-224h175c6 52 9 120 10 178h4c58-122 150-202 330-200zm-49 991c225 0 255-203 255-433 0-225-32-419-253-419-236 0-285 192-285 441 0 237 53 411 283 411" id="T"/><g id="m"><use transform="matrix(0.0087890625,0,0,0.0087890625,0,0)" xlink:href="#T"/><use transform="matrix(0.0087890625,0,0,0.0087890625,10.8017578125,0)" xlink:href="#B"/><use transform="matrix(0.0087890625,0,0,0.0087890625,21.603515625,0)" xlink:href="#I"/><use transform="matrix(0.0087890625,0,0,0.0087890625,32.4052734375,0)" xlink:href="#H"/><use transform="matrix(0.0087890625,0,0,0.0087890625,43.20703125,0)" xlink:href="#I"/><use transform="matrix(0.0087890625,0,0,0.0087890625,54.0087890625,0)" xlink:href="#Q"/><use transform="matrix(0.0087890625,0,0,0.0087890625,64.810546875,0)" xlink:href="#I"/><use transform="matrix(0.0087890625,0,0,0.0087890625,75.6123046875,0)" xlink:href="#K"/></g><g id="n"><use transform="matrix(0.0087890625,0,0,0.0087890625,0,0)" xlink:href="#N"/><use transform="matrix(0.0087890625,0,0,0.0087890625,10.8017578125,0)" xlink:href="#I"/><use transform="matrix(0.0087890625,0,0,0.0087890625,21.603515625,0)" xlink:href="#I"/><use transform="matrix(0.0087890625,0,0,0.0087890625,32.4052734375,0)" xlink:href="#G"/><use transform="matrix(0.0087890625,0,0,0.0087890625,43.20703125,0)" xlink:href="#F"/></g><g id="o"><use transform="matrix(0.0087890625,0,0,0.0087890625,0,0)" xlink:href="#B"/><use transform="matrix(0.0087890625,0,0,0.0087890625,10.8017578125,0)" xlink:href="#F"/><use transform="matrix(0.0087890625,0,0,0.0087890625,21.603515625,0)" xlink:href="#T"/><use transform="matrix(0.0087890625,0,0,0.0087890625,32.4052734375,0)" xlink:href="#I"/></g><g id="p"><use transform="matrix(0.0087890625,0,0,0.0087890625,0,0)" xlink:href="#K"/><use transform="matrix(0.0087890625,0,0,0.0087890625,10.8017578125,0)" xlink:href="#I"/><use transform="matrix(0.0087890625,0,0,0.0087890625,21.603515625,0)" xlink:href="#D"/></g><g id="q"><use transform="matrix(0.0087890625,0,0,0.0087890625,0,0)" xlink:href="#C"/><use transform="matrix(0.0087890625,0,0,0.0087890625,10.8017578125,0)" xlink:href="#T"/><use transform="matrix(0.0087890625,0,0,0.0087890625,21.603515625,0)" xlink:href="#P"/><use transform="matrix(0.0087890625,0,0,0.0087890625,32.4052734375,0)" xlink:href="#G"/><use transform="matrix(0.0087890625,0,0,0.0087890625,43.20703125,0)" xlink:href="#J"/><use transform="matrix(0.0087890625,0,0,0.0087890625,54.0087890625,0)" xlink:href="#H"/><use transform="matrix(0.0087890625,0,0,0.0087890625,64.810546875,0)" xlink:href="#C"/><use transform="matrix(0.0087890625,0,0,0.0087890625,75.6123046875,0)" xlink:href="#K"/></g><g id="r"><use transform="matrix(0.0087890625,0,0,0.0087890625,0,0)" xlink:href="#T"/><use transform="matrix(0.0087890625,0,0,0.0087890625,10.8017578125,0)" xlink:href="#E"/><use transform="matrix(0.0087890625,0,0,0.0087890625,21.603515625,0)" xlink:href="#L"/></g><path d="M334-464v-160h560v160H334" id="U"/><g id="s"><use transform="matrix(0.0087890625,0,0,0.0087890625,0,0)" xlink:href="#T"/><use transform="matrix(0.0087890625,0,0,0.0087890625,10.8017578125,0)" xlink:href="#E"/><use transform="matrix(0.0087890625,0,0,0.0087890625,21.603515625,0)" xlink:href="#L"/><use transform="matrix(0.0087890625,0,0,0.0087890625,32.4052734375,0)" xlink:href="#U"/><use transform="matrix(0.0087890625,0,0,0.0087890625,43.20703125,0)" xlink:href="#J"/><use transform="matrix(0.0087890625,0,0,0.0087890625,54.0087890625,0)" xlink:href="#H"/><use transform="matrix(0.0087890625,0,0,0.0087890625,64.810546875,0)" xlink:href="#C"/><use transform="matrix(0.0087890625,0,0,0.0087890625,75.6123046875,0)" xlink:href="#K"/></g><g id="t"><use transform="matrix(0.0087890625,0,0,0.0087890625,0,0)" xlink:href="#Q"/><use transform="matrix(0.0087890625,0,0,0.0087890625,10.8017578125,0)" xlink:href="#I"/><use transform="matrix(0.0087890625,0,0,0.0087890625,21.603515625,0)" xlink:href="#N"/><use transform="matrix(0.0087890625,0,0,0.0087890625,32.4052734375,0)" xlink:href="#T"/><use transform="matrix(0.0087890625,0,0,0.0087890625,43.20703125,0)" xlink:href="#B"/><use transform="matrix(0.0087890625,0,0,0.0087890625,54.0087890625,0)" xlink:href="#F"/><use transform="matrix(0.0087890625,0,0,0.0087890625,64.810546875,0)" xlink:href="#G"/><use transform="matrix(0.0087890625,0,0,0.0087890625,75.6123046875,0)" xlink:href="#G"/></g><g id="u"><use transform="matrix(0.0087890625,0,0,0.0087890625,0,0)" xlink:href="#N"/><use transform="matrix(0.0087890625,0,0,0.0087890625,10.8017578125,0)" xlink:href="#C"/><use transform="matrix(0.0087890625,0,0,0.0087890625,21.603515625,0)" xlink:href="#N"/><use transform="matrix(0.0087890625,0,0,0.0087890625,32.4052734375,0)" xlink:href="#F"/><use transform="matrix(0.0087890625,0,0,0.0087890625,43.20703125,0)" xlink:href="#U"/><use transform="matrix(0.0087890625,0,0,0.0087890625,54.0087890625,0)" xlink:href="#J"/><use transform="matrix(0.0087890625,0,0,0.0087890625,64.810546875,0)" xlink:href="#H"/><use transform="matrix(0.0087890625,0,0,0.0087890625,75.6123046875,0)" xlink:href="#C"/><use transform="matrix(0.0087890625,0,0,0.0087890625,86.4140625,0)" xlink:href="#K"/></g><g id="v"><use transform="matrix(0.0087890625,0,0,0.0087890625,0,0)" xlink:href="#P"/><use transform="matrix(0.0087890625,0,0,0.0087890625,10.8017578125,0)" xlink:href="#I"/><use transform="matrix(0.0087890625,0,0,0.0087890625,21.603515625,0)" xlink:href="#B"/><use transform="matrix(0.0087890625,0,0,0.0087890625,32.4052734375,0)" xlink:href="#N"/><use transform="matrix(0.0087890625,0,0,0.0087890625,43.20703125,0)" xlink:href="#M"/><use transform="matrix(0.0087890625,0,0,0.0087890625,54.0087890625,0)" xlink:href="#H"/><use transform="matrix(0.0087890625,0,0,0.0087890625,64.810546875,0)" xlink:href="#U"/><use transform="matrix(0.0087890625,0,0,0.0087890625,75.6123046875,0)" xlink:href="#J"/><use transform="matrix(0.0087890625,0,0,0.0087890625,86.4140625,0)" xlink:href="#H"/><use transform="matrix(0.0087890625,0,0,0.0087890625,97.2158203125,0)" xlink:href="#C"/><use transform="matrix(0.0087890625,0,0,0.0087890625,108.017578125,0)" xlink:href="#K"/></g><g id="w"><use transform="matrix(0.0087890625,0,0,0.0087890625,0,0)" xlink:href="#F"/><use transform="matrix(0.0087890625,0,0,0.0087890625,10.8017578125,0)" xlink:href="#O"/><use transform="matrix(0.0087890625,0,0,0.0087890625,21.603515625,0)" xlink:href="#Q"/><use transform="matrix(0.0087890625,0,0,0.0087890625,32.4052734375,0)" xlink:href="#B"/><use transform="matrix(0.0087890625,0,0,0.0087890625,43.20703125,0)" xlink:href="#R"/><use transform="matrix(0.0087890625,0,0,0.0087890625,54.0087890625,0)" xlink:href="#T"/><use transform="matrix(0.0087890625,0,0,0.0087890625,64.810546875,0)" xlink:href="#H"/></g><g id="x"><use transform="matrix(0.0087890625,0,0,0.0087890625,0,0)" xlink:href="#Q"/><use transform="matrix(0.0087890625,0,0,0.0087890625,10.8017578125,0)" xlink:href="#I"/><use transform="matrix(0.0087890625,0,0,0.0087890625,21.603515625,0)" xlink:href="#O"/><use transform="matrix(0.0087890625,0,0,0.0087890625,32.4052734375,0)" xlink:href="#P"/><use transform="matrix(0.0087890625,0,0,0.0087890625,43.20703125,0)" xlink:href="#C"/><use transform="matrix(0.0087890625,0,0,0.0087890625,54.0087890625,0)" xlink:href="#D"/></g><g id="y"><use transform="matrix(0.0087890625,0,0,0.0087890625,0,0)" xlink:href="#D"/><use transform="matrix(0.0087890625,0,0,0.0087890625,10.8017578125,0)" xlink:href="#K"/><use transform="matrix(0.0087890625,0,0,0.0087890625,21.603515625,0)" xlink:href="#I"/><use transform="matrix(0.0087890625,0,0,0.0087890625,32.4052734375,0)" xlink:href="#A"/><use transform="matrix(0.0087890625,0,0,0.0087890625,43.20703125,0)" xlink:href="#M"/><use transform="matrix(0.0087890625,0,0,0.0087890625,54.0087890625,0)" xlink:href="#K"/></g><g id="z"><use transform="matrix(0.0087890625,0,0,0.0087890625,0,0)" xlink:href="#Q"/><use transform="matrix(0.0087890625,0,0,0.0087890625,10.8017578125,0)" xlink:href="#N"/><use transform="matrix(0.0087890625,0,0,0.0087890625,21.603515625,0)" xlink:href="#L"/><use transform="matrix(0.0087890625,0,0,0.0087890625,32.4052734375,0)" xlink:href="#K"/><use transform="matrix(0.0087890625,0,0,0.0087890625,43.20703125,0)" xlink:href="#C"/><use transform="matrix(0.0087890625,0,0,0.0087890625,54.0087890625,0)" xlink:href="#O"/><use transform="matrix(0.0087890625,0,0,0.0087890625,64.810546875,0)" xlink:href="#F"/></g></defs></g></svg>